<?xml version="1.0" standalone="no"?>
<!DOCTYPE svg PUBLIC "-//W3C//DTD SVG 20010904//EN"
 "http://www.w3.org/TR/2001/REC-SVG-20010904/DTD/svg10.dtd">
<svg version="1.0" xmlns="http://www.w3.org/2000/svg"
 width="300.000000pt" height="226.000000pt" viewBox="0 0 300.000000 226.000000"
 preserveAspectRatio="xMidYMid meet">
<metadata>
Created by potrace 1.10, written by Peter Selinger 2001-2011
</metadata>
<g transform="translate(0.000000,226.000000) scale(0.100000,-0.100000)"
fill="#000000" stroke="none">
<path d="M1912 2250 c-19 -4 -38 -12 -43 -17 -5 -5 -8 -85 -7 -184 3 -167 4
-174 23 -173 11 1 64 7 117 15 83 11 98 16 102 34 10 37 7 335 -4 335 -5 0
-11 -20 -11 -45 -1 -25 -3 -49 -4 -55 -1 -5 -3 -61 -4 -123 l-1 -113 -100 -15
-100 -15 2 166 3 165 65 17 c51 13 58 17 30 16 -19 0 -50 -4 -68 -8z"/>
<path d="M438 2133 c-16 -2 -28 -9 -28 -15 0 -5 6 -8 14 -5 11 5 16 -7 21 -47
4 -29 6 -61 4 -72 -1 -10 0 -39 4 -64 3 -25 9 -99 12 -165 3 -66 8 -178 12
-249 5 -97 3 -127 -5 -122 -8 5 -12 0 -12 -14 0 -21 1 -21 243 -15 239 5 284
8 296 21 6 6 -211 -1 -396 -12 l-93 -6 -1 36 c-2 60 -5 106 -13 221 -4 61 -10
146 -12 190 -3 44 -7 118 -10 165 -3 47 -6 102 -5 123 0 20 0 36 -2 36 -1 -1
-14 -4 -29 -6z"/>
<path d="M593 2086 c4 -10 7 -30 7 -46 0 -23 5 -28 29 -32 28 -4 29 -2 33 35
2 21 0 41 -4 43 -4 3 -8 -12 -9 -33 l-1 -38 -14 30 -15 30 4 -27 c2 -16 0 -28
-4 -28 -5 0 -9 15 -9 34 0 19 -5 38 -12 42 -8 5 -9 2 -5 -10z"/>
<path d="M674 2046 c-8 -21 2 -46 18 -45 10 0 10 2 1 6 -7 2 -13 14 -13 26 0
18 2 19 10 7 6 -9 10 -10 10 -3 0 19 -20 26 -26 9z"/>
<path d="M794 2046 c-3 -8 -4 -23 -1 -33 3 -12 5 -8 6 10 1 19 5 26 13 21 7
-4 8 -3 4 4 -10 16 -15 15 -22 -2z"/>
<path d="M830 2023 c0 -23 -2 -25 -11 -13 -9 12 -10 12 -7 1 8 -29 28 -23 28
8 0 17 -2 31 -5 31 -3 0 -5 -12 -5 -27z"/>
<path d="M720 2020 c0 -11 4 -20 8 -20 4 0 8 9 9 20 1 11 -2 20 -8 20 -5 0 -9
-9 -9 -20z"/>
<path d="M890 1997 c0 -8 7 -18 16 -21 11 -4 14 -1 12 11 -4 21 -28 30 -28 10z"/>
<path d="M647 1967 c-3 -8 -1 -20 4 -28 6 -10 9 -7 9 14 0 29 -5 35 -13 14z"/>
<path d="M698 1958 c-10 -12 -15 -24 -11 -27 3 -3 8 0 10 7 4 10 9 8 19 -5 14
-17 14 -17 12 1 -2 10 3 21 11 24 10 3 11 -2 7 -19 -6 -20 -5 -21 4 -6 13 20
4 41 -15 33 -8 -3 -15 -1 -17 4 -2 5 -11 0 -20 -12z"/>
<path d="M777 1947 c-11 -29 -9 -43 4 -30 6 6 9 19 7 29 -3 18 -4 18 -11 1z"/>
<path d="M810 1935 c0 -14 2 -25 4 -25 2 0 6 11 8 25 3 14 1 25 -3 25 -5 0 -9
-11 -9 -25z"/>
<path d="M848 1935 c2 -14 6 -25 8 -25 2 0 4 11 4 25 0 14 -4 25 -9 25 -4 0
-6 -11 -3 -25z"/>
<path d="M650 1886 c0 -10 13 -13 48 -11 62 4 64 5 22 15 -23 6 -40 5 -49 -3
-12 -9 -13 -9 -7 1 4 6 2 12 -3 12 -6 0 -11 -6 -11 -14z"/>
<path d="M830 1870 c8 -5 24 -9 35 -9 20 0 20 0 0 9 -11 5 -27 9 -35 9 -13 1
-13 0 0 -9z"/>
<path d="M735 1844 c-11 -8 -19 -17 -17 -19 1 -3 2 -15 2 -28 0 -25 -25 -33
-47 -14 -9 7 -13 5 -13 -7 0 -11 9 -16 33 -16 17 0 41 -7 51 -15 25 -19 60
-19 76 0 10 12 16 13 29 3 14 -11 14 -11 5 2 -6 8 -14 26 -17 40 -8 33 -43 70
-65 70 -9 0 -26 -7 -37 -16z m67 -11 c10 -9 18 -30 18 -49 0 -28 -4 -35 -27
-40 -20 -6 -31 -2 -45 16 -22 28 -23 48 -1 72 20 22 31 23 55 1z"/>
<path d="M756 1811 c-9 -14 4 -41 19 -41 18 0 26 15 19 34 -7 17 -29 21 -38 7z"/>
<path d="M850 1830 c-13 -8 -12 -10 4 -10 15 0 17 -6 14 -30 -3 -16 -1 -30 4
-30 4 0 8 18 8 40 0 42 -5 46 -30 30z"/>
<path d="M2930 1753 c-19 -1 -73 -6 -119 -9 -54 -4 -80 -9 -73 -16 6 -6 42 -6
103 1 51 6 93 9 94 8 1 -1 -4 -83 -11 -182 -7 -99 -13 -191 -13 -204 l-1 -24
-180 6 c-114 4 -180 3 -180 -3 0 -6 42 -11 98 -11 133 -2 254 -7 257 -11 2 -2
-1 -72 -7 -156 -9 -139 -8 -175 7 -160 3 3 8 63 11 134 3 71 7 140 7 154 2 21
7 25 40 28 44 4 40 22 -5 22 l-31 0 6 93 c4 50 10 143 13 205 7 109 7 112 30
112 13 0 24 5 24 10 0 6 -8 9 -17 8 -10 0 -34 -3 -53 -5z"/>
<path d="M867 1690 c3 -11 7 -20 8 -20 1 0 5 9 8 20 3 12 0 20 -8 20 -8 0 -11
-8 -8 -20z"/>
<path d="M1673 1580 c0 -41 2 -58 4 -37 2 20 2 54 0 75 -2 20 -4 3 -4 -38z"/>
<path d="M750 1593 c0 -13 5 -23 10 -23 13 0 13 11 0 30 -8 12 -10 11 -10 -7z"/>
<path d="M860 1596 c0 -9 -8 -12 -25 -8 -26 5 -31 -3 -15 -28 8 -13 10 -12 10
3 0 14 5 17 20 12 16 -5 20 -2 20 14 0 12 -2 21 -5 21 -3 0 -5 -6 -5 -14z"/>
<path d="M910 1572 c0 -4 9 -8 20 -8 11 0 20 4 20 8 0 4 -9 8 -20 8 -11 0 -20
-4 -20 -8z"/>
<path d="M645 1500 c-3 -5 -1 -18 4 -27 9 -16 10 -14 11 10 0 28 -5 34 -15 17z"/>
<path d="M596 1493 c-11 -11 -6 -23 9 -23 8 0 15 4 15 9 0 13 -16 22 -24 14z"/>
<path d="M688 1483 c12 -2 30 -2 40 0 9 3 -1 5 -23 4 -22 0 -30 -2 -17 -4z"/>
<path d="M1418 1482 c-10 -2 -18 -12 -18 -23 0 -14 7 -19 25 -19 14 0 25 -5
25 -11 0 -7 -9 -9 -21 -6 -29 8 -49 -2 -49 -24 0 -23 13 -25 30 -4 7 8 21 15
31 15 24 0 31 14 23 44 -6 27 -19 34 -46 28z"/>
<path d="M703 1445 c-10 -23 -9 -25 13 -25 13 0 24 5 24 11 0 5 -4 8 -9 4 -5
-3 -11 4 -13 15 -3 18 -4 18 -15 -5z"/>
<path d="M630 1460 c-1 -3 -4 -16 -6 -30 -3 -18 -2 -22 7 -13 6 6 9 19 6 29
-3 11 -6 17 -7 14z"/>
<path d="M1498 1449 c-25 -14 -24 -59 1 -59 11 0 27 -10 36 -22 13 -20 17 -21
25 -8 11 17 5 44 -16 78 -16 25 -21 26 -46 11z m48 -53 c10 -8 17 -17 14 -19
-3 -3 -16 3 -30 13 -29 22 -14 27 16 6z"/>
<path d="M578 1425 c-6 -29 -2 -31 18 -10 9 8 12 19 9 25 -11 17 -22 11 -27
-15z"/>
<path d="M820 1443 c0 -6 -8 -9 -19 -6 -10 3 -22 0 -25 -6 -5 -7 2 -11 18 -11
25 0 43 16 32 27 -3 4 -6 2 -6 -4z"/>
<path d="M840 1435 c0 -8 7 -15 15 -15 8 0 15 4 15 9 0 5 -7 11 -15 15 -9 3
-15 0 -15 -9z"/>
<path d="M926 1435 c-3 -9 0 -15 9 -15 16 0 20 16 6 24 -5 3 -11 -1 -15 -9z"/>
<path d="M1318 1398 c-2 -7 -1 -26 3 -43 6 -28 7 -26 8 13 1 42 -3 53 -11 30z"/>
<path d="M1406 1371 c-16 -18 -13 -51 5 -51 5 0 8 -5 7 -11 -2 -6 3 -14 10
-16 6 -3 13 2 14 11 0 9 1 22 2 29 1 6 -4 11 -11 10 -7 -2 -10 4 -7 12 7 18
24 20 24 4 0 -7 8 -18 18 -26 9 -8 11 -12 5 -8 -16 8 -17 -11 -2 -20 6 -4 17
2 25 14 18 25 38 18 31 -10 -4 -16 -2 -17 14 -8 11 5 23 7 28 5 5 -3 12 1 15
10 9 23 8 24 -20 24 -15 0 -43 10 -62 22 -46 28 -76 31 -96 9z"/>
<path d="M2327 1328 c-36 -70 -35 -84 4 -24 16 27 29 55 27 63 -2 8 -15 -9
-31 -39z"/>
<path d="M1671 1298 c2 -77 6 -69 11 20 2 28 0 52 -4 52 -5 0 -7 -33 -7 -72z"/>
<path d="M1506 1321 c-4 -5 -9 -31 -13 -57 -4 -34 -3 -45 5 -40 8 5 12 0 12
-13 0 -14 6 -21 20 -21 13 0 18 -5 14 -15 -4 -8 -17 -15 -31 -15 -22 0 -25 4
-21 25 3 14 1 25 -3 25 -5 0 -9 -12 -9 -27 0 -19 -3 -24 -9 -15 -4 8 -11 13
-15 13 -3 -1 -16 0 -28 0 -17 1 -19 2 -5 6 9 2 17 9 17 15 0 6 8 21 17 32 17
20 17 20 -7 0 -14 -12 -35 -27 -47 -33 -23 -12 -32 -41 -13 -41 6 0 10 -5 10
-11 0 -5 -4 -7 -10 -4 -6 4 -10 -10 -10 -33 0 -31 -4 -41 -20 -45 -11 -3 -20
-2 -20 2 0 4 -7 8 -15 8 -36 0 12 -27 73 -41 52 -12 62 -12 62 0 0 16 -54 47
-64 36 -4 -3 -2 6 3 21 9 22 8 27 -2 21 -9 -5 -9 -4 1 7 6 7 12 21 12 31 0 20
36 26 42 7 2 -6 23 -12 47 -13 33 0 46 4 59 22 17 22 17 21 17 -32 0 -54 -14
-92 -16 -45 -1 21 -2 20 -8 -6 -4 -17 -2 -33 4 -37 6 -5 5 -8 -4 -8 -10 0 -11
-3 -2 -14 8 -9 8 -16 2 -20 -6 -4 -13 9 -16 28 -5 24 -11 33 -21 29 -8 -3 -14
0 -14 7 0 9 -3 10 -14 1 -11 -9 -15 -7 -19 9 -3 11 -11 20 -19 20 -11 0 -11
-2 0 -9 8 -4 14 -12 14 -17 0 -15 17 -41 18 -26 0 10 4 10 19 0 23 -14 44 -55
32 -62 -5 -3 -11 -19 -14 -36 -4 -16 -11 -30 -17 -30 -13 0 -8 34 9 54 12 14
11 20 -7 37 l-22 20 0 -21 c0 -12 4 -19 9 -16 5 4 7 -3 4 -14 -9 -32 -23 -34
-23 -3 0 22 -5 29 -19 29 -11 0 -17 -5 -14 -10 4 -6 -1 -6 -13 -2 -10 4 -23 8
-29 9 -5 1 -15 7 -21 13 -7 6 -41 18 -76 28 -48 13 -71 15 -91 7 -15 -6 -27
-15 -27 -19 0 -5 51 -22 113 -36 123 -30 152 -44 163 -78 9 -30 22 -38 66 -38
28 0 38 5 43 21 9 26 0 35 -20 19 -13 -11 -15 -9 -15 14 0 14 5 26 10 26 6 0
10 7 10 15 0 9 7 18 15 21 8 4 15 14 15 23 0 9 5 22 10 27 6 6 10 41 8 80 -3
62 -5 69 -24 70 -28 1 -44 12 -44 29 0 8 -7 18 -16 23 -13 7 -14 15 -6 45 10
36 9 46 -2 28z"/>
<path d="M2390 1321 c0 -5 -3 -16 -6 -25 -4 -10 -1 -16 8 -16 7 0 15 11 16 25
1 14 -3 25 -8 25 -6 0 -10 -4 -10 -9z"/>
<path d="M1447 1297 c-3 -8 0 -21 8 -27 19 -15 27 3 11 25 -11 16 -14 16 -19
2z"/>
<path d="M2473 1140 c0 -47 2 -66 4 -42 2 23 2 61 0 85 -2 23 -4 4 -4 -43z"/>
<path d="M1120 1198 c-14 -6 -86 -12 -159 -13 -96 -1 -136 -5 -139 -14 -3 -9
6 -10 32 -6 22 5 42 3 50 -4 7 -6 21 -9 30 -5 12 4 16 0 16 -16 0 -13 5 -20
13 -17 6 2 12 10 12 18 0 11 17 14 68 15 37 1 70 -3 73 -7 3 -5 8 -34 11 -64
9 -86 23 -64 23 35 0 50 -1 90 -2 89 -2 0 -14 -5 -28 -11z"/>
<path d="M1686 1203 c-4 -5 -12 -9 -17 -9 -5 -1 -13 -2 -19 -3 -13 -1 -13 -24
1 -38 9 -9 15 -8 26 3 13 12 17 11 33 -8 17 -20 19 -20 20 -5 0 25 18 21 23
-5 l4 -23 2 23 c0 12 8 22 16 22 27 0 16 21 -20 36 -38 16 -58 18 -69 7z"/>
<path d="M190 1159 c0 -15 5 -19 15 -15 9 3 15 0 15 -9 0 -17 -5 -18 -29 -6
-14 8 -18 6 -18 -7 0 -9 6 -23 13 -30 16 -16 7 -43 -12 -35 -8 3 -11 9 -8 14
3 5 1 9 -3 9 -5 0 -9 15 -8 33 0 27 -4 33 -25 35 -19 3 -22 1 -14 -10 20 -25
24 -48 9 -48 -8 0 -14 6 -13 12 2 7 -7 14 -19 16 -17 3 -21 0 -17 -12 3 -8 11
-14 17 -13 6 1 12 -9 13 -23 6 -63 8 -65 60 -62 27 2 55 9 61 14 13 10 38 8
78 -7 11 -4 5 3 -14 15 -19 12 -42 19 -53 17 -10 -3 -18 -1 -18 5 0 5 -4 6
-10 3 -13 -8 -13 -2 2 30 6 14 23 28 37 31 44 10 47 11 26 20 -11 4 -29 16
-39 26 -26 24 -46 23 -46 -3z m-38 -102 c22 -8 12 -39 -11 -35 -10 2 -17 15
-19 33 -1 17 1 25 5 19 4 -6 16 -13 25 -17z"/>
<path d="M1934 1137 c-35 -40 -81 -70 -94 -62 -6 3 -10 -1 -10 -9 0 -9 -7 -16
-15 -16 -18 0 -20 16 -2 23 6 3 2 6 -9 6 -24 1 -36 -32 -23 -65 7 -19 10 -17
13 9 0 6 8 12 16 12 8 0 20 4 27 8 6 4 14 1 16 -5 4 -10 6 -10 6 0 1 7 14 12
34 12 24 0 28 -3 17 -10 -9 -6 -10 -10 -3 -10 7 0 17 9 23 19 13 26 13 31 -5
31 -29 0 -15 19 23 30 38 12 79 37 71 43 -2 3 -16 7 -30 10 -22 6 -32 1 -55
-26z"/>
<path d="M780 1150 c31 -10 25 -10 -130 -14 -71 -1 -125 -6 -125 -12 1 -5 7
-28 13 -52 7 -24 12 -62 10 -85 -3 -40 -4 -42 -34 -39 -22 2 -33 -2 -38 -13
-5 -14 -1 -15 23 -10 28 6 123 -14 264 -57 44 -13 73 -28 83 -43 14 -22 16
-22 81 -8 67 14 91 23 59 23 -10 0 -14 5 -11 11 4 6 14 8 22 5 8 -4 56 -1 105
5 83 10 96 9 154 -11 56 -18 68 -19 105 -9 36 11 39 14 24 25 -11 8 -14 18 -9
26 11 17 14 37 6 42 -4 2 -25 7 -47 10 l-40 6 25 -20 c14 -11 28 -20 32 -20 3
0 4 -9 1 -19 -6 -24 -36 -23 -115 3 -50 16 -58 22 -58 43 0 13 4 22 8 19 18
-11 7 20 -14 41 l-22 22 0 -51 c-1 -60 -22 -91 -58 -82 -15 4 -34 0 -49 -10
-32 -21 -52 -22 -35 -1 11 13 10 14 -6 9 -10 -4 -27 -14 -36 -22 -10 -8 -18
-11 -18 -6 0 5 -4 2 -10 -6 -5 -8 -26 -15 -48 -16 -37 -1 -41 1 -46 28 -3 17
-10 27 -16 23 -6 -4 -18 -1 -27 7 -14 11 -16 11 -9 -1 9 -15 8 -14 -107 21
-57 17 -68 25 -73 47 -4 14 -13 48 -21 74 -9 26 -13 51 -9 54 3 3 0 13 -7 21
-10 13 -9 14 3 7 21 -13 53 -14 67 -3 9 7 14 6 17 -3 13 -41 14 -43 15 -23 1
13 10 25 24 29 26 8 24 8 62 0 24 -5 27 -4 15 5 -12 9 -8 10 18 5 17 -4 32 -4
32 -2 0 14 -34 37 -53 36 -20 -1 -20 -2 3 -9z m-190 -164 c13 -13 13 -46 0
-46 -13 0 -37 95 -30 125 1 6 6 -8 11 -30 5 -22 14 -44 19 -49z"/>
<path d="M1790 1141 c0 -5 -3 -18 -6 -28 -5 -16 -4 -16 8 -3 7 9 20 14 29 12
9 -1 22 4 29 13 11 13 8 15 -24 15 -20 0 -36 -4 -36 -9z"/>
<path d="M1705 1116 c17 -13 32 -22 35 -19 6 5 -41 42 -55 43 -5 0 4 -11 20
-24z"/>
<path d="M1662 1107 c2 -15 7 -28 13 -28 16 -1 16 16 0 36 -15 19 -15 19 -13
-8z"/>
<path d="M245 1090 c-18 -20 -17 -20 13 -20 17 0 34 -4 37 -10 10 -16 22 -12
20 8 -3 45 -39 56 -70 22z"/>
<path d="M2960 1079 c-17 -13 -18 -17 -5 -10 33 17 51 31 40 31 -5 0 -21 -10
-35 -21z"/>
<path d="M2814 1056 c14 -21 26 -43 26 -49 0 -6 3 -8 6 -5 7 8 -21 61 -42 78
-9 8 -5 -3 10 -24z"/>
<path d="M1705 1071 c3 -5 -4 -12 -15 -16 -23 -7 -27 -45 -5 -45 8 0 15 5 15
11 0 17 29 41 42 34 7 -4 4 1 -6 9 -22 18 -41 21 -31 7z"/>
<path d="M13 1023 c-18 -7 -16 -33 3 -33 8 0 12 5 9 11 -4 6 2 5 14 -2 11 -8
16 -16 11 -19 -5 -3 0 -11 10 -18 17 -10 20 -10 20 4 0 14 3 14 15 4 8 -7 15
-23 15 -36 0 -13 4 -24 9 -24 24 0 -22 106 -49 113 -13 3 -18 1 -14 -6 5 -8 2
-7 -7 1 -14 13 -17 13 -36 5z"/>
<path d="M1700 1005 c-13 -14 -20 -28 -17 -32 4 -3 7 -1 7 5 0 7 5 12 11 12 5
0 7 -4 4 -10 -3 -5 1 -10 10 -10 25 0 75 -39 75 -59 0 -10 -12 -22 -27 -28
-25 -9 -26 -11 -9 -18 11 -5 21 -3 26 4 4 7 11 13 16 13 5 -1 8 6 6 14 -2 8 2
14 8 14 6 0 8 5 4 12 -4 6 -3 8 3 5 5 -3 21 0 36 8 14 7 39 16 56 20 35 7 41
29 13 44 -20 11 -63 11 -57 1 5 -8 -32 -40 -45 -40 -6 0 -10 -6 -10 -12 0 -9
-4 -8 -10 2 -7 10 -10 11 -10 2 0 -7 -16 2 -35 19 -27 25 -32 35 -24 46 20 24
-7 14 -31 -12z"/>
<path d="M2095 1016 c18 -13 18 -14 -3 -41 -12 -15 -23 -37 -23 -49 -1 -20 -2
-20 -6 -1 -7 27 -33 65 -45 65 -6 0 -5 -6 2 -15 7 -8 10 -21 7 -28 -3 -7 1
-24 9 -38 15 -27 19 -52 5 -30 -8 12 -13 12 -33 -1 -20 -13 -25 -13 -36 -1 -7
7 -18 10 -24 7 -7 -4 -8 -2 -4 4 4 7 2 12 -3 12 -6 0 -11 -4 -11 -10 0 -5 -12
-10 -26 -10 -20 0 -24 4 -19 19 3 11 1 22 -5 26 -6 4 -10 -13 -10 -49 0 -63
-17 -74 -51 -33 l-19 22 -19 -22 c-12 -14 -17 -31 -14 -44 6 -21 10 -21 85
-16 58 5 78 3 79 -6 1 -7 2 -34 3 -62 1 -41 4 -50 21 -53 19 -4 19 -4 3 15
-17 19 -25 53 -12 53 4 0 13 -8 20 -17 8 -11 13 -13 14 -5 0 6 3 12 8 12 4 0
6 -48 4 -107 l-3 -108 -30 0 c-16 0 -29 4 -29 9 0 5 -8 2 -17 -5 -11 -10 -14
-10 -9 -1 4 7 1 12 -9 12 -9 0 -14 -4 -11 -9 3 -5 -13 -8 -37 -6 -54 3 -53 3
-40 16 6 6 9 18 6 25 -4 11 8 14 53 15 33 1 73 5 89 10 23 6 18 7 -20 3 -110
-9 -146 -8 -156 7 -7 9 -8 -3 -3 -36 4 -27 7 -51 8 -52 5 -6 154 -5 165 1 9 6
12 5 7 -2 -10 -17 52 -8 74 11 11 9 29 17 40 17 16 0 20 7 20 35 0 36 13 47
24 19 3 -9 6 -40 6 -70 0 -30 4 -54 9 -54 6 0 7 35 4 85 -4 60 -2 89 6 99 7 8
10 21 6 28 -4 7 0 5 8 -5 14 -16 15 -16 21 5 3 13 6 37 6 53 0 43 13 59 40 50
15 -5 20 -4 16 3 -6 11 23 32 43 32 6 0 21 -12 35 -27 22 -24 26 -25 32 -10 5
13 -8 31 -45 67 -29 28 -59 50 -67 50 -8 0 -12 5 -9 10 3 6 1 10 -5 10 -7 0
-10 7 -6 18 3 9 -7 2 -23 -16 -18 -22 -31 -30 -36 -22 -4 6 -2 17 4 24 6 7 8
15 5 19 -3 3 3 10 14 16 32 17 81 70 71 76 -12 8 -64 -18 -64 -32 0 -6 -4 -15
-9 -20 -5 -5 -6 -2 -1 6 6 10 2 12 -14 6 -15 -4 -21 -2 -21 9 0 8 -10 22 -22
30 -28 20 -49 21 -23 2z m52 -78 c-3 -9 -1 -18 4 -20 4 -2 -3 -8 -16 -15 -21
-9 -25 -9 -25 5 0 15 -2 15 -10 2 -12 -19 -22 -8 -14 14 4 10 13 15 22 11 12
-4 12 -3 3 9 -6 7 -8 21 -5 30 6 16 8 16 26 -1 11 -9 17 -25 15 -35z m-62 -59
c-4 -6 -1 -9 6 -8 8 2 24 -1 37 -5 21 -7 22 -12 16 -57 -5 -34 -3 -49 5 -49
12 0 15 -38 5 -64 -3 -9 -10 -13 -15 -10 -5 3 -9 -5 -9 -18 0 -42 -14 -52 -50
-39 -50 17 -65 14 -68 -14 -1 -22 2 -25 28 -25 25 0 30 -4 30 -25 0 -23 -29
-45 -58 -45 -4 0 -9 43 -10 96 -4 94 -3 97 17 91 12 -3 19 -1 15 4 -3 5 -12 9
-19 9 -19 0 -10 22 17 39 17 10 22 10 29 0 6 -10 11 -10 22 -1 11 10 14 7 13
-14 -1 -14 -8 -29 -15 -34 -19 -11 -6 -60 16 -60 9 0 14 3 11 6 -4 3 0 17 8
32 8 16 10 30 4 36 -5 5 -5 17 1 29 6 10 9 27 6 37 -2 9 0 25 5 34 6 10 5 16
-2 16 -5 0 -10 -4 -10 -10 0 -5 -4 -10 -10 -10 -5 0 -10 9 -10 20 0 11 -4 20
-10 20 -5 0 -10 -4 -10 -9 0 -5 -9 -7 -20 -4 -14 4 -20 0 -20 -11 0 -9 6 -16
13 -16 6 0 4 -5 -5 -11 -10 -5 -18 -16 -18 -23 0 -15 -55 -57 -64 -49 -8 9 25
44 35 37 4 -2 13 4 18 14 9 17 7 20 -14 20 -14 0 -25 -4 -25 -8 0 -3 -7 -7
-15 -7 -12 0 -12 3 -2 15 10 13 8 14 -10 8 -12 -4 -33 -4 -47 0 -20 5 -26 12
-26 33 0 20 2 23 10 11 7 -12 12 -12 22 -2 16 16 43 15 60 0 17 -17 48 -22 48
-8 0 5 8 10 19 10 10 0 24 7 31 15 14 17 24 20 15 4z m166 -19 c10 -6 19 -18
19 -26 0 -8 4 -13 9 -9 5 3 12 1 16 -5 4 -6 -4 -10 -19 -10 -14 0 -27 4 -30 9
-10 15 -46 20 -46 6 0 -8 8 -11 20 -8 12 3 20 0 20 -6 0 -7 -4 -10 -9 -7 -5 3
-14 -1 -21 -9 -9 -11 -16 -12 -30 -3 -10 7 -16 16 -13 21 3 5 9 3 14 -4 7 -11
9 -11 9 2 0 9 -7 19 -15 23 -22 8 -18 24 8 29 39 8 48 7 68 -3z m-141 -67 c0
-7 -7 -10 -15 -7 -8 4 -12 10 -9 15 3 5 0 9 -5 9 -6 0 -11 5 -11 10 0 6 8 5
20 -2 11 -7 20 -18 20 -25z"/>
<path d="M2331 988 c0 -28 2 -30 9 -13 12 28 12 45 0 45 -5 0 -10 -15 -9 -32z"/>
<path d="M1635 1000 c-4 -6 -11 -8 -16 -4 -6 3 -13 -3 -16 -15 -3 -11 -10 -18
-16 -14 -6 4 -8 -2 -4 -17 3 -13 2 -32 -4 -42 -7 -14 -6 -18 6 -18 8 0 15 6
15 14 0 8 5 18 11 22 9 5 10 -3 5 -29 -4 -22 -2 -38 5 -42 8 -5 10 7 8 43 -3
31 1 54 9 61 6 7 12 21 12 31 0 22 -5 25 -15 10z"/>
<path d="M2810 962 c0 -12 10 -26 21 -33 13 -6 19 -7 15 -1 -3 6 2 13 11 15
13 3 10 5 -7 6 -17 1 -21 4 -12 10 7 4 38 4 69 -1 52 -8 74 -5 61 8 -3 3 -40
8 -82 11 -72 6 -76 5 -76 -15z"/>
<path d="M2491 933 c-1 -34 12 -45 23 -18 3 8 1 15 -4 15 -5 0 -11 8 -13 18
-3 9 -5 2 -6 -15z"/>
<path d="M1660 901 l0 -49 42 -10 c55 -14 59 -8 14 19 -33 19 -43 42 -37 82 0
4 -3 7 -9 7 -5 0 -10 -22 -10 -49z"/>
<path d="M76 925 c-10 -8 -23 -12 -28 -9 -13 8 -49 -6 -42 -17 3 -6 12 -8 20
-5 7 3 16 1 19 -3 2 -5 -6 -12 -20 -15 -27 -7 -35 -36 -9 -36 8 0 13 4 10 8
-3 5 7 7 22 4 18 -2 37 4 52 16 27 22 24 32 -8 35 -11 0 -18 5 -16 9 3 5 10 6
15 3 5 -4 9 1 9 9 0 19 0 19 -24 1z"/>
<path d="M355 926 c-13 -10 4 -20 100 -60 92 -38 118 -54 130 -76 25 -48 55
-136 63 -181 9 -51 27 -62 30 -18 2 19 -2 28 -8 24 -6 -3 -10 4 -10 17 0 25
-18 86 -48 162 -17 42 -25 52 -58 63 -53 18 -71 25 -131 55 -42 20 -56 23 -68
14z"/>
<path d="M2602 934 c3 -3 48 -12 99 -19 106 -17 115 -17 107 -9 -3 3 -48 12
-99 19 -106 17 -115 17 -107 9z"/>
<path d="M2600 911 c0 -5 26 -13 58 -16 31 -4 76 -11 99 -15 24 -4 40 -4 38 0
-4 7 -53 18 -120 26 -16 2 -40 6 -52 9 -13 3 -23 1 -23 -4z"/>
<path d="M270 895 c0 -8 11 -17 25 -21 21 -5 25 -12 25 -43 0 -20 3 -60 6 -88
6 -49 5 -53 -14 -53 -12 0 -44 -5 -72 -11 -47 -10 -50 -12 -37 -27 13 -15 34
-78 54 -159 4 -18 9 -20 30 -12 13 5 26 9 29 9 9 0 3 -39 -11 -74 -8 -20 -13
-36 -10 -36 3 0 10 10 15 23 l9 22 0 -22 c1 -26 17 -38 27 -21 4 6 2 14 -4 16
-8 2 -12 30 -13 75 0 52 -3 66 -9 50 -6 -16 -15 -21 -31 -18 -29 6 -28 4 -39
71 -10 63 -5 76 37 88 19 6 23 2 34 -36 7 -24 12 -52 12 -63 -1 -11 1 -14 4
-7 5 13 24 17 22 5 -4 -26 3 -63 11 -63 6 0 10 6 10 14 0 7 8 12 18 11 27 -3
52 -16 47 -26 -3 -4 14 -21 37 -36 24 -15 45 -28 47 -30 9 -6 -9 -14 -90 -39
-72 -23 -96 -28 -130 -33 -13 -2 35 -141 49 -141 7 0 11 4 8 9 -4 5 0 12 6 14
8 3 6 6 -4 6 -13 1 -18 10 -19 34 -1 17 -1 36 0 40 1 5 -3 6 -9 2 -5 -3 -10
-2 -10 4 0 16 32 28 73 28 21 0 42 4 45 10 11 16 41 23 48 11 4 -7 9 -6 14 2
4 7 11 -5 17 -29 7 -28 8 -39 1 -35 -6 4 -8 1 -6 -7 3 -8 10 -13 15 -12 5 1
10 -20 12 -46 l2 -47 -56 -18 c-30 -9 -55 -22 -55 -28 0 -6 3 -8 7 -5 3 4 12
2 19 -4 8 -7 14 -6 20 2 4 8 3 9 -4 5 -7 -4 -12 -2 -12 3 0 6 4 11 9 11 16 0
23 -20 12 -34 -8 -9 -3 -20 19 -41 24 -23 30 -25 30 -11 0 9 -4 15 -9 12 -11
-7 -33 18 -24 27 3 4 13 1 22 -6 8 -6 6 1 -7 17 -12 15 -19 33 -16 38 4 6 10
5 15 -3 8 -13 13 -5 10 14 -1 5 3 6 8 3 5 -4 12 -2 16 4 3 5 15 10 25 10 16 0
19 -6 16 -28 -3 -27 -22 -72 -35 -82 -4 -3 -14 -24 -23 -47 -12 -31 -13 -43
-5 -43 16 0 32 27 73 123 32 77 68 126 82 112 11 -10 9 -54 -1 -52 -5 1 -19
-19 -30 -46 -19 -45 -19 -49 -3 -66 18 -20 6 -39 -15 -25 -8 5 -8 9 1 14 8 5
9 10 1 14 -8 5 -41 -50 -41 -69 0 -2 17 -2 37 -2 32 2 38 6 45 32 4 17 6 36 3
43 -3 7 -1 11 3 8 9 -5 42 55 42 75 0 22 41 99 53 99 20 -1 210 -29 240 -36
27 -6 28 -5 16 13 -9 16 -27 22 -78 27 -81 8 -93 10 -106 18 -12 7 -173 -32
-229 -56 -65 -27 -66 -26 -66 73 0 49 5 102 10 117 12 32 -4 142 -48 326 -14
58 -19 69 -44 77 -15 6 -28 8 -28 5 0 -3 -7 2 -16 10 -20 20 -45 21 -38 2 3
-9 12 -12 21 -9 12 5 14 3 8 -7 -6 -10 -3 -12 13 -8 14 4 22 2 22 -7 0 -7 6
-15 14 -18 26 -10 94 -332 71 -341 -13 -5 -38 8 -33 17 3 7 -43 43 -118 92
-46 29 -52 37 -57 76 -3 25 -2 45 4 47 5 2 9 12 9 23 0 10 4 19 9 19 18 0 18
40 0 80 -23 52 -23 50 2 50 11 0 17 5 14 10 -4 6 -12 9 -18 8 -7 -2 -12 0 -12
4 0 12 -39 37 -57 38 -10 0 -18 -7 -18 -15z m425 -745 c-3 -5 0 -10 7 -10 9
-1 7 -5 -4 -14 -10 -7 -16 -15 -13 -18 3 -2 -2 -5 -10 -5 -13 0 -13 3 2 19 9
10 13 18 9 18 -4 0 -4 5 -1 10 3 6 8 10 11 10 3 0 2 -4 -1 -10z"/>
<path d="M2280 895 c33 -19 46 -19 30 0 -7 8 -22 15 -34 15 -20 -1 -20 -2 4
-15z"/>
<path d="M2840 891 c-9 -18 -8 -21 7 -22 10 0 27 -3 38 -5 11 -3 35 -5 53 -6
17 -1 32 -6 32 -10 0 -4 7 -8 16 -8 14 0 14 3 4 15 -9 11 -9 15 -1 15 7 0 9 5
6 10 -10 16 -45 12 -45 -5 0 -20 -4 -19 -55 11 -44 25 -44 25 -55 5z"/>
<path d="M168 893 c-16 -3 -28 -11 -28 -19 0 -8 -4 -12 -10 -9 -5 3 -10 1 -10
-6 0 -8 10 -9 33 -5 17 4 49 9 70 13 47 7 51 34 5 32 -18 -1 -45 -4 -60 -6z"/>
<path d="M612 874 c32 -14 40 -24 53 -68 9 -28 18 -68 22 -90 l6 -38 55 5 c32
4 62 13 71 23 15 15 14 16 -4 7 -11 -4 -27 -8 -35 -7 -8 1 -23 2 -33 3 -27 2
-59 101 -32 101 8 0 14 -3 14 -7 -1 -5 -1 -16 0 -26 2 -32 17 -9 17 24 -1 26
-6 34 -27 39 -14 4 -37 14 -50 23 -13 8 -40 18 -59 21 l-35 6 37 -16z"/>
<path d="M2500 846 c-9 -12 -9 -21 2 -42 16 -34 39 -44 31 -15 -3 12 -10 21
-15 21 -6 0 -8 11 -6 25 6 29 5 30 -12 11z"/>
<path d="M2640 766 c0 -78 3 -95 16 -100 24 -9 32 3 11 18 -22 17 -24 86 -2
86 8 0 15 5 15 10 0 6 -7 10 -15 10 -8 0 -15 9 -15 20 0 11 7 20 15 20 8 0 15
7 15 15 0 8 -9 15 -20 15 -19 0 -20 -7 -20 -94z"/>
<path d="M2721 843 c0 -5 5 -17 10 -28 9 -19 9 -18 5 3 -2 12 -2 22 0 22 3 0
9 -10 14 -22 9 -23 9 -23 9 -2 1 12 -6 25 -15 28 -20 8 -24 8 -23 -1z"/>
<path d="M245 833 c-31 -7 -40 -21 -11 -16 15 3 29 9 32 14 3 5 4 8 2 8 -2 -1
-12 -3 -23 -6z"/>
<path d="M1610 833 c0 -5 5 -15 10 -23 8 -12 10 -11 10 8 0 12 -4 22 -10 22
-5 0 -10 -3 -10 -7z"/>
<path d="M2564 829 c-9 -15 1 -21 32 -17 l29 3 -27 12 c-18 8 -29 9 -34 2z"/>
<path d="M2787 795 c1 -25 -3 -45 -8 -45 -6 0 -9 -24 -7 -57 3 -54 5 -58 28
-60 16 -1 18 0 7 4 -16 4 -18 13 -11 86 3 45 10 86 15 92 14 14 11 25 -8 25
-15 0 -18 -8 -16 -45z"/>
<path d="M165 823 c-11 -2 -27 -7 -35 -10 -8 -4 -26 -7 -40 -8 -91 -5 -90 -5
-90 -26 0 -18 4 -20 48 -14 26 4 64 11 86 15 33 7 44 5 77 -17 21 -14 39 -31
41 -38 2 -10 6 -10 16 1 11 12 8 19 -13 40 -14 14 -32 23 -40 20 -11 -4 -15 2
-15 19 0 14 -3 24 -7 24 -5 -1 -17 -3 -28 -6z"/>
<path d="M1398 808 c4 -16 7 -18 10 -8 3 8 10 18 16 22 6 5 2 8 -11 8 -17 0
-20 -4 -15 -22z"/>
<path d="M2834 760 c3 -44 2 -69 -4 -65 -6 3 -10 1 -10 -4 0 -6 5 -11 11 -11
6 0 9 -9 6 -19 -2 -10 -1 -25 4 -32 6 -10 9 -7 9 11 0 14 3 62 7 108 5 73 4
82 -11 82 -15 0 -16 -9 -12 -70z"/>
<path d="M1058 800 c48 -22 55 -33 15 -25 -23 5 -25 4 -11 -5 19 -12 71 -3 62
11 -7 12 -72 39 -93 38 -9 0 3 -9 27 -19z"/>
<path d="M1680 810 c0 -5 1 -10 3 -10 1 0 18 -4 37 -10 l35 -9 -24 19 c-25 21
-51 26 -51 10z"/>
<path d="M1650 803 c0 -7 -9 -13 -20 -13 -11 0 -20 -4 -20 -10 0 -5 15 -10 33
-10 17 0 43 -3 57 -5 l25 -6 -25 13 c-14 7 -30 19 -37 28 -9 10 -12 11 -13 3z"/>
<path d="M1198 782 c9 -10 23 -16 31 -14 9 4 6 9 -10 18 -34 19 -42 17 -21 -4z"/>
<path d="M1304 743 c2 -61 6 -66 86 -90 63 -19 221 -21 260 -4 21 10 16 10
-28 6 -29 -3 -57 -3 -63 1 -6 3 -41 7 -79 8 -38 1 -75 8 -83 14 -7 7 -16 9
-20 6 -3 -3 -18 2 -34 10 l-28 16 36 -3 c24 -3 36 0 36 8 0 8 -12 12 -30 11
-16 0 -32 4 -34 11 -3 8 7 11 34 7 l38 -5 -35 19 c-19 10 -34 23 -33 28 1 6
-4 11 -12 11 -10 0 -13 -15 -11 -54z"/>
<path d="M2914 786 c-3 -8 -4 -27 -1 -43 4 -27 4 -27 6 5 0 17 6 32 11 32 6 0
10 5 10 10 0 15 -20 12 -26 -4z"/>
<path d="M1408 782 c-15 -6 -14 -8 6 -18 20 -9 23 -9 18 8 -2 10 -5 18 -6 17
0 0 -9 -3 -18 -7z"/>
<path d="M2597 743 c-6 -36 -11 -43 -30 -43 -12 0 -29 4 -37 9 -8 6 -18 7 -23
4 -16 -10 17 -23 59 -23 35 0 42 3 46 23 2 12 1 33 -2 47 -5 22 -7 19 -13 -17z"/>
<path d="M1854 735 c14 -13 26 -31 26 -40 0 -9 -12 -27 -26 -40 -15 -14 -23
-25 -17 -25 5 0 19 10 31 23 30 31 28 71 -3 91 -36 24 -42 20 -11 -9z"/>
<path d="M2200 698 c0 -62 -2 -66 -25 -72 -14 -4 -25 -13 -25 -21 0 -9 10 -15
25 -15 21 0 25 -5 25 -29 0 -20 -6 -31 -17 -34 -16 -4 -16 -5 1 -6 12 -1 16
-6 12 -16 -4 -10 1 -15 14 -15 21 0 27 15 9 25 -6 4 -9 50 -8 121 1 63 -1 118
-5 121 -3 4 -6 -23 -6 -59z"/>
<path d="M2873 725 c0 -22 2 -30 4 -17 2 12 2 30 0 40 -3 9 -5 -1 -4 -23z"/>
<path d="M2946 742 c-8 -14 -25 -135 -19 -144 2 -5 12 -7 21 -7 15 1 15 2 0 6
-35 9 -18 25 20 20 35 -6 36 -5 10 6 -36 14 -38 41 -3 35 13 -3 22 -1 19 3 -3
5 -14 9 -25 9 -20 0 -26 29 -9 46 5 5 5 15 1 23 -5 8 -11 9 -15 3z"/>
<path d="M1167 733 c-4 -3 -7 -14 -7 -23 0 -12 -20 -23 -72 -38 -46 -14 -58
-20 -33 -16 82 11 113 25 118 53 6 28 4 35 -6 24z"/>
<path d="M1620 733 c-37 -7 -59 -53 -25 -53 8 0 15 8 15 19 0 12 11 22 33 29
33 10 21 13 -23 5z"/>
<path d="M1728 715 c-3 -14 -1 -25 3 -25 5 0 9 11 9 25 0 14 -2 25 -4 25 -2 0
-6 -11 -8 -25z"/>
<path d="M2235 722 c-9 -6 -18 -72 -9 -72 2 0 11 14 20 31 10 21 11 29 3 23
-9 -5 -11 -2 -6 9 7 19 6 20 -8 9z"/>
<path d="M1455 711 c3 -6 27 -11 52 -11 57 0 53 5 -11 14 -33 5 -46 4 -41 -3z"/>
<path d="M2972 711 c-11 -6 -10 -10 4 -15 20 -8 32 0 18 14 -5 5 -15 5 -22 1z"/>
<path d="M1640 680 c0 -4 13 -10 29 -12 17 -2 28 -1 26 3 -7 10 -55 18 -55 9z"/>
<path d="M2480 617 c0 -42 0 -79 0 -82 0 -3 3 -5 8 -5 4 0 8 10 9 22 6 88 5
120 -5 130 -9 9 -12 -6 -12 -65z"/>
<path d="M2903 645 c0 -22 2 -30 4 -17 2 12 2 30 0 40 -3 9 -5 -1 -4 -23z"/>
<path d="M130 651 c0 -6 4 -13 10 -16 20 -12 56 -159 54 -220 -1 -39 1 -53 6
-40 6 15 9 16 9 4 1 -26 30 -77 47 -83 9 -3 14 -12 11 -19 -2 -6 3 -18 12 -24
14 -12 14 -14 -4 -28 -11 -9 -25 -13 -32 -11 -7 3 -13 1 -13 -4 0 -6 21 -10
46 -10 31 0 43 4 38 11 -4 7 -17 39 -29 73 -15 41 -27 60 -37 58 -10 -1 -18
14 -27 53 -7 30 -10 59 -7 64 4 5 -6 53 -21 105 -22 74 -32 96 -45 96 -10 0
-18 -4 -18 -9z"/>
<path d="M1920 646 c0 -18 -29 -28 -73 -26 -59 3 -87 0 -87 -10 0 -11 109 -14
158 -4 23 5 29 10 25 25 -7 24 -23 35 -23 15z"/>
<path d="M2562 623 c0 -21 -5 -39 -11 -41 -6 -2 -9 -8 -6 -13 4 -5 -2 -6 -11
-2 -12 4 -15 2 -12 -8 2 -7 18 -16 34 -20 16 -4 62 -16 103 -27 73 -20 74 -20
94 -1 12 10 24 19 29 19 4 0 8 5 8 11 0 5 -5 7 -11 3 -6 -3 -15 -1 -19 5 -5 9
-10 8 -20 -4 -11 -13 -10 -15 6 -9 18 7 18 6 1 -12 -12 -13 -20 -15 -25 -8 -4
6 -17 14 -29 18 -13 3 -33 9 -44 12 -12 4 -19 2 -16 -3 4 -6 -8 -5 -28 1 -27
8 -31 12 -18 19 8 5 18 6 22 1 3 -5 22 -10 41 -11 34 -1 34 -1 -10 13 -76 24
-75 23 -54 38 10 8 24 11 32 8 11 -4 11 -6 1 -13 -15 -9 -11 -11 57 -27 37 -8
94 1 82 13 -6 6 -118 37 -136 38 -8 0 -10 7 -7 16 5 13 4 14 -6 4 -18 -18 -32
-16 -25 2 3 9 0 15 -8 15 -9 0 -14 -12 -14 -37z"/>
<path d="M43 638 c-42 -9 -56 -29 -31 -44 7 -4 8 -3 4 4 -4 8 1 12 13 13 12 1
27 2 34 3 6 1 22 -1 35 -6 19 -6 22 -4 22 17 0 28 -8 29 -77 13z"/>
<path d="M960 640 l-25 -8 25 -1 c14 0 32 4 40 9 13 9 13 10 0 9 -8 -1 -26 -5
-40 -9z"/>
<path d="M2650 636 c0 -3 27 -13 60 -22 33 -9 60 -22 60 -29 0 -16 25 -26 44
-19 7 3 50 -4 94 -15 96 -25 92 -25 92 -6 0 8 -12 17 -27 21 -16 3 -44 10 -63
15 -19 4 -51 11 -70 14 -32 6 -132 29 -172 41 -10 3 -18 3 -18 0z"/>
<path d="M2296 590 c-18 -41 -30 -49 -40 -27 -3 6 -3 2 0 -10 4 -18 1 -20 -16
-16 -11 3 -20 0 -20 -6 0 -6 9 -11 19 -11 23 0 40 -22 23 -28 -20 -6 -13 -31
11 -36 79 -17 100 -17 117 -1 21 19 74 11 66 -11 -3 -7 0 -17 7 -21 17 -11 67
-12 67 -2 0 5 -5 8 -12 6 -6 -1 -13 7 -15 18 -1 11 0 15 3 8 3 -7 11 -10 19
-7 7 3 28 -2 45 -11 17 -9 38 -14 46 -11 8 3 14 1 14 -4 0 -6 10 -10 23 -10
12 -1 33 -7 46 -14 14 -8 31 -12 38 -9 8 3 23 -3 33 -12 11 -10 20 -13 20 -8
0 6 16 3 36 -7 20 -10 43 -16 51 -13 12 5 14 3 8 -7 -6 -10 -4 -12 8 -7 24 9
67 -9 67 -28 0 -12 -8 -14 -39 -9 -23 4 -41 2 -45 -4 -4 -7 8 -14 31 -18 21
-3 43 -13 50 -21 9 -12 14 -4 28 42 9 32 14 59 11 62 -2 2 -114 36 -248 74
-133 38 -249 71 -257 74 -9 3 -11 0 -7 -10 3 -8 1 -25 -4 -37 l-9 -23 0 23
c-1 18 -7 22 -31 22 -24 0 -30 4 -30 22 0 21 0 21 23 2 12 -10 9 -4 -8 14 -34
38 -48 37 -55 -4 -4 -24 -11 -29 -35 -32 -17 -1 -36 2 -44 7 -18 12 -5 52 15
44 7 -3 14 0 14 6 0 6 -8 11 -17 11 -15 0 -16 2 -3 10 8 5 15 17 15 27 0 10 6
17 13 15 8 -1 12 3 10 10 -9 25 -25 17 -42 -22z"/>
<path d="M825 610 c-27 -7 -28 -8 -5 -8 14 0 34 3 45 8 25 11 2 11 -40 0z"/>
<path d="M1259 606 c-2 -2 -150 -47 -328 -100 -178 -52 -325 -96 -326 -98 -2
-2 -6 -29 -9 -60 -4 -47 -3 -58 9 -58 10 0 15 10 16 28 l0 27 10 -24 9 -24 23
22 c13 11 27 18 30 14 4 -3 7 -1 7 6 0 6 7 11 16 9 10 -2 19 3 21 10 3 6 -2
12 -11 12 -8 0 -14 8 -13 19 1 23 47 36 47 14 0 -8 -4 -12 -9 -9 -4 3 -6 -6
-3 -21 4 -21 7 -24 16 -12 6 8 20 14 30 14 13 0 23 10 29 30 12 37 10 35 33
40 11 2 38 9 62 15 29 7 49 7 60 0 14 -8 13 -9 -8 -10 -15 0 -31 -5 -38 -12
-9 -9 -12 -9 -12 3 -1 11 -2 11 -10 -2 -5 -9 -19 -15 -32 -14 -20 1 -48 -15
-48 -28 0 -3 9 -7 20 -10 13 -3 20 0 20 10 0 9 6 13 15 10 8 -4 17 -2 19 2 3
5 17 9 32 9 14 0 29 3 33 8 3 5 22 9 41 9 20 0 42 8 54 19 15 15 20 16 27 5 6
-11 9 -10 15 4 3 9 10 15 14 12 4 -3 27 2 50 10 23 8 52 15 64 15 18 0 23 8
32 55 9 49 7 64 -7 51z m-458 -185 c4 7 11 10 15 6 4 -4 0 -15 -9 -24 -12 -13
-20 -14 -28 -6 -6 6 -8 17 -3 24 6 11 8 11 12 0 4 -11 6 -11 13 0z m-103 -46
c-2 -11 -11 -20 -20 -20 -9 0 -20 -4 -24 -8 -4 -4 -2 -7 5 -7 7 0 9 -4 6 -10
-3 -5 -11 -10 -16 -10 -6 0 -8 4 -4 9 3 5 1 13 -5 16 -7 4 -4 13 9 24 11 10
18 21 15 24 -4 3 3 5 15 4 16 -1 21 -7 19 -22z"/>
<path d="M1310 596 c0 -12 10 -16 38 -17 20 0 51 -2 67 -5 17 -2 45 -6 63 -8
17 -3 32 -1 32 5 0 5 -1 9 -2 9 -29 1 -168 20 -180 25 -13 5 -18 2 -18 -9z"/>
<path d="M1705 599 c-11 -4 -39 -8 -62 -8 -43 -1 -62 -21 -20 -21 12 0 29 -4
37 -10 9 -5 17 -5 21 1 7 11 39 1 39 -13 0 -5 -6 -6 -12 -2 -7 4 -4 -3 7 -16
l20 -23 -49 7 c-27 3 -65 6 -85 6 -28 0 -33 3 -21 11 12 8 12 12 2 16 -9 3
-10 9 -2 18 8 9 5 14 -10 18 -24 6 -38 -11 -19 -25 11 -7 11 -11 2 -15 -7 -2
-13 -10 -13 -18 0 -8 19 -14 56 -17 31 -3 59 -11 64 -18 12 -19 90 -31 90 -14
0 9 -14 15 -42 16 l-43 1 38 4 38 4 -6 52 c-4 29 -8 53 -8 53 -1 1 -11 -2 -22
-7z"/>
<path d="M1300 553 c0 -10 -3 -29 -7 -43 l-6 -25 22 20 c18 16 42 21 114 25
l92 5 -92 8 c-51 5 -95 13 -98 18 -10 15 -25 10 -25 -8z"/>
<path d="M1618 553 c-10 -2 -18 -9 -18 -14 0 -6 7 -6 19 0 10 6 21 7 25 4 3
-3 6 -1 6 5 0 12 -3 13 -32 5z"/>
<path d="M2812 538 c4 -11 100 -42 168 -54 25 -4 25 -4 2 6 -13 5 -21 14 -18
19 7 11 -41 21 -79 15 -23 -3 -25 -2 -10 4 16 8 15 10 -14 15 -46 10 -53 9
-49 -5z"/>
<path d="M2530 510 c34 -11 60 -11 35 0 -11 5 -29 8 -40 8 -16 0 -15 -2 5 -8z"/>
<path d="M2794 506 c-3 -9 -14 -16 -24 -16 -20 0 -36 -17 -26 -28 4 -3 16 0
28 7 18 11 20 11 15 -3 -8 -20 0 -24 101 -52 94 -26 142 -31 77 -8 l-40 14 40
-5 c26 -4 35 -3 26 3 -11 8 -11 10 0 15 8 4 1 4 -16 1 -21 -4 -26 -3 -16 4 11
8 11 11 0 16 -8 3 -1 3 16 0 56 -11 17 8 -56 26 -41 11 -85 17 -99 14 -18 -4
-21 -3 -11 4 9 7 10 12 2 16 -6 4 -14 0 -17 -8z m49 -24 c-8 -5 2 -12 27 -19
22 -5 40 -6 40 -2 0 5 5 9 10 9 23 0 8 -28 -19 -33 -35 -7 -87 6 -83 22 1 6
-4 11 -10 12 -7 0 -4 4 7 9 25 11 44 12 28 2z"/>
<path d="M2840 450 c34 -11 60 -11 35 0 -11 5 -29 8 -40 8 -16 0 -15 -2 5 -8z"/>
<path d="M1450 492 c-45 -17 -45 -17 -42 -60 3 -34 7 -42 18 -38 9 3 20 6 25
6 6 0 9 19 7 43 -3 39 -1 42 22 43 14 0 26 4 28 9 6 15 -10 14 -58 -3z"/>
<path d="M1540 490 c0 -5 7 -10 15 -10 8 0 15 5 15 10 0 6 -7 10 -15 10 -8 0
-15 -4 -15 -10z"/>
<path d="M2645 480 c11 -5 27 -9 35 -9 9 0 8 4 -5 9 -11 5 -27 9 -35 9 -9 0
-8 -4 5 -9z"/>
<path d="M1795 470 c12 -4 73 -11 137 -15 l117 -7 40 -45 c23 -24 45 -41 51
-38 5 3 10 2 10 -4 0 -5 -4 -11 -9 -13 -5 -1 6 -20 25 -40 19 -21 34 -33 34
-27 0 5 4 8 10 4 5 -3 6 -13 3 -22 -4 -11 -2 -14 8 -11 21 7 17 41 -7 53 -34
17 -55 37 -51 49 7 17 -23 45 -41 39 -12 -3 -13 -2 -5 4 16 11 -10 53 -33 53
-8 0 -14 4 -14 9 0 6 -9 8 -20 6 -11 -2 -20 -1 -20 3 0 4 -58 8 -128 9 -74 1
-119 -2 -107 -7z"/>
<path d="M115 459 c-35 -9 -72 -29 -51 -29 23 0 96 24 96 31 0 5 -1 9 -2 8 -2
-1 -21 -5 -43 -10z"/>
<path d="M1350 458 c-42 -12 -62 -27 -26 -21 19 4 26 1 26 -10 0 -8 6 -20 14
-26 11 -10 15 -4 18 29 2 22 3 40 3 39 0 0 -16 -5 -35 -11z"/>
<path d="M1500 458 c0 -8 5 -19 11 -25 15 -15 2 -51 -19 -55 -11 -3 -7 -6 11
-10 28 -5 28 -5 25 45 -2 29 -8 52 -15 55 -7 2 -13 -3 -13 -10z"/>
<path d="M1600 460 c0 -6 12 -15 26 -20 32 -13 44 -13 44 0 0 5 -7 7 -15 4
-10 -4 -14 -1 -12 7 2 8 2 11 0 7 -3 -5 -13 -3 -24 2 -13 8 -19 7 -19 0z"/>
<path d="M1790 446 c0 -13 12 -16 63 -15 l62 2 -50 6 c-27 4 -56 10 -62 14 -9
5 -13 3 -13 -7z"/>
<path d="M5 431 c-3 -2 -5 -8 -5 -12 0 -8 38 0 44 10 5 7 -32 9 -39 2z"/>
<path d="M1923 434 c9 -10 14 -11 55 -13 20 -1 34 -11 54 -44 15 -23 39 -53
53 -67 14 -13 25 -29 25 -36 0 -7 4 -14 8 -16 12 -5 52 -65 47 -70 -2 -2 -30
-1 -62 3 -32 4 -80 7 -108 7 l-50 0 55 -9 c100 -15 212 -20 205 -8 -4 6 -13 8
-21 5 -8 -3 -11 0 -7 10 4 12 -33 74 -57 94 -3 3 -27 35 -53 73 -29 41 -55 67
-66 67 -10 0 -34 3 -52 6 -20 4 -31 3 -26 -2z"/>
<path d="M1273 393 c0 -15 33 -18 41 -4 3 5 -5 11 -17 13 -15 3 -24 0 -24 -9z"/>
<path d="M2207 368 c22 -24 51 -56 64 -72 61 -75 82 -96 90 -90 5 3 9 0 9 -6
0 -6 5 -8 10 -5 6 3 10 4 10 1 0 -7 -69 -39 -85 -39 -7 0 -12 -7 -11 -15 1 -8
-14 -20 -34 -28 -19 -7 -30 -13 -25 -13 19 -2 -20 -21 -45 -22 -14 0 -20 -3
-13 -5 14 -6 -13 -36 -54 -58 -15 -8 -22 -15 -15 -16 8 0 98 56 201 125 103
69 193 125 198 125 13 0 38 29 31 35 -2 3 -35 -15 -73 -40 -78 -50 -82 -49
-138 17 -67 80 -134 148 -148 148 -7 0 5 -19 28 -42z"/>
<path d="M1132 383 c-16 -12 -16 -13 0 -7 10 3 25 -1 33 -10 9 -9 24 -16 33
-16 15 1 14 3 -3 16 -11 8 -19 19 -18 23 3 12 -26 9 -45 -6z"/>
<path d="M1073 368 c-18 -6 -33 -15 -33 -19 0 -9 47 8 65 23 11 9 10 9 -32 -4z"/>
<path d="M1620 355 c14 -7 27 -11 30 -9 6 7 -22 24 -40 23 -9 0 -5 -6 10 -14z"/>
<path d="M2680 350 c0 -5 7 -10 15 -10 8 0 15 5 15 10 0 6 -7 10 -15 10 -8 0
-15 -4 -15 -10z"/>
<path d="M963 330 c-31 -12 -29 -22 1 -10 13 5 27 6 30 3 3 -4 6 -1 6 5 0 14
-7 14 -37 2z"/>
<path d="M86 294 c-43 -13 -81 -26 -84 -29 -3 -3 2 -12 11 -20 9 -9 14 -12 12
-8 -5 6 48 35 70 38 46 7 85 19 85 26 0 5 7 6 15 3 8 -4 15 -1 15 5 0 16 -35
12 -124 -15z"/>
<path d="M1581 311 c-11 -7 -9 -11 8 -20 21 -12 27 -6 13 16 -5 7 -13 9 -21 4z"/>
<path d="M2762 315 c3 -3 25 -8 49 -11 32 -4 40 -2 29 5 -15 11 -88 16 -78 6z"/>
<path d="M880 300 c-12 -8 -10 -10 10 -10 14 -1 58 -5 98 -9 40 -4 78 -3 85 1
8 5 5 8 -8 8 -53 2 -123 9 -145 14 -14 4 -32 2 -40 -4z"/>
<path d="M1140 293 c0 -11 6 -14 24 -9 32 8 44 -11 39 -56 -5 -34 -8 -37 -29
-32 -20 5 -23 3 -18 -10 5 -12 2 -15 -12 -10 -18 5 -18 5 -1 -6 9 -6 17 -22
17 -35 0 -14 5 -25 11 -25 6 0 8 9 4 23 -5 19 -4 20 7 6 9 -11 20 -14 33 -9
29 10 45 2 91 -47 22 -24 45 -43 51 -43 7 0 19 -8 29 -17 16 -16 16 -16 10 4
-12 38 3 73 31 73 18 0 24 -4 20 -15 -4 -8 -1 -17 5 -21 7 -4 8 -3 4 4 -4 7
-1 12 8 12 24 0 46 -11 46 -24 0 -7 14 -23 32 -36 25 -19 30 -20 25 -6 -4 10
-7 20 -7 22 0 2 -9 4 -21 4 -11 0 -18 4 -14 9 3 5 1 12 -5 16 -5 3 -10 15 -10
26 0 10 -5 19 -11 19 -5 0 -7 -5 -4 -10 9 -14 -32 -7 -47 8 -7 7 -20 12 -29
12 -10 0 -19 11 -22 29 -4 20 -13 30 -31 33 -31 6 -31 7 -6 -22 11 -13 21 -29
21 -37 1 -7 2 -19 3 -25 4 -24 -14 -49 -27 -38 -46 37 -65 58 -68 75 -3 12
-14 21 -29 24 -14 1 -28 8 -32 15 -5 6 -8 2 -8 -11 0 -13 -6 -23 -14 -23 -24
0 -23 32 1 57 41 40 24 85 -37 103 -24 7 -30 6 -30 -7z"/>
<path d="M1095 290 c-7 -11 22 -26 32 -16 4 3 1 6 -6 6 -7 0 -9 5 -6 10 3 6 2
10 -4 10 -5 0 -13 -5 -16 -10z"/>
<path d="M1830 270 c19 -13 30 -13 30 0 0 6 -10 10 -22 10 -19 0 -20 -2 -8
-10z"/>
<path d="M1290 260 c-13 -9 -13 -10 0 -11 10 0 8 -3 -5 -9 -19 -8 -19 -9 2 -9
12 -1 25 4 28 9 3 6 1 10 -5 10 -6 0 -8 5 -5 10 8 12 4 12 -15 0z"/>
<path d="M1427 256 c-9 -23 15 -47 34 -35 8 5 9 9 3 9 -6 0 -15 10 -21 22 -8
20 -10 20 -16 4z"/>
<path d="M1944 255 c18 -14 17 -16 -25 -35 -39 -17 -41 -20 -16 -20 15 0 27 4
27 9 0 5 17 12 38 16 21 4 31 10 22 13 -8 3 -19 11 -23 18 -4 8 -16 14 -25 14
-15 -1 -15 -2 2 -15z"/>
<path d="M2023 253 c9 -9 20 -13 24 -9 4 4 1 11 -7 16 -25 16 -35 11 -17 -7z"/>
<path d="M1063 252 l-22 -7 24 -12 c22 -10 25 -9 25 8 0 10 -1 19 -2 18 -2 -1
-13 -4 -25 -7z"/>
<path d="M2237 246 c-15 -12 -16 -16 -4 -23 8 -4 19 -18 26 -30 6 -13 17 -23
23 -23 9 0 9 3 0 12 -17 17 -15 28 5 21 11 -4 14 -3 9 5 -4 7 -16 12 -26 12
-10 0 -22 5 -26 11 -4 8 1 9 17 4 21 -7 22 -6 10 9 -7 9 -14 16 -15 16 0 0 -9
-7 -19 -14z"/>
<path d="M1787 238 c-2 -7 2 -27 10 -45 7 -18 13 -48 13 -66 0 -33 -2 -35 -49
-44 -42 -8 -52 -7 -75 10 -30 22 -51 12 -40 -17 6 -15 16 -17 63 -12 105 10
121 15 121 46 0 14 -5 52 -11 83 -11 55 -23 71 -32 45z"/>
<path d="M2952 120 c-22 -66 -37 -120 -33 -120 10 0 52 94 54 120 1 10 6 18
11 17 6 -1 12 22 14 51 2 28 2 52 0 52 -2 0 -23 -54 -46 -120z"/>
<path d="M1120 220 c0 -5 -8 -10 -17 -11 -11 0 -13 -3 -6 -6 7 -2 23 3 35 11
18 13 19 16 5 16 -9 0 -17 -4 -17 -10z"/>
<path d="M805 211 c-15 -26 -54 -164 -49 -173 4 -7 2 -8 -4 -4 -8 5 -12 -1
-12 -14 0 -31 22 -19 35 19 10 29 12 31 24 17 10 -12 17 -13 26 -6 9 8 15 8
20 0 3 -5 1 -10 -6 -10 -8 0 -8 -4 1 -15 7 -8 18 -15 24 -14 7 0 6 2 -1 6 -18
7 -16 23 2 23 8 0 15 4 15 10 0 5 -6 7 -14 4 -8 -3 -17 0 -21 6 -5 8 -11 8
-20 0 -21 -18 -39 13 -24 42 7 13 11 23 10 23 -2 0 2 19 8 42 11 41 12 42 49
37 28 -4 33 -3 22 5 -19 13 -77 14 -85 2z"/>
<path d="M1398 196 c5 -11 16 -21 23 -23 8 -1 28 -6 44 -9 27 -7 29 -6 16 10
-11 13 -16 14 -22 4 -7 -10 -9 -10 -9 0 0 6 -8 12 -18 12 -10 0 -24 6 -31 13
-11 10 -12 9 -3 -7z"/>
<path d="M855 185 c11 -9 19 -21 18 -26 -4 -11 8 -11 27 1 11 7 9 11 -14 20
-16 6 -34 13 -40 16 -6 3 -2 -2 9 -11z"/>
<path d="M1702 188 c-15 -15 -16 -28 -2 -28 6 0 10 7 10 15 0 9 6 12 17 8 11
-4 14 -3 9 5 -9 15 -19 15 -34 0z"/>
<path d="M1627 171 c-10 -12 -9 -14 6 -8 10 4 23 7 28 7 5 0 9 4 9 8 0 14 -30
10 -43 -7z"/>
<path d="M546 161 c-15 -17 -15 -19 1 -32 15 -11 16 -11 6 1 -10 11 -9 17 4
32 9 10 14 18 11 18 -3 0 -12 -8 -22 -19z"/>
<path d="M1568 173 c-24 -6 -23 -23 2 -23 14 0 20 -7 20 -21 0 -11 -4 -18 -9
-14 -5 3 -12 -4 -16 -15 -5 -16 -10 -18 -26 -10 -25 14 -24 6 3 -20 21 -20 44
-28 34 -12 -3 5 3 22 13 39 11 18 16 35 11 43 -5 7 -6 19 -3 27 5 13 1 14 -29
6z"/>
<path d="M940 158 c0 -10 -5 -18 -11 -18 -5 0 -8 -4 -5 -8 3 -5 19 -7 35 -4
17 2 28 9 25 14 -3 5 -8 7 -12 4 -3 -3 -11 2 -18 12 -13 16 -13 16 -14 0z"/>
<path d="M1717 149 c-7 -28 -6 -31 12 -20 9 6 10 14 4 26 -9 15 -11 15 -16 -6z"/>
<path d="M1855 160 c-11 -18 1 -23 57 -25 29 -1 67 -5 83 -9 23 -6 26 -5 15 3
-8 6 -23 11 -33 11 -10 0 -15 5 -12 10 4 6 -10 10 -34 10 -21 0 -46 3 -54 6
-8 3 -18 0 -22 -6z"/>
<path d="M376 150 c-35 -11 -47 -28 -40 -55 5 -19 4 -19 -9 -2 -8 9 -18 17
-22 17 -4 0 -2 -6 4 -14 8 -10 9 -16 1 -21 -5 -3 -13 1 -16 9 -3 9 -10 13 -15
10 -10 -6 60 -94 74 -94 5 0 4 7 -3 15 -9 11 -10 19 -3 26 8 8 14 5 22 -9 6
-10 8 -21 6 -24 -2 -2 6 -4 20 -4 13 0 21 4 19 8 -3 5 -9 6 -14 3 -6 -4 -20
15 -24 35 -1 3 -10 18 -20 33 -14 21 -16 31 -7 40 6 6 11 7 11 3 0 -5 8 -2 17
5 14 12 15 12 9 0 -6 -8 0 -7 18 4 40 27 30 32 -28 15z m-13 -90 c8 -9 8 -11
0 -6 -6 3 -15 2 -18 -4 -5 -8 -11 -7 -21 1 -7 6 -12 15 -9 19 7 12 33 6 48
-10z"/>
<path d="M2000 156 c0 -10 64 -33 78 -28 23 8 12 18 -25 20 -20 2 -40 5 -45 8
-4 3 -8 3 -8 0z"/>
<path d="M16 141 c-19 -7 -19 -8 2 -13 15 -4 22 -2 22 8 0 8 -1 14 -2 13 -2 0
-12 -4 -22 -8z"/>
<path d="M2100 132 c0 -9 6 -12 17 -8 9 4 20 1 24 -6 6 -9 11 -9 24 2 10 8 19
10 23 4 11 -15 29 -14 29 1 0 8 -3 13 -6 11 -3 -2 -30 0 -58 3 -43 6 -53 5
-53 -7z"/>
<path d="M433 126 c0 -9 4 -16 9 -16 5 0 7 -4 4 -9 -6 -9 23 -38 33 -33 3 1 6
-4 6 -10 0 -7 5 -13 10 -13 6 0 15 -4 22 -8 15 -9 11 16 -6 37 -7 8 -18 14
-24 13 -7 -1 -11 4 -9 10 1 7 -2 12 -7 10 -5 -1 -16 6 -24 17 -12 16 -14 16
-14 2z"/>
<path d="M1065 132 c-13 -9 -15 -62 -2 -62 5 0 4 -7 -3 -15 -20 -24 -3 -17 27
12 20 18 22 24 9 20 -14 -6 -17 -4 -12 9 3 8 6 19 6 24 0 5 12 11 28 13 23 3
22 4 -8 5 -19 1 -39 -2 -45 -6z"/>
<path d="M1635 130 c-3 -5 3 -10 14 -10 12 0 21 5 21 10 0 6 -6 10 -14 10 -8
0 -18 -4 -21 -10z"/>
<path d="M824 123 c7 -8 11 -9 37 -12 5 0 7 -6 3 -13 -5 -8 -2 -9 10 -5 10 4
27 7 39 7 17 1 19 2 7 9 -21 11 -106 24 -96 14z"/>
<path d="M396 112 c-3 -6 6 -17 19 -26 14 -9 23 -21 21 -25 -7 -10 39 -54 60
-57 8 -1 -8 23 -37 54 -29 31 -54 58 -55 60 -1 2 -5 -1 -8 -6z"/>
<path d="M1208 102 c-28 -14 -35 -21 -28 -32 7 -11 10 -12 10 -2 0 7 5 10 12
6 7 -4 8 -3 4 4 -4 8 3 16 18 22 14 5 26 12 26 15 0 7 0 7 -42 -13z"/>
<path d="M1846 101 c12 -12 144 -23 144 -12 0 9 -71 21 -123 21 -19 0 -27 -4
-21 -9z"/>
<path d="M2000 89 c0 -5 3 -10 8 -10 10 -2 40 -7 80 -13 22 -3 32 -1 32 8 0 7
-16 13 -39 14 -21 2 -48 5 -60 7 -11 2 -21 0 -21 -6z"/>
<path d="M1237 70 c-15 -18 -14 -24 6 -21 4 0 7 -6 7 -14 0 -18 21 -20 38 -3
17 17 15 41 -3 34 -8 -3 -18 1 -23 9 -6 12 -11 12 -25 -5z"/>
<path d="M390 74 c0 -6 17 -26 38 -45 l37 -34 -35 40 c-19 22 -36 42 -37 44
-2 2 -3 0 -3 -5z"/>
<path d="M940 63 c-13 -15 -12 -16 4 -10 10 4 20 7 22 7 2 0 4 5 4 10 0 15
-13 12 -30 -7z"/>
<path d="M1021 52 c-8 -14 -6 -19 5 -19 7 0 14 9 14 19 0 10 -2 18 -5 18 -2 0
-9 -8 -14 -18z"/>
<path d="M1156 62 c-3 -6 -1 -14 5 -17 15 -10 25 3 12 16 -7 7 -13 7 -17 1z"/>
<path d="M1596 62 c-5 -9 40 -62 53 -62 16 0 -12 58 -31 63 -10 3 -20 2 -22
-1z"/>
<path d="M268 42 c9 -11 21 -17 26 -14 5 3 1 11 -9 19 -27 19 -38 16 -17 -5z"/>
<path d="M1193 40 c3 -10 0 -21 -7 -24 -6 -2 -3 -5 6 -5 9 -1 20 4 23 9 4 6
12 7 18 4 7 -4 2 3 -10 15 -28 26 -37 27 -30 1z"/>
<path d="M197 36 c-3 -8 1 -17 10 -20 22 -9 24 -4 8 17 -10 14 -14 15 -18 3z"/>
<path d="M900 15 c15 -18 36 -19 46 -3 4 7 3 8 -4 4 -7 -4 -12 -2 -12 3 0 6
-10 11 -21 11 -18 0 -19 -2 -9 -15z"/>
</g>
</svg>
