<?xml version="1.0" standalone="no"?>
<!DOCTYPE svg PUBLIC "-//W3C//DTD SVG 20010904//EN"
 "http://www.w3.org/TR/2001/REC-SVG-20010904/DTD/svg10.dtd">
<svg version="1.0" xmlns="http://www.w3.org/2000/svg"
 width="450.000000pt" height="338.000000pt" viewBox="0 0 450.000000 338.000000"
 preserveAspectRatio="xMidYMid meet">
<metadata>
Created by potrace 1.10, written by Peter Selinger 2001-2011
</metadata>
<g transform="translate(0.000000,338.000000) scale(0.100000,-0.100000)"
fill="#808080" stroke="none">
<path d="M121 3348 l44 -31 -30 -10 c-17 -5 -35 -14 -42 -19 -7 -6 -19 -5 -32
1 -31 17 -41 13 -41 -14 0 -33 21 -32 96 3 32 16 70 34 84 40 14 6 45 23 70
37 39 22 41 25 19 25 -14 0 -30 -5 -36 -11 -8 -8 -17 -8 -33 1 -18 10 -24 9
-31 -1 -7 -11 -12 -12 -29 -1 -11 6 -34 12 -51 12 l-32 0 44 -32z"/>
<path d="M555 3358 c-14 -22 -14 -23 7 -31 66 -24 149 -72 196 -113 l52 -46
55 18 c31 9 58 21 61 25 7 12 -17 11 -35 0 -10 -6 -35 7 -85 45 -75 57 -164
107 -208 118 -21 5 -30 1 -43 -16z"/>
<path d="M816 3329 c44 -29 93 -67 110 -85 30 -31 34 -32 69 -23 l37 11 -23
24 c-12 13 -56 47 -98 74 -65 43 -82 50 -124 50 l-50 0 79 -51z"/>
<path d="M1014 3329 c42 -27 79 -56 83 -63 5 -6 76 -51 158 -98 83 -47 180
-104 215 -127 36 -22 85 -52 110 -67 25 -15 106 -64 180 -109 74 -45 173 -104
220 -132 116 -69 522 -266 645 -312 55 -21 131 -53 170 -70 38 -18 108 -45
155 -61 47 -15 153 -55 235 -87 83 -33 175 -65 205 -72 30 -6 127 -36 215 -67
198 -68 233 -77 420 -105 83 -12 158 -26 168 -31 14 -7 276 -58 300 -58 4 0 7
8 7 18 0 15 -13 21 -67 31 -38 7 -86 18 -108 25 -22 7 -139 30 -260 51 -185
32 -256 49 -450 112 -383 123 -420 135 -432 145 -7 6 -13 8 -13 5 0 -4 -21 3
-47 14 -27 11 -97 38 -158 59 -192 66 -397 154 -769 328 -95 44 -198 107 -190
114 3 4 20 3 37 0 18 -4 74 -7 125 -7 50 1 92 -3 92 -8 0 -4 6 -4 14 0 8 4 81
5 163 2 159 -7 407 -15 783 -25 129 -3 264 -7 300 -9 36 -2 146 -6 245 -10
176 -5 394 -13 565 -19 112 -4 139 -12 146 -43 4 -14 2 -28 -4 -32 -7 -4 -8
-12 -2 -20 4 -8 4 -25 -1 -38 -13 -34 -11 -103 2 -103 8 0 8 -4 1 -12 -12 -15
-11 -68 2 -68 5 0 2 -8 -7 -17 -13 -15 -16 -46 -15 -180 0 -119 4 -165 13
-173 22 -18 24 21 25 376 l1 339 -23 2 c-36 3 -899 32 -1313 43 -203 6 -563
17 -799 25 l-428 16 -147 88 c-80 48 -249 148 -376 221 -126 73 -246 144 -265
159 -79 59 -152 101 -176 101 -21 0 -11 -9 50 -51z"/>
<path d="M510 3234 c-6 -14 -10 -27 -10 -29 0 -1 16 -6 35 -9 19 -4 55 -22 80
-41 25 -19 49 -35 54 -35 19 0 124 44 113 48 -6 2 -20 -2 -31 -8 -18 -9 -29
-5 -74 29 -54 41 -114 71 -142 71 -8 0 -20 -12 -25 -26z"/>
<path d="M980 3169 c-29 -16 -55 -31 -58 -33 -2 -3 18 -33 44 -67 81 -102 88
-109 62 -60 -31 59 -41 76 -58 96 -13 15 -11 20 13 41 15 12 35 27 44 33 10 5
15 12 13 15 -3 3 -30 -8 -60 -25z"/>
<path d="M1100 3136 c0 -29 5 -36 31 -45 41 -14 258 -143 298 -177 31 -26 31
-27 14 -47 -17 -19 -17 -20 2 -9 39 21 121 101 104 102 -9 0 -19 -7 -23 -15
-4 -13 -17 -8 -63 24 -87 58 -335 201 -350 201 -8 0 -13 -13 -13 -34z"/>
<path d="M480 3105 c0 -30 3 -35 23 -35 12 1 36 7 52 14 l30 13 -42 21 c-56
29 -63 28 -63 -13z"/>
<path d="M1089 3004 c-1 -13 -2 -28 -3 -33 -1 -5 40 -30 91 -56 50 -26 110
-63 132 -82 42 -36 66 -38 91 -8 10 12 8 19 -11 34 -34 28 -217 136 -261 155
-38 15 -38 15 -39 -10z"/>
<path d="M1060 2862 c0 -14 -6 -18 -27 -16 -16 2 -72 5 -125 7 l-98 4 0 -121
c0 -67 5 -128 10 -136 5 -8 10 -10 10 -5 4 107 11 186 19 207 8 22 15 25 50
24 23 0 41 -4 41 -8 0 -5 19 -8 43 -9 32 0 37 -2 22 -9 -13 -6 -15 -9 -5 -9
13 -1 13 -2 0 -11 -10 -6 -11 -10 -2 -10 6 0 12 -6 12 -14 0 -8 7 -16 15 -20
10 -4 13 -14 9 -34 -4 -18 -1 -32 6 -37 14 -9 140 43 140 57 0 6 -11 3 -25 -6
-23 -15 -27 -15 -72 6 -26 13 -49 23 -51 24 -2 1 2 20 7 42 l11 40 75 -41 c45
-24 74 -46 71 -53 -4 -9 3 -10 26 -3 33 9 100 51 93 58 -3 2 -11 -1 -19 -8
-11 -10 -26 -5 -71 24 -62 40 -133 74 -152 75 -7 0 -13 -8 -13 -18z"/>
<path d="M1590 2846 c0 -24 -1 -24 -80 -19 -71 5 -83 4 -103 -14 -12 -11 -91
-67 -176 -124 -85 -57 -149 -105 -143 -107 14 -4 92 45 92 58 0 6 21 10 46 10
l47 0 -7 -772 c-4 -425 -9 -786 -13 -802 l-5 -29 27 21 c15 12 36 22 46 22 10
0 20 4 23 9 11 18 48 -2 77 -42 28 -39 29 -39 23 -11 -5 28 -4 29 28 28 18 -1
53 2 78 5 40 7 35 8 -52 15 -62 5 -102 13 -109 22 -13 16 -55 19 -64 4 -3 -6
-14 -10 -24 -10 -16 0 -19 11 -20 97 -1 53 -4 100 -7 105 -3 4 88 9 203 9 156
1 193 4 148 10 -33 4 -74 6 -92 4 -18 -3 -34 -1 -37 4 -3 5 -21 6 -38 2 -30
-5 -69 -6 -139 -2 l-25 1 -2 108 c-1 59 1 119 4 135 l6 27 98 -4 c58 -2 100 0
102 6 2 6 13 6 28 0 14 -5 36 -6 50 -2 50 12 -9 20 -156 20 l-144 0 0 80 0 80
283 -4 c277 -4 263 -1 -98 18 -183 10 -166 -3 -164 126 1 71 5 110 13 113 26
9 148 8 160 -2 10 -8 17 -7 25 3 9 11 19 13 37 5 35 -13 44 -11 44 6 0 13 -23
15 -151 15 l-151 0 6 33 c3 17 6 109 7 202 1 94 5 177 10 186 6 12 19 14 62 9
57 -6 85 -24 81 -53 -1 -9 2 -17 7 -17 5 0 9 23 9 50 l0 50 -90 0 -90 0 0 61
0 61 53 -6 c28 -3 92 -6 142 -7 l90 -2 7 39 c4 21 7 58 7 81 1 38 14 65 23 45
1 -4 66 -45 144 -90 78 -45 149 -91 159 -102 17 -19 19 -19 37 -3 13 12 33 16
73 14 59 -2 72 12 38 40 -20 18 -17 18 -47 -10 -14 -14 -26 -20 -26 -14 0 11
-30 31 -175 118 -135 81 -197 115 -206 115 -5 0 -9 -11 -9 -24z m-60 -62 c13
-3 18 -43 11 -100 -1 -15 -92 -24 -109 -10 -10 7 -16 6 -21 -3 -6 -9 -14 -10
-27 -4 -11 5 -36 8 -56 6 -22 -2 -38 1 -38 7 0 5 7 10 16 10 8 0 12 5 9 10 -3
6 1 10 10 10 9 0 13 5 10 10 -3 6 1 10 10 10 9 0 23 7 31 15 9 8 12 15 7 15
-4 0 8 8 27 19 32 17 70 19 120 5z"/>
<path d="M0 2790 c0 -5 14 -10 31 -10 17 0 28 4 24 10 -3 6 -17 10 -31 10 -13
0 -24 -4 -24 -10z"/>
<path d="M94 2789 c-14 -6 -10 -8 17 -8 19 -1 40 -6 47 -13 9 -9 12 -8 12 5 0
9 -3 17 -7 18 -5 0 -17 2 -29 3 -11 1 -29 -1 -40 -5z"/>
<path d="M202 2788 c-15 -15 -16 -28 -2 -28 6 0 10 7 10 15 0 8 5 15 10 15 7
0 8 -18 4 -50 -5 -34 -3 -50 5 -50 7 0 11 21 11 55 0 56 -12 69 -38 43z"/>
<path d="M274 2765 c-2 -5 -2 -75 -1 -155 l2 -145 33 -3 c17 -2 32 -7 32 -13
0 -5 -15 -10 -32 -10 -32 -1 -32 -2 7 -10 53 -10 295 -11 295 -1 0 5 -22 7
-50 4 -41 -3 -50 -1 -50 12 0 11 9 16 30 16 25 0 30 4 30 24 0 16 14 36 39 58
35 30 38 35 26 52 -13 17 -15 16 -29 -18 -26 -63 -36 -43 -36 74 0 80 -4 112
-12 115 -29 9 -281 10 -284 0z m199 -35 l57 0 1 -97 c0 -66 3 -92 9 -78 7 15
9 8 8 -26 l-2 -46 -53 3 c-29 2 -53 -1 -53 -7 0 -5 -12 -9 -27 -9 -22 0 -25 2
-13 10 12 8 11 10 -7 10 -13 0 -23 5 -23 10 0 6 12 10 26 10 16 0 23 4 18 11
-4 7 -8 37 -9 69 -1 31 -8 66 -14 78 -11 20 -14 21 -27 7 -9 -8 -20 -15 -26
-15 -6 0 -3 -9 7 -20 10 -11 22 -17 26 -14 11 6 12 2 14 -58 1 -27 -2 -48 -7
-48 -4 0 -8 11 -8 24 0 25 -15 43 -23 29 -2 -5 -7 -20 -11 -35 -5 -21 -3 -28
9 -28 8 0 15 -4 15 -10 0 -11 -11 -13 -34 -4 -14 5 -16 24 -15 126 l1 121 52
-7 c28 -3 77 -6 109 -6z m27 -286 c0 -12 -6 -15 -22 -10 -13 3 -47 6 -75 6
-29 0 -53 5 -53 10 0 6 32 10 75 10 62 0 75 -3 75 -16z"/>
<path d="M468 2678 c-3 -7 -4 -23 -3 -35 1 -13 -3 -23 -9 -23 -6 0 -5 -4 3 -9
7 -5 10 -14 7 -20 -4 -6 -1 -11 8 -11 17 0 41 -38 31 -48 -4 -4 -13 2 -21 12
-14 19 -14 19 -14 -1 0 -15 -6 -20 -17 -18 -12 1 -17 9 -15 21 3 14 1 16 -7 8
-28 -27 16 -60 63 -48 30 7 36 43 11 64 -20 16 -19 49 2 72 15 17 15 18 0 18
-10 0 -17 7 -17 15 0 18 -16 20 -22 3z"/>
<path d="M585 2769 c4 -5 18 -15 32 -20 24 -9 25 -11 9 -28 -18 -20 -21 -56
-6 -66 6 -3 10 1 10 9 0 9 5 16 11 16 5 0 9 8 8 18 -5 49 1 62 26 62 14 0 25
5 25 10 0 6 -27 10 -61 10 -40 0 -58 -4 -54 -11z"/>
<path d="M161 2729 c-1 -9 -15 -20 -33 -26 l-33 -10 47 -4 c38 -3 45 -2 38 11
-4 8 -10 22 -13 30 -5 13 -6 13 -6 -1z"/>
<path d="M710 2673 c-1 -16 -7 -46 -15 -68 -9 -25 -11 -43 -5 -49 7 -7 10 -3
10 9 0 14 3 16 11 8 8 -8 6 -19 -7 -39 -14 -20 -15 -29 -6 -32 7 -2 10 -8 6
-13 -3 -5 0 -9 5 -9 6 0 11 -7 11 -15 0 -18 -16 -20 -23 -2 -3 6 -6 -3 -6 -20
l-1 -33 60 0 c54 0 60 2 60 21 0 19 -1 19 -16 5 -16 -16 -36 -21 -47 -10 -7 7
29 75 48 90 9 7 12 23 8 52 l-6 41 -21 -41 c-31 -61 -46 -60 -48 4 -1 29 -2
70 -1 91 1 20 -2 37 -8 37 -5 0 -9 -12 -9 -27z m62 -163 c-17 -31 -32 -39 -32
-18 0 13 29 48 41 48 4 0 0 -13 -9 -30z"/>
<path d="M1594 2665 c0 -32 4 -36 57 -65 32 -17 81 -46 109 -65 l52 -35 29 21
c16 11 29 22 29 24 0 11 -249 155 -267 155 -4 0 -8 -16 -9 -35z"/>
<path d="M70 2651 c0 -20 -4 -23 -30 -19 -39 6 -46 -6 -20 -32 12 -12 18 -26
13 -33 -12 -20 -10 -47 4 -47 11 0 11 -4 1 -21 -11 -17 -11 -23 0 -26 16 -6 5
-23 -14 -23 -8 0 -12 5 -9 10 3 6 1 10 -4 10 -6 0 -11 -9 -11 -20 0 -19 6 -20
70 -19 l70 2 0 30 c0 26 -13 31 -16 6 -3 -23 -7 -22 -14 6 l-8 30 -1 -27 c0
-16 -6 -28 -12 -28 -7 0 -10 35 -8 105 1 58 0 108 -4 112 -4 3 -7 -4 -7 -16z"/>
<path d="M1000 2668 c0 -2 -3 -304 -6 -673 -2 -369 -7 -697 -9 -730 -7 -93
-18 -881 -13 -875 6 6 14 188 24 525 10 362 20 1755 12 1755 -5 0 -8 -1 -8 -2z"/>
<path d="M2355 2625 c-36 -10 -20 -12 145 -18 215 -8 415 -15 695 -22 110 -3
265 -7 345 -10 231 -8 545 -15 674 -15 l118 0 -3 -299 c-2 -165 -1 -303 4
-307 4 -4 8 -1 8 7 1 8 2 19 4 24 1 6 3 85 3 178 2 151 4 167 20 168 15 0 15
1 -2 8 -17 6 -18 18 -17 108 2 97 1 103 -21 117 -29 19 -268 32 -268 15 0 -6
-4 -8 -9 -4 -15 9 -196 15 -891 30 -151 4 -278 9 -282 11 -4 2 -109 7 -235 10
-125 3 -232 6 -238 8 -5 2 -28 -2 -50 -9z"/>
<path d="M1542 2593 c-8 -14 -9 -24 -2 -28 12 -7 24 18 18 37 -3 8 -9 5 -16
-9z"/>
<path d="M2065 2559 c-4 -17 -5 -32 -3 -34 2 -2 69 -36 148 -75 80 -40 146
-73 148 -75 2 -2 -9 -15 -24 -30 l-28 -28 -123 62 c-68 33 -125 61 -128 61 -3
0 -5 -17 -5 -37 l0 -38 107 -50 c58 -27 109 -51 113 -53 4 -2 34 29 66 67 33
39 61 65 63 58 4 -13 21 -27 34 -27 5 0 7 6 4 13 -2 6 0 20 4 29 7 13 4 18
-14 24 -12 3 -96 42 -186 85 -90 44 -165 79 -167 79 -1 0 -5 -14 -9 -31z"/>
<path d="M1567 2518 c-3 -20 0 -36 6 -41 7 -4 37 -22 68 -41 l56 -33 27 19
c14 11 26 23 26 27 0 7 -160 101 -172 101 -3 0 -8 -15 -11 -32z"/>
<path d="M1471 2500 c1 -16 3 -19 6 -8 3 14 8 15 22 6 19 -12 51 -5 51 11 0 5
-18 11 -40 13 -37 3 -40 2 -39 -22z"/>
<path d="M1869 2514 c-24 -13 -23 -13 11 -14 19 0 65 -3 103 -7 47 -4 67 -3
67 6 0 6 -17 11 -42 11 -24 0 -59 4 -79 9 -25 6 -43 4 -60 -5z"/>
<path d="M4082 2492 c-2 -30 -4 -33 -24 -26 -19 6 -67 7 -107 2 -3 0 -9 1 -13
2 -9 2 -75 2 -85 0 -16 -3 -291 1 -408 6 -66 3 -208 6 -316 8 -108 2 -201 6
-207 10 -6 3 -13 2 -17 -4 -4 -6 -11 -8 -16 -5 -17 11 -49 14 -54 5 -3 -5 -19
-5 -36 0 -35 10 -138 1 -118 -10 8 -4 169 -11 359 -15 190 -4 379 -8 420 -10
41 -2 172 -3 290 -3 256 -1 280 -1 300 -7 27 -8 42 10 37 46 l-4 34 -1 -33z"/>
<path d="M590 2480 c-9 -17 -7 -20 9 -20 23 0 35 26 16 34 -8 3 -19 -3 -25
-14z"/>
<path d="M226 2464 c-8 -22 -7 -34 3 -34 5 0 9 11 9 25 0 29 -3 31 -12 9z"/>
<path d="M645 2448 c9 -29 21 -42 28 -31 7 12 -11 53 -23 53 -7 0 -9 -9 -5
-22z"/>
<path d="M4102 2365 c0 -55 3 -78 7 -60 4 17 4 57 0 90 -6 56 -6 54 -7 -30z"/>
<path d="M1512 2431 c-20 -12 -10 -55 16 -66 12 -5 22 -15 22 -22 0 -16 3 -16
35 -1 33 15 32 21 -11 41 -28 14 -34 21 -29 37 7 21 -9 27 -33 11z"/>
<path d="M3426 2407 c-11 -8 -17 -23 -14 -38 4 -31 46 -39 65 -13 17 23 16 29
-3 48 -19 19 -25 20 -48 3z"/>
<path d="M4056 2404 c-3 -9 -6 -79 -5 -157 0 -98 3 -133 9 -113 5 16 9 70 9
120 -1 50 2 108 6 129 7 37 -7 53 -19 21z"/>
<path d="M69 2387 c12 -15 9 -17 -29 -17 -24 0 -41 -2 -39 -4 5 -5 276 -15
569 -20 129 -3 219 -1 200 3 -32 8 -33 8 -7 10 15 0 27 5 27 10 0 8 -101 13
-535 27 -185 7 -199 6 -186 -9z"/>
<path d="M3312 2388 c-18 -18 -14 -24 15 -23 14 0 28 -6 31 -14 2 -8 0 -11 -6
-7 -5 3 -12 -1 -16 -9 -3 -8 -10 -15 -16 -15 -6 0 -8 5 -4 12 4 7 3 8 -5 4
-15 -10 -4 -26 18 -26 20 0 47 43 37 59 -13 21 -42 31 -54 19z"/>
<path d="M3631 2384 c-12 -9 -21 -23 -21 -32 1 -16 1 -16 11 1 12 21 45 22 53
2 3 -10 -3 -17 -19 -21 -26 -7 -34 -24 -12 -24 15 0 47 31 47 46 0 5 -9 17
-19 26 -17 14 -22 15 -40 2z"/>
<path d="M3732 2388 c-28 -28 -1 -75 37 -63 11 3 23 15 26 26 12 38 -35 65
-63 37z"/>
<path d="M2510 2358 l0 -34 138 -49 c147 -52 165 -61 143 -74 -7 -5 -12 -14
-9 -21 2 -7 18 9 36 35 18 27 31 49 29 51 -1 1 -72 28 -157 59 -85 32 -161 60
-167 62 -9 4 -13 -6 -13 -29z"/>
<path d="M3543 2376 c-13 -15 -6 -57 11 -68 12 -8 25 36 18 65 -5 20 -13 21
-29 3z"/>
<path d="M1638 2341 c-30 -17 -36 -31 -15 -31 19 0 50 25 46 37 -2 5 -16 3
-31 -6z"/>
<path d="M1751 2353 c0 -6 -7 -18 -15 -26 -20 -19 -10 -66 13 -60 22 6 46 63
26 63 -8 0 -16 8 -18 18 -3 9 -5 12 -6 5z"/>
<path d="M810 2260 c0 -46 2 -81 5 -78 8 8 9 147 2 155 -4 3 -7 -31 -7 -77z"/>
<path d="M1493 2305 c0 -22 2 -30 4 -17 2 12 2 30 0 40 -3 9 -5 -1 -4 -23z"/>
<path d="M3184 2328 c-5 -8 -14 -17 -21 -19 -16 -6 17 -44 45 -53 17 -6 21 -4
16 8 -4 9 -1 23 6 31 10 12 10 15 -3 15 -9 0 -20 7 -25 16 -8 15 -11 15 -18 2z"/>
<path d="M1875 2322 c-11 -7 -15 -70 -5 -74 15 -5 50 12 50 25 0 22 -33 58
-45 49z m28 -28 c9 -9 -4 -35 -14 -28 -5 3 -9 12 -9 20 0 14 12 19 23 8z"/>
<path d="M2009 2325 c-1 -5 -2 -83 -3 -171 l-1 -161 89 -7 c49 -3 136 -6 193
-6 l103 0 0 35 c0 19 -3 35 -7 35 -5 0 -6 45 -5 100 l4 100 -50 0 c-28 0 -57
-3 -66 -6 -32 -12 -15 -24 34 -24 l51 0 -3 -107 c-3 -101 -4 -108 -23 -105
-11 1 -81 3 -155 5 l-135 2 3 115 c2 81 -2 128 -12 160 -8 25 -16 41 -17 35z"/>
<path d="M2052 2243 c3 -35 8 -40 63 -68 l60 -31 20 25 c52 65 52 65 29 51
-17 -11 -28 -9 -73 14 -29 15 -63 31 -77 36 -24 10 -25 9 -22 -27z"/>
<path d="M2888 2272 c-19 -4 -25 -22 -8 -22 6 0 10 -9 10 -20 0 -14 5 -18 16
-13 14 5 15 1 10 -24 l-7 -30 143 -53 c161 -59 173 -66 157 -86 -6 -7 -9 -18
-7 -24 2 -6 19 14 38 44 22 34 42 55 54 56 15 0 16 3 6 15 -7 8 -16 15 -21 15
-5 0 -9 -7 -9 -15 0 -8 -2 -15 -5 -15 -4 0 -84 30 -180 67 -144 55 -174 70
-177 87 -2 14 -9 20 -20 18z"/>
<path d="M4099 2223 c0 -27 -3 -86 -5 -133 -4 -60 -2 -82 6 -74 14 14 25 254
11 254 -6 0 -11 -21 -12 -47z"/>
<path d="M40 2242 c0 -24 -24 -30 -34 -9 -3 6 -4 -1 0 -18 3 -16 5 -40 5 -52
-1 -13 4 -23 10 -23 7 0 9 12 7 30 -3 17 0 34 5 37 7 4 8 -14 3 -50 -3 -33 -2
-57 3 -57 12 0 20 141 9 155 -4 5 -8 -1 -8 -13z"/>
<path d="M1493 2220 c0 -25 2 -35 4 -22 2 12 2 32 0 45 -2 12 -4 2 -4 -23z"/>
<path d="M2510 2217 l0 -35 110 -37 c88 -29 128 -37 205 -40 77 -3 95 -1 95
11 0 13 -39 18 -133 17 -10 0 -16 6 -13 13 3 8 -33 25 -112 52 -64 22 -125 43
-134 47 -15 6 -18 2 -18 -28z"/>
<path d="M284 2160 l-11 -50 75 0 c54 0 73 3 69 13 -2 6 -15 12 -28 13 -14 0
-30 3 -36 7 -6 4 -19 4 -30 0 -17 -7 -17 -6 0 12 11 11 38 20 68 23 49 5 49 4
49 -25 0 -16 -3 -33 -7 -36 -3 -4 -8 -17 -9 -29 -2 -13 -6 -32 -8 -43 -2 -11
-5 -26 -5 -33 -1 -7 -5 -11 -10 -7 -5 3 -12 1 -16 -5 -3 -5 -2 -10 4 -10 5 0
16 -3 25 -6 11 -4 16 -1 16 10 0 29 39 86 59 86 6 0 15 -8 20 -18 7 -14 18
-18 40 -14 25 3 31 1 32 -14 0 -12 3 -14 6 -6 4 10 8 10 19 1 17 -14 36 -8 25
9 -7 12 -39 23 -75 25 -16 1 -15 4 6 22 21 18 23 23 10 35 -13 11 -11 15 9 31
17 13 27 15 37 7 9 -8 11 -7 6 5 -4 13 3 15 43 15 41 0 45 -1 31 -12 -10 -7
-15 -16 -11 -19 3 -4 12 -2 20 4 9 9 13 8 13 0 0 -6 4 -11 10 -11 5 0 7 7 3
16 -5 14 -2 14 23 -2 32 -21 46 -36 38 -43 -3 -3 -10 1 -15 9 -7 11 -12 11
-15 3 -4 -8 -14 -9 -36 -2 -17 4 -35 6 -39 3 -5 -3 -9 -1 -9 5 0 7 -8 7 -24 0
-17 -8 -30 -8 -47 2 -21 11 -23 11 -11 -3 8 -10 31 -16 62 -17 72 -2 80 -3 80
-13 0 -4 -20 -8 -44 -8 -25 0 -47 -4 -50 -8 -3 -5 28 -7 69 -4 l75 5 0 -47 c0
-44 -1 -46 -30 -46 -16 0 -30 5 -30 10 0 6 7 10 15 10 8 0 15 5 15 10 0 12 -3
12 -24 4 -9 -3 -16 -13 -16 -21 0 -8 -7 -13 -17 -11 -11 2 -17 11 -15 21 2 11
-4 17 -18 17 -18 0 -19 -3 -10 -20 7 -14 7 -20 0 -20 -5 0 -10 4 -10 9 0 13
-43 8 -48 -6 -3 -10 22 -13 102 -13 l106 0 -1 85 -1 84 -42 21 c-48 23 -133
27 -185 9 -27 -9 -32 -16 -29 -38 2 -14 7 -29 11 -32 5 -3 -11 -5 -35 -4 -30
2 -42 7 -40 16 1 9 -3 7 -12 -4 -13 -17 -14 -14 -9 24 8 57 -10 69 -102 69
l-71 0 -10 -50z"/>
<path d="M120 2170 c0 -39 -16 -70 -35 -70 -11 0 -14 -9 -10 -40 5 -40 5 -40
-29 -40 -30 0 -35 4 -39 28 -3 16 -4 11 -3 -13 l1 -40 84 -3 83 -3 -7 28 c-3
15 -12 31 -18 35 -6 4 -10 33 -9 72 1 35 -3 68 -8 71 -6 4 -10 -7 -10 -25z m0
-115 c0 -43 -11 -58 -25 -34 -9 14 4 79 15 79 6 0 10 -20 10 -45z"/>
<path d="M2250 2173 c0 -14 19 -38 25 -32 8 8 -5 39 -16 39 -5 0 -9 -3 -9 -7z"/>
<path d="M518 2153 c-10 -2 -18 -8 -18 -13 0 -15 26 -29 39 -21 9 6 10 10 2
15 -6 4 -9 12 -6 17 4 5 5 8 3 8 -2 -1 -11 -3 -20 -6z"/>
<path d="M7 2124 c-4 -4 -7 -17 -7 -28 1 -19 1 -20 11 -3 11 19 8 43 -4 31z"/>
<path d="M2060 2091 c0 -45 10 -61 37 -61 14 0 22 4 18 10 -4 6 -11 7 -17 4
-5 -4 -3 5 7 19 16 25 16 26 -14 42 l-31 16 0 -30z"/>
<path d="M144 2099 c-3 -6 0 -9 7 -8 8 1 26 -1 42 -5 26 -8 84 0 75 10 -11 10
-117 13 -124 3z"/>
<path d="M2149 2108 c-1 -2 -3 -15 -5 -31 -2 -19 1 -25 9 -20 7 4 17 8 22 8
18 0 11 40 -7 43 -10 2 -19 2 -19 0z"/>
<path d="M2223 2090 c2 -11 7 -23 12 -27 4 -5 5 -3 2 4 -4 6 -2 13 5 15 6 2 8
10 4 16 -11 19 -26 14 -23 -8z"/>
<path d="M2274 2083 c0 -18 5 -23 21 -21 11 2 21 12 23 24 2 15 -3 20 -21 20
-17 0 -23 -6 -23 -23z"/>
<path d="M2527 2068 c3 -18 6 -33 7 -34 1 0 28 -10 61 -22 l60 -22 23 26 c13
14 22 27 21 28 -6 5 -163 56 -171 56 -4 0 -5 -15 -1 -32z"/>
<path d="M4050 2070 c0 -16 2 -30 4 -30 2 0 6 14 8 30 3 17 1 30 -4 30 -4 0
-8 -13 -8 -30z"/>
<path d="M2764 2064 c0 -13 6 -24 11 -24 6 0 3 -4 -5 -10 -12 -8 -12 -10 3
-16 23 -9 26 -5 20 33 -6 38 -31 53 -29 17z"/>
<path d="M252 2072 c-19 -6 -14 -24 6 -21 9 1 25 -1 35 -6 10 -4 20 -5 23 -2
8 7 -50 34 -64 29z"/>
<path d="M2920 2046 l0 -33 123 -47 122 -46 17 23 c21 26 22 36 6 41 -7 3 -69
25 -137 50 -68 25 -125 46 -127 46 -2 0 -4 -15 -4 -34z"/>
<path d="M1590 2059 c0 -11 21 -14 95 -13 52 0 98 3 102 7 3 4 -25 7 -64 7
-39 0 -85 3 -102 6 -23 5 -31 3 -31 -7z"/>
<path d="M184 2049 c-5 -9 -2 -10 9 -6 9 3 16 3 16 -1 -4 -24 3 -33 21 -27 14
5 20 2 20 -9 0 -12 10 -16 35 -16 29 0 35 4 35 21 0 17 -4 20 -23 15 -28 -7
-77 5 -76 19 0 15 -28 18 -37 4z"/>
<path d="M2717 2053 c-4 -3 -7 -15 -7 -25 0 -10 -5 -18 -12 -18 -6 0 -9 -2 -6
-5 8 -9 43 9 46 23 1 8 -2 11 -8 7 -5 -3 -10 -2 -10 4 0 5 6 12 13 14 6 3 7 6
1 6 -6 1 -14 -2 -17 -6z"/>
<path d="M3370 2051 c0 -30 21 -61 42 -61 31 0 276 -78 283 -90 12 -20 30 -9
52 31 12 23 17 36 10 30 -10 -7 -58 4 -178 44 -162 54 -209 64 -209 46z"/>
<path d="M2877 2023 c-12 -11 -8 -23 8 -23 8 0 15 7 15 15 0 16 -12 20 -23 8z"/>
<path d="M456 2004 c-3 -8 1 -17 9 -20 24 -10 32 0 14 18 -15 14 -18 14 -23 2z"/>
<path d="M543 2005 c-17 -19 -16 -25 2 -25 8 0 15 9 15 20 0 23 -1 24 -17 5z"/>
<path d="M4460 1963 l-33 -30 27 -5 c23 -5 29 -1 37 20 16 41 5 47 -31 15z"/>
<path d="M2730 1954 c-14 -35 -9 -38 13 -9 10 15 13 26 7 30 -6 3 -15 -6 -20
-21z"/>
<path d="M2680 1961 c0 -19 12 -41 20 -36 10 6 1 45 -11 45 -5 0 -9 -4 -9 -9z"/>
<path d="M2775 1960 c-3 -5 1 -20 9 -32 16 -22 16 -22 16 10 0 31 -12 42 -25
22z"/>
<path d="M115 1950 c168 -11 701 -19 684 -10 -8 5 -192 10 -409 13 -251 4
-351 3 -275 -3z"/>
<path d="M2610 1948 c0 -5 -15 -6 -33 -3 -33 6 -34 6 -29 -25 4 -30 5 -30 24
-13 20 18 20 17 17 -7 l-4 -25 175 -8 c151 -6 185 -11 248 -33 l73 -26 -27
-25 c-22 -20 -33 -23 -60 -18 l-33 6 14 -28 c8 -15 15 -34 15 -40 0 -24 15
-12 60 48 25 34 53 71 62 84 l18 23 -100 37 c-54 20 -101 42 -104 49 -2 6 -5
-4 -5 -21 -1 -32 -2 -33 -44 -33 -24 0 -85 3 -136 7 -91 6 -91 6 -89 32 2 20
-2 26 -19 27 -13 1 -23 -3 -23 -8z m30 -23 c0 -14 -4 -25 -10 -25 -11 0 -14
33 -3 43 11 11 13 8 13 -18z"/>
<path d="M3404 1886 c8 -26 17 -36 31 -36 11 0 65 -16 120 -34 l100 -34 17 21
c16 21 16 23 0 35 -19 14 -186 67 -243 77 l-37 7 12 -36z"/>
<path d="M3885 1902 c4 -9 10 -25 12 -34 4 -13 16 -18 42 -18 45 0 211 -27
244 -39 22 -9 25 -7 30 15 2 13 -1 28 -8 34 -6 5 -65 18 -131 29 -204 33 -197
32 -189 13z"/>
<path d="M4270 1807 l0 -34 115 -19 115 -20 0 33 c0 18 -3 33 -7 33 -14 0
-187 31 -205 36 -15 4 -18 -1 -18 -29z"/>
<path d="M2248 1773 c28 -2 76 -2 105 0 28 2 5 3 -53 3 -58 0 -81 -1 -52 -3z"/>
<path d="M2548 1773 c17 -2 47 -2 65 0 17 2 3 4 -33 4 -36 0 -50 -2 -32 -4z"/>
<path d="M2703 1773 c15 -2 37 -2 50 0 12 2 0 4 -28 4 -27 0 -38 -2 -22 -4z"/>
<path d="M2798 1773 c12 -2 30 -2 40 0 9 3 -1 5 -23 4 -22 0 -30 -2 -17 -4z"/>
<path d="M3125 1770 c-13 -5 22 -9 94 -9 63 -1 112 1 109 4 -10 10 -182 14
-203 5z"/>
<path d="M3954 1751 c14 -26 21 -29 107 -40 51 -7 100 -16 109 -21 15 -8 19
-5 25 17 3 14 2 30 -3 35 -10 10 -170 38 -220 38 l-33 0 15 -29z"/>
<path d="M3427 1748 c8 -31 22 -48 42 -48 22 0 83 -18 100 -29 12 -8 12 -12 2
-24 -7 -9 -8 -18 -3 -21 6 -3 12 0 15 7 3 6 17 38 31 70 14 31 21 57 16 57 -6
0 -10 -7 -10 -15 0 -19 4 -19 -82 5 -98 27 -118 26 -111 -2z"/>
<path d="M813 1725 c0 -22 2 -30 4 -17 2 12 2 30 0 40 -3 9 -5 -1 -4 -23z"/>
<path d="M3691 1756 c11 -9 129 -15 129 -6 0 6 -30 10 -67 10 -36 0 -64 -2
-62 -4z"/>
<path d="M3330 1688 c0 -38 3 -49 10 -38 13 20 13 90 0 90 -5 0 -10 -24 -10
-52z"/>
<path d="M398 1703 c27 -5 28 -12 5 -29 -16 -12 -16 -13 -2 -14 9 0 19 7 23
15 7 18 46 20 46 3 1 -8 6 -6 14 5 14 18 46 24 46 7 0 -5 -7 -13 -17 -18 -14
-9 -14 -11 6 -21 12 -7 35 -11 51 -9 28 3 29 4 17 28 -15 30 -71 49 -96 33
-11 -7 -23 -8 -32 -2 -8 5 -30 8 -49 7 -23 0 -27 -2 -12 -5z"/>
<path d="M3858 1659 c2 -21 8 -39 13 -39 14 0 11 56 -4 68 -10 8 -12 2 -9 -29z"/>
<path d="M4280 1677 c0 -14 5 -29 12 -33 7 -4 56 -15 110 -24 l98 -17 0 32 c0
31 0 31 -72 43 -40 6 -90 15 -110 18 -36 6 -38 5 -38 -19z"/>
<path d="M2 1612 l2 -77 3 68 4 67 36 0 c44 0 41 5 -9 13 l-38 6 2 -77z"/>
<path d="M337 1679 c-9 -5 -21 -8 -26 -4 -5 3 -12 1 -16 -5 -4 -6 6 -10 23
-10 17 0 32 6 36 15 6 18 6 18 -17 4z"/>
<path d="M155 1670 c3 -5 22 -10 41 -10 21 0 33 4 29 10 -3 6 -22 10 -41 10
-21 0 -33 -4 -29 -10z"/>
<path d="M760 1656 c0 -22 3 -27 11 -19 8 8 8 16 0 30 -9 16 -10 14 -11 -11z"/>
<path d="M100 1642 c0 -30 24 -71 35 -60 4 3 2 16 -5 28 -6 11 -8 30 -5 40 4
14 2 20 -9 20 -11 0 -16 -9 -16 -28z"/>
<path d="M244 1628 c3 -13 6 -30 6 -38 0 -9 8 -16 18 -17 14 -1 18 7 19 38 1
36 -1 39 -24 39 -21 0 -24 -3 -19 -22z"/>
<path d="M811 1601 c-1 -30 1 -52 3 -50 9 9 13 65 5 84 -5 14 -8 3 -8 -34z"/>
<path d="M4017 1615 c14 -30 22 -35 52 -35 20 0 53 -4 74 -9 l38 -9 -3 31 c-3
35 -15 40 -115 50 l-63 7 17 -35z"/>
<path d="M510 1615 c0 -16 6 -25 15 -25 16 0 19 9 9 34 -9 25 -24 19 -24 -9z"/>
<path d="M671 1605 c1 -40 1 -40 11 -12 7 21 7 32 -1 40 -8 8 -11 0 -10 -28z"/>
<path d="M3470 1618 c0 -32 41 -78 70 -78 8 0 35 59 29 64 -13 9 -99 22 -99
14z"/>
<path d="M3048 1613 c34 -2 88 -2 120 0 31 2 3 3 -63 3 -66 0 -92 -1 -57 -3z"/>
<path d="M3263 1614 c11 -11 68 -14 62 -4 -3 6 -20 10 -37 10 -17 0 -29 -3
-25 -6z"/>
<path d="M4270 1601 c0 -11 5 -23 10 -26 6 -3 10 3 10 14 0 11 -4 23 -10 26
-5 3 -10 -3 -10 -14z"/>
<path d="M48 1587 c-4 -21 0 -25 44 -34 40 -8 48 -7 48 5 0 9 -7 13 -20 9 -16
-4 -20 0 -20 19 0 34 -46 35 -52 1z"/>
<path d="M215 1597 c-4 -10 -5 -21 -1 -24 10 -10 18 4 13 24 -4 17 -4 17 -12
0z"/>
<path d="M3646 1602 c-6 -10 40 -10 50 1 4 4 -4 7 -19 7 -14 0 -28 -4 -31 -8z"/>
<path d="M640 1585 c0 -8 5 -15 10 -15 6 0 10 7 10 15 0 8 -4 15 -10 15 -5 0
-10 -7 -10 -15z"/>
<path d="M696 1591 c-7 -10 22 -37 30 -28 9 8 -3 37 -15 37 -5 0 -12 -4 -15
-9z"/>
<path d="M520 1580 c-24 -8 -23 -8 8 -9 20 -1 31 3 27 9 -3 6 -7 10 -8 9 -1
-1 -13 -5 -27 -9z"/>
<path d="M3880 1560 c0 -5 -6 -10 -14 -10 -9 0 -15 -15 -18 -42 -5 -41 -3 -56
6 -47 13 12 44 109 36 109 -6 0 -10 -4 -10 -10z"/>
<path d="M4300 1565 c0 -1 5 -16 11 -33 10 -28 16 -32 59 -38 69 -9 77 -16 56
-49 -15 -23 -22 -26 -53 -20 -32 6 -34 5 -24 -13 8 -16 7 -21 -5 -26 -9 -3
-17 -6 -18 -6 -2 0 -6 23 -9 52 -4 28 -12 56 -18 62 -8 8 -9 -3 -3 -44 11 -66
11 -189 2 -535 -3 -152 -2 -245 3 -225 12 51 23 256 30 563 1 48 6 87 11 87 4
0 8 7 8 15 0 8 6 15 14 15 8 0 22 10 30 22 15 21 16 20 16 -35 0 -31 4 -57 10
-57 6 0 10 -5 10 -11 0 -5 -4 -8 -9 -5 -5 3 -12 -97 -15 -232 -4 -130 -8 -254
-10 -274 -2 -21 0 -38 4 -38 8 0 23 -64 24 -105 1 -28 -12 -35 -66 -35 -26 0
-50 -4 -53 -10 -3 -5 1 -10 10 -10 8 0 18 -7 22 -16 3 -9 15 -20 27 -25 19 -9
19 -9 -4 -5 -14 2 -36 8 -50 12 -20 5 -23 4 -13 -6 8 -9 9 -19 2 -32 -7 -14
-6 -18 5 -18 8 0 18 4 21 10 3 5 22 10 40 10 26 0 33 4 29 14 -7 19 13 56 31
56 7 0 15 6 18 13 4 10 7 9 18 -1 18 -17 39 -15 39 3 0 8 -4 15 -9 15 -5 0
-13 10 -17 23 -8 22 -6 343 2 381 7 35 17 501 11 496 -4 -4 -9 -69 -12 -145
-2 -77 -7 -183 -10 -235 -2 -52 -7 -171 -11 -265 -3 -93 -8 -172 -10 -174 -6
-7 -4 256 5 551 6 191 12 272 21 283 7 8 9 15 4 15 -5 0 -46 6 -91 14 -46 7
-83 12 -83 11z m67 -986 c-14 -8 -22 -8 -30 0 -8 8 -3 11 19 11 25 -1 27 -2
11 -11z"/>
<path d="M200 1550 c-28 -6 -22 -8 35 -9 48 0 65 2 55 9 -17 11 -38 11 -90 0z"/>
<path d="M360 1541 c0 -8 6 -11 16 -7 9 3 48 6 86 6 39 0 69 3 65 6 -3 4 -42
7 -86 8 -62 1 -81 -2 -81 -13z"/>
<path d="M640 1553 c-51 -9 -43 -23 13 -20 31 1 57 5 57 10 0 4 -4 7 -9 7 -5
0 -15 2 -23 4 -7 2 -24 1 -38 -1z"/>
<path d="M3976 1538 c-9 -13 -12 -26 -7 -32 5 -6 11 -27 13 -46 3 -24 5 -13 8
33 3 37 4 67 3 67 -1 0 -9 -10 -17 -22z"/>
<path d="M4030 1308 c0 -128 -3 -263 -5 -300 -2 -37 0 -70 5 -73 6 -4 10 23
10 67 0 40 3 178 7 306 4 159 2 232 -5 232 -7 0 -11 -77 -12 -232z"/>
<path d="M4074 1494 c8 -19 8 -365 1 -403 -2 -11 -5 -117 -6 -235 -1 -118 -5
-220 -8 -225 -10 -15 -63 -6 -73 13 -10 17 -53 22 -62 7 -3 -5 -21 -1 -41 8
-34 16 -44 34 -25 46 6 3 10 0 10 -8 0 -10 7 -13 20 -10 11 3 20 10 20 17 0 7
3 7 8 -1 5 -7 29 -16 55 -19 43 -6 47 -5 47 14 0 11 -4 32 -10 47 -7 17 -7 24
0 20 15 -10 11 38 -5 59 -8 11 -18 17 -21 13 -4 -4 -2 -13 4 -20 7 -8 8 -17 4
-21 -4 -4 -7 -24 -7 -44 0 -36 -1 -36 -35 -33 -19 1 -51 4 -70 5 l-35 3 -1 79
c0 43 3 81 7 84 4 3 1 11 -7 18 -12 11 -14 -1 -14 -78 0 -79 -2 -90 -17 -91
-12 -1 -9 -4 7 -8 l25 -7 -32 -16 c-18 -9 -33 -12 -33 -7 0 5 -4 9 -9 9 -5 0
-7 -9 -4 -20 3 -11 0 -20 -6 -20 -6 0 -11 5 -11 10 0 7 -6 7 -19 0 -11 -5 -42
-10 -69 -10 -32 0 -52 -5 -55 -13 -3 -7 -5 -67 -6 -132 -1 -66 -3 -120 -4
-122 -2 -1 -15 9 -30 22 -42 40 -43 29 -1 -22 42 -52 41 -43 30 -305 -3 -91
-2 -98 15 -98 16 0 18 6 14 35 -5 41 6 44 50 15 17 -11 41 -27 55 -36 l25 -16
-25 21 c-14 13 -44 35 -68 51 -24 15 -39 31 -33 34 6 4 7 16 2 28 -9 24 -3 68
10 68 4 0 15 -10 23 -22 13 -18 26 -21 88 -23 40 0 87 2 103 6 19 4 -6 7 -67
8 -85 1 -101 4 -119 22 -15 15 -18 24 -10 32 14 14 15 345 1 382 -8 20 -15 26
-30 22 -22 -6 -25 0 -10 23 8 13 14 13 42 1 44 -17 75 -24 124 -25 32 -1 40
-4 36 -16 -5 -13 -4 -13 10 0 9 8 15 19 15 25 -3 17 43 17 61 -1 15 -16 17
-16 20 -1 3 14 7 14 38 -4 19 -10 40 -19 47 -19 7 0 25 -7 42 -16 16 -8 46
-19 65 -24 l35 -8 -40 -2 c-35 -2 -37 -3 -15 -10 14 -4 21 -8 15 -9 -9 -1 41
-31 52 -31 3 0 3 6 0 14 -4 9 2 14 19 14 27 0 30 -8 12 -26 -9 -9 -2 -12 32
-12 24 0 40 3 36 8 -4 4 -12 8 -17 8 -30 4 -31 7 -4 14 28 6 26 8 -24 15 -50
7 -55 10 -69 46 -16 43 -42 52 -42 17 -1 -22 -1 -22 -15 -4 -12 16 -12 20 1
33 7 8 14 20 14 26 0 7 -7 3 -15 -7 -14 -19 -15 -19 -15 6 0 41 19 44 50 9 31
-33 46 -40 36 -16 -3 8 -3 15 0 15 2 0 9 -12 15 -27 8 -21 12 -24 19 -13 6 9
4 20 -3 29 -10 12 -9 13 3 6 12 -6 12 -5 3 5 -6 7 -25 13 -42 14 -29 1 -31 3
-31 42 l0 42 40 -12 c60 -18 65 -26 51 -92 -16 -83 -15 -88 24 -100 36 -11 36
-11 15 8 -23 21 -25 29 -9 45 7 7 7 13 1 17 -6 3 -6 22 1 51 9 38 8 48 -8 65
-10 11 -24 20 -32 20 -7 0 -13 5 -13 10 0 6 -7 10 -15 10 -8 0 -15 6 -15 13 0
9 -2 9 -9 -1 -4 -8 -11 -13 -15 -13 -18 3 -26 0 -39 -13 -12 -13 -14 31 -13
328 1 308 3 342 17 339 14 -4 57 43 47 52 -2 1 -23 6 -47 10 -40 7 -43 6 -37
-11z m-246 -823 c-1 -27 -3 -28 -24 -18 -30 13 -30 19 -1 33 12 7 23 12 24 13
1 0 1 -12 1 -28z m-187 -210 c1 -48 -2 -76 -9 -79 -13 -4 -25 53 -18 88 2 14
5 38 5 55 2 61 20 8 22 -64z"/>
<path d="M428 1493 c17 -2 47 -2 65 0 17 2 3 4 -33 4 -36 0 -50 -2 -32 -4z"/>
<path d="M553 1493 c15 -2 39 -2 55 0 15 2 2 4 -28 4 -30 0 -43 -2 -27 -4z"/>
<path d="M652 1494 c10 -9 158 -12 152 -2 -3 4 -39 8 -81 8 -42 0 -74 -3 -71
-6z"/>
<path d="M3210 1450 c0 -25 4 -39 10 -35 6 3 10 19 10 35 0 16 -4 32 -10 35
-6 4 -10 -10 -10 -35z"/>
<path d="M807 1454 c-3 -3 -6 -124 -7 -268 0 -143 -3 -296 -7 -339 -4 -56 -2
-85 8 -103 10 -20 11 -29 1 -44 -8 -14 -12 -77 -11 -207 2 -219 15 -181 25 72
8 175 6 895 -1 895 -1 0 -4 -3 -8 -6z"/>
<path d="M3101 1416 c10 -9 79 -14 74 -5 -4 5 -22 9 -42 9 -20 0 -34 -2 -32
-4z"/>
<path d="M3977 1336 c-4 -15 -6 -31 -2 -34 10 -10 16 6 13 35 l-3 28 -8 -29z"/>
<path d="M633 1343 c26 -2 67 -2 90 0 23 2 2 3 -48 3 -49 0 -68 -1 -42 -3z"/>
<path d="M2783 1333 c20 -2 54 -2 75 0 20 2 3 4 -38 4 -41 0 -58 -2 -37 -4z"/>
<path d="M3109 1329 c-10 -6 -7 -9 14 -9 29 0 35 5 14 13 -8 3 -20 1 -28 -4z"/>
<path d="M1708 1323 c12 -2 30 -2 40 0 9 3 -1 5 -23 4 -22 0 -30 -2 -17 -4z"/>
<path d="M3248 1323 c34 -2 88 -2 120 0 31 2 3 3 -63 3 -66 0 -92 -1 -57 -3z"/>
<path d="M3650 1319 c-83 -5 -83 -5 38 -7 67 -1 122 0 122 2 0 8 -78 11 -160
5z"/>
<path d="M865 1145 c0 -35 2 -42 11 -31 11 15 7 76 -5 76 -3 0 -6 -20 -6 -45z"/>
<path d="M2314 1115 c3 -9 6 -19 6 -22 0 -3 6 0 14 6 11 9 20 9 35 2 11 -6 26
-8 34 -5 8 3 18 0 22 -6 6 -9 10 -9 16 1 6 10 11 11 17 3 4 -6 16 -10 27 -7
11 2 52 3 90 2 97 -1 103 -1 163 7 28 3 52 3 53 -2 0 -5 3 -52 5 -104 2 -52 6
-101 9 -109 3 -7 0 -20 -6 -27 -9 -11 -8 -18 1 -29 7 -9 10 -18 7 -21 -9 -10
-38 42 -32 58 3 8 -1 21 -10 28 -16 13 -21 0 -5 -16 6 -6 6 -15 0 -24 -8 -13
-10 -12 -10 3 0 19 -15 23 -25 7 -3 -5 -2 -10 4 -10 6 0 8 -6 5 -13 -2 -7 9
-26 26 -42 16 -16 30 -23 30 -17 0 7 4 12 9 12 10 0 31 -77 31 -114 0 -53 22
-61 175 -61 77 -1 179 -3 227 -6 79 -5 93 -9 135 -39 l48 -33 -42 44 -42 44
-84 0 c-61 0 -83 3 -80 12 3 6 11 14 20 17 12 5 13 9 4 20 -9 11 -9 15 1 20 9
4 10 8 2 11 -7 4 -10 20 -7 43 4 31 1 39 -18 47 -27 12 -41 42 -15 32 17 -7
30 23 26 59 -4 31 -1 37 13 25 10 -8 14 -7 14 4 0 8 -4 12 -9 9 -5 -3 -6 5 -3
19 4 15 2 28 -6 32 -9 6 -11 2 -7 -13 8 -29 -9 -38 -32 -17 -17 15 -17 19 -4
32 8 8 12 19 9 23 -9 15 -50 -6 -52 -26 -2 -11 0 -13 3 -6 3 6 10 12 15 12 6
0 8 -4 5 -9 -3 -5 0 -14 8 -20 7 -6 11 -22 8 -36 -4 -21 -1 -24 13 -19 12 5
16 3 14 -5 -3 -7 -9 -12 -14 -11 -5 1 -13 -8 -17 -20 -4 -12 -12 -19 -17 -15
-20 11 19 -50 41 -67 13 -9 20 -20 16 -23 -9 -9 -58 44 -58 62 0 8 -4 12 -8 9
-14 -8 -37 27 -39 60 -2 28 1 31 23 28 15 -1 24 3 24 11 0 36 -44 26 -59 -13
-7 -21 -10 -23 -10 -8 -1 20 -1 20 -16 0 -12 -17 -12 -20 2 -31 14 -11 14 -13
-1 -28 -9 -9 -16 -22 -16 -28 0 -8 3 -7 9 2 6 9 13 0 24 -33 9 -26 12 -44 6
-41 -5 4 -9 13 -9 21 0 8 -4 14 -9 14 -11 0 -3 -66 10 -90 7 -12 8 -10 9 7 0
12 5 25 11 28 5 4 9 19 8 33 -1 15 -1 38 -1 52 2 22 3 23 18 9 22 -22 36 -90
22 -106 -6 -8 -8 -16 -4 -20 3 -3 6 -1 6 5 0 7 6 12 13 12 15 0 18 -42 3 -52
-5 -4 -18 -2 -28 3 -12 7 -18 6 -18 -1 0 -7 -8 -9 -19 -5 -11 3 -22 1 -26 -4
-3 -7 0 -8 9 -5 9 3 16 2 16 -4 0 -6 -8 -9 -17 -7 -10 2 -22 4 -27 4 -5 1 -3
7 3 15 10 12 8 17 -9 26 -12 6 -24 9 -28 6 -3 -3 0 -6 6 -6 16 0 15 -12 -1
-35 -13 -17 -14 -17 -20 4 -3 12 -1 19 5 15 5 -3 9 0 7 7 -4 35 2 70 12 64 6
-4 8 -13 5 -21 -3 -8 -1 -14 4 -14 6 0 10 6 10 14 0 8 3 22 7 32 5 13 3 15 -7
9 -10 -6 -12 -4 -7 8 3 9 2 27 -3 39 -7 20 -9 17 -10 -17 0 -30 -3 -36 -10
-25 -7 11 -10 6 -10 -22 0 -29 -7 -42 -32 -63 -18 -15 -27 -24 -20 -20 6 3 12
2 12 -4 0 -5 -9 -9 -19 -8 -11 0 -17 5 -15 9 3 4 2 14 -2 20 -6 9 -10 6 -14
-9 -6 -27 -28 -17 -35 15 -2 14 4 28 19 40 13 10 26 28 30 40 4 12 12 22 18
22 5 0 8 7 4 15 -3 8 1 21 9 29 8 7 13 15 12 17 -1 3 3 -1 9 -8 12 -14 34 -18
34 -5 -1 4 -10 18 -21 31 -19 23 -20 23 -33 6 -8 -11 -20 -16 -30 -12 -12 5
-16 0 -16 -19 0 -19 4 -25 15 -20 13 5 14 2 3 -17 -12 -21 -14 -27 -17 -46 0
-5 -10 -11 -22 -14 -13 -3 -19 -1 -16 6 3 7 9 11 15 10 5 -1 8 7 5 18 -4 14
-8 17 -13 9 -5 -9 -9 -9 -14 -1 -4 6 -5 15 -1 20 3 5 1 12 -4 16 -6 3 -10 25
-10 48 -1 71 -9 185 -16 207 -7 22 -13 22 134 -6 65 -13 137 -12 211 2 8 1 27
3 43 3 16 1 27 7 27 15 0 10 -8 13 -25 10 -14 -2 -25 0 -25 5 0 7 639 9 773 2
16 -1 18 -10 15 -78 -2 -62 -6 -78 -18 -77 -8 0 -42 4 -75 8 -80 9 -60 -8 26
-23 36 -6 70 -11 75 -11 5 0 8 43 6 100 l-3 99 -437 1 c-239 0 -433 -2 -431
-5 3 -3 18 -6 32 -7 31 -3 36 -14 10 -22 -76 -22 -218 -11 -253 19 -34 29
-229 25 -222 -4 3 -12 0 -12 -12 -2 -8 7 -43 14 -78 16 -35 2 -112 6 -172 10
-99 6 -108 5 -102 -10z m759 -272 c3 -5 -1 -13 -8 -20 -10 -10 -14 -9 -18 1
-8 21 15 37 26 19z m-293 -28 c20 -24 6 -28 -15 -5 -10 11 -13 20 -8 20 6 0
16 -7 23 -15z m380 -82 c0 -13 -3 -13 -15 -3 -8 7 -12 16 -9 21 8 13 24 1 24
-18z"/>
<path d="M3018 1113 c18 -2 45 -2 60 0 15 2 0 4 -33 4 -33 0 -45 -2 -27 -4z"/>
<path d="M1918 1078 c-3 -9 -46 -12 -165 -13 -149 0 -160 -1 -145 -16 12 -11
21 -13 29 -7 8 7 32 3 72 -11 100 -34 228 -29 218 10 -3 13 0 19 10 19 10 0
14 -6 10 -20 -4 -16 0 -20 22 -20 15 0 36 -7 47 -15 18 -13 16 -14 -23 -15
-24 0 -43 -4 -43 -9 0 -5 16 -8 35 -5 20 2 35 0 35 -6 0 -5 -16 -10 -35 -10
-19 0 -35 -4 -35 -9 0 -5 8 -8 18 -6 9 1 22 0 27 -4 6 -3 -6 -9 -25 -12 l-35
-6 33 -2 c17 0 32 -6 32 -12 0 -6 -7 -9 -15 -6 -8 4 -17 2 -20 -3 -4 -6 6 -10
20 -10 16 0 24 -4 20 -11 -4 -6 -13 -8 -21 -5 -8 3 -14 1 -14 -4 0 -6 9 -10
19 -10 14 0 18 -5 14 -20 -3 -13 -14 -20 -29 -20 -13 0 -24 -4 -24 -9 0 -4 12
-6 26 -3 19 3 25 1 20 -7 -4 -6 -33 -11 -66 -11 -49 0 -58 -3 -54 -15 5 -12
-5 -15 -60 -15 -36 0 -66 -3 -66 -7 0 -5 31 -7 70 -5 52 3 70 7 70 18 0 11 14
14 58 12 42 -1 47 -2 20 -5 -21 -2 -38 -8 -38 -12 0 -4 14 -6 30 -3 18 3 30 0
30 -7 0 -7 -32 -11 -95 -11 -52 0 -95 -4 -95 -8 0 -4 44 -7 98 -6 53 1 82 0
65 -3 -18 -2 -33 -9 -33 -15 0 -6 13 -8 30 -6 17 3 33 1 36 -4 3 -4 -45 -8
-105 -8 -92 0 -111 -3 -111 -15 0 -8 -7 -15 -16 -15 -8 0 -13 -3 -10 -8 2 -4
25 -6 50 -4 25 2 43 8 40 13 -3 5 -10 7 -15 4 -5 -4 -9 -1 -9 4 0 14 139 14
160 1 12 -8 12 -10 -5 -11 -19 0 -19 -1 -1 -8 18 -7 18 -8 2 -14 -23 -9 -54
-9 -58 1 -1 4 -23 4 -48 1 l-45 -6 42 -1 c23 -1 45 -7 49 -14 5 -8 0 -9 -14
-6 -12 4 -22 2 -22 -2 0 -5 -6 -10 -12 -13 -7 -2 1 -2 17 1 17 2 35 7 40 11
18 12 75 13 75 1 0 -7 -9 -9 -22 -5 -18 5 -20 4 -8 -4 12 -9 9 -11 -15 -9 -16
1 -45 -2 -63 -6 -21 -5 -38 -4 -47 4 -12 10 -15 10 -15 -1 0 -11 -2 -11 -10 1
-6 9 -10 10 -10 3 0 -8 -14 -10 -47 -6 -57 6 -41 6 -138 3 l-80 -3 95 -8 c132
-11 282 -13 309 -4 18 5 24 2 28 -14 6 -24 15 -26 43 -9 31 20 55 -1 52 -43
-1 -19 3 -41 9 -49 8 -12 9 -7 6 20 -6 51 8 82 36 78 20 -3 22 -8 19 -53 -2
-27 -9 -59 -16 -70 -18 -29 -27 -55 -18 -55 4 0 16 16 26 35 10 19 23 32 28
29 6 -4 9 12 8 37 -3 72 -1 82 14 76 8 -3 16 -1 19 6 2 8 18 2 45 -16 23 -15
42 -23 42 -18 0 5 -9 13 -20 16 -43 14 -19 27 38 21 31 -3 72 -5 90 -5 29 0
32 -3 28 -26 -3 -14 -1 -23 5 -20 5 4 9 15 9 25 0 13 10 20 33 25 17 4 42 13
54 21 19 12 23 12 33 -4 11 -16 11 -16 6 1 -4 13 0 17 18 17 31 0 53 -25 37
-44 -9 -11 -7 -15 11 -19 12 -4 24 -4 27 -2 2 3 -1 5 -7 5 -7 0 -12 9 -12 19
0 11 -6 23 -12 27 -21 13 33 21 82 12 27 -5 53 -17 64 -31 18 -22 18 -22 1 7
l-17 29 31 -5 c18 -3 35 0 38 5 3 6 1 7 -5 3 -7 -4 -12 -3 -12 1 0 5 -17 9
-37 10 -216 3 -257 8 -249 29 3 8 1 22 -4 32 -8 16 -22 82 -20 99 0 5 12 8 25
7 13 -1 22 3 19 8 -3 4 -10 6 -15 3 -5 -4 -9 -2 -9 3 0 6 12 13 27 17 16 4 34
11 40 17 15 12 17 32 3 23 -5 -3 -10 -2 -10 4 0 5 5 13 10 16 6 3 10 14 10 23
0 14 -2 13 -14 -3 -8 -12 -20 -16 -34 -12 -28 7 -35 -5 -22 -35 10 -21 10 -21
5 5 -4 19 -2 26 5 22 5 -3 10 -17 10 -31 0 -17 -5 -24 -20 -24 -11 0 -20 -4
-20 -10 0 -5 -7 -10 -15 -10 -19 0 -15 20 7 40 11 11 13 21 7 31 -6 12 -2 19
15 29 16 8 22 18 19 31 -6 23 -23 25 -23 4 0 -18 -12 -19 -28 -3 -16 16 -15
28 3 28 20 0 19 10 -2 26 -16 12 -12 13 27 8 l45 -7 -25 22 c-14 13 -19 19
-11 15 10 -5 12 -3 7 5 -5 7 -10 10 -13 7 -3 -3 -14 -1 -24 5 -23 12 -27 -3
-33 -123 -2 -48 -7 -91 -10 -97 -3 -5 -2 -20 3 -33 5 -13 14 -57 21 -98 6 -41
14 -82 16 -91 4 -14 -5 -17 -61 -16 -36 1 -65 4 -66 7 -2 16 -9 39 -22 75
l-14 40 -7 -38 c-4 -21 -15 -41 -27 -47 -20 -11 -59 -5 -59 9 0 4 -6 16 -14
27 -14 18 -15 16 -13 -17 1 -22 6 -35 12 -31 6 3 5 -1 -2 -9 -8 -10 -34 -16
-80 -17 -38 -1 -84 -6 -103 -12 -38 -11 -62 6 -35 26 11 8 15 47 17 177 2 107
-1 167 -7 167 -5 0 -4 4 3 8 7 5 15 25 19 45 5 33 4 35 -16 30 -14 -4 -21 -1
-21 9 0 25 9 26 58 11 68 -20 311 -26 347 -7 15 8 37 14 49 15 l21 0 -22 11
c-17 8 -28 6 -51 -11 -29 -20 -30 -20 -35 -2 -4 17 -18 20 -123 25 -66 3 -165
8 -221 11 -76 4 -102 2 -105 -7z"/>
<path d="M1541 1062 c-20 -3 -22 -8 -17 -35 3 -18 9 -59 12 -92 4 -33 12 -63
18 -67 7 -5 7 -8 1 -8 -6 0 -12 -15 -13 -34 -2 -30 0 -34 18 -29 14 4 20 0 20
-11 0 -11 7 -16 18 -15 9 1 25 -1 34 -5 9 -4 27 -6 40 -3 17 3 15 5 -9 6 -18
0 -33 6 -33 12 0 6 -9 8 -21 4 -15 -5 -19 -4 -15 4 4 6 0 14 -8 17 -10 4 -15
18 -14 40 1 34 1 34 51 34 28 0 47 3 43 7 -4 4 -26 6 -49 4 -37 -2 -43 0 -43
18 0 17 7 21 36 21 44 1 113 10 120 17 3 3 -31 2 -75 -2 -77 -6 -81 -5 -82 14
-2 18 4 21 33 21 19 0 33 4 30 8 -3 5 -19 7 -37 4 -31 -4 -31 -4 -26 32 5 40
2 44 -32 38z"/>
<path d="M3256 1047 c-12 -57 -15 -108 -10 -134 l6 -30 231 -7 c128 -3 253 -9
280 -13 l47 -6 -1 34 c-1 26 -3 28 -6 10 l-5 -24 -126 8 c-70 4 -141 8 -159 8
-17 1 -34 5 -38 9 -4 3 -19 3 -33 -1 -35 -10 -135 3 -140 18 -2 6 -8 9 -12 6
-15 -9 -21 13 -8 27 7 7 14 34 15 60 1 38 -2 47 -18 51 -14 4 -20 -1 -23 -16z"/>
<path d="M1280 1032 c-48 -33 -80 -69 -80 -91 0 -11 3 -20 8 -20 16 3 35 -1
30 -7 -4 -3 6 -33 22 -67 15 -34 36 -88 46 -119 10 -32 21 -58 26 -58 4 0 5
-6 3 -12 -2 -7 4 -42 13 -76 16 -56 20 -62 32 -47 10 12 10 19 2 27 -7 7 -12
20 -12 29 0 25 -58 204 -91 283 -16 38 -29 76 -29 85 0 9 14 31 30 50 41 46
41 52 0 23z"/>
<path d="M387 1034 c-4 -4 -4 -17 -1 -30 4 -16 1 -24 -15 -29 -23 -7 -31 -57
-9 -52 20 4 22 -43 2 -57 -16 -12 -16 -13 2 -20 10 -5 35 -9 54 -11 19 -1 43
-6 52 -10 15 -6 18 -2 16 19 -1 14 -8 26 -15 26 -8 0 -13 12 -13 30 0 35 17
40 23 8 2 -13 5 -2 6 24 1 39 -2 48 -19 53 -27 9 -25 25 3 25 20 0 20 1 -7 15
-29 16 -68 20 -79 9z m72 -68 c9 -11 4 -14 -25 -19 -42 -7 -64 1 -40 15 9 5
21 6 28 2 7 -4 8 -3 4 4 -10 17 19 15 33 -2z m-12 -62 c7 -18 -12 -34 -39 -34
-13 0 -18 8 -18 25 0 20 5 25 25 25 14 0 28 -7 32 -16z"/>
<path d="M2550 1022 c0 -6 5 -14 11 -17 7 -5 4 -14 -7 -26 -18 -20 -6 -27 13
-8 7 7 12 6 16 -5 3 -8 -1 -22 -9 -31 -9 -8 -12 -15 -8 -15 3 0 1 -7 -6 -15
-7 -9 -8 -15 -2 -15 5 0 12 7 16 15 3 8 13 15 21 15 10 0 13 5 9 12 -4 6 -3 8
4 4 6 -3 14 -21 18 -39 8 -39 24 -63 43 -62 8 0 15 8 17 18 5 34 13 47 29 47
9 0 13 -4 10 -10 -3 -5 -2 -10 3 -10 6 0 13 7 16 16 6 15 8 15 27 -2 11 -10
17 -24 14 -31 -2 -8 0 -11 5 -8 16 10 12 21 -15 46 -13 13 -25 31 -25 39 0 13
1 13 10 0 6 -10 10 -11 10 -2 0 6 -10 22 -21 33 -17 17 -23 19 -30 8 -4 -7 -5
-17 -2 -23 3 -5 1 -6 -5 -2 -6 3 -14 1 -17 -5 -5 -7 1 -9 16 -7 16 2 25 -3 27
-14 2 -12 -3 -18 -16 -18 -29 0 -53 11 -46 21 3 5 0 9 -5 9 -6 0 -11 -7 -11
-15 0 -18 -14 -19 -28 -2 -12 14 -11 42 3 54 4 4 5 3 2 -3 -4 -7 0 -15 9 -18
23 -9 31 -7 15 3 -9 6 -10 14 -4 25 9 16 11 16 22 2 17 -20 31 -21 31 -2 0 22
-49 30 -71 10 -18 -16 -20 -15 -38 7 -11 13 -20 20 -21 15 0 -5 -7 -3 -15 4
-9 8 -15 9 -15 2z m135 -129 c-3 -8 -5 -18 -5 -22 0 -4 -8 -7 -18 -7 -10 0
-18 8 -18 18 0 13 3 14 13 6 10 -8 12 -7 8 4 -4 9 0 15 10 15 10 0 14 -6 10
-14z"/>
<path d="M2924 998 c10 -8 30 -13 45 -11 23 3 24 2 6 -6 -17 -8 -17 -10 -3
-10 21 -1 32 15 17 25 -6 3 -28 9 -48 11 -33 4 -34 3 -17 -9z"/>
<path d="M1855 990 c-3 -5 -3 -10 2 -10 4 -1 -3 -7 -17 -15 -14 -8 -18 -14
-10 -14 22 1 67 17 51 18 -7 1 -11 7 -7 16 6 17 -9 21 -19 5z"/>
<path d="M3016 982 c-9 -14 23 -45 40 -38 13 5 14 9 5 20 -9 11 -9 15 1 19 8
4 7 6 -4 6 -10 1 -18 -6 -18 -15 0 -8 -5 -12 -10 -9 -6 4 -8 11 -5 16 4 5 4 9
1 9 -3 0 -7 -3 -10 -8z"/>
<path d="M2386 965 c13 -36 16 -97 6 -107 -8 -8 -10 -4 -6 13 3 18 0 16 -11
-8 -8 -18 -24 -37 -36 -44 -21 -11 -22 -9 -16 18 3 16 2 35 -2 42 -5 8 -11 -6
-15 -35 -3 -28 -14 -54 -26 -64 -17 -15 -18 -19 -6 -23 9 -4 18 -2 21 4 4 5
10 7 15 4 4 -3 10 5 13 16 4 14 11 20 21 16 9 -4 15 -3 13 2 -1 4 13 20 31 36
41 34 62 74 52 99 -9 27 -23 3 -15 -27 5 -17 4 -19 -4 -7 -6 8 -11 22 -11 31
0 8 -7 24 -16 35 -15 19 -16 19 -8 -1z"/>
<path d="M1623 963 c15 -2 39 -2 55 0 15 2 2 4 -28 4 -30 0 -43 -2 -27 -4z"/>
<path d="M1119 923 c-1 -69 -7 -103 -20 -120 -9 -11 -10 -14 -1 -9 15 9 16
-30 1 -144 -6 -47 -11 -192 -11 -323 0 -209 -2 -239 -17 -247 -13 -8 -12 -9 7
-10 13 0 20 -4 17 -10 -3 -5 -2 -10 3 -10 6 0 12 86 16 203 12 411 16 697 11
697 -3 0 -5 -12 -6 -27z"/>
<path d="M1856 943 c-13 -14 -5 -24 14 -18 11 3 20 2 20 -4 0 -5 -15 -12 -32
-14 -19 -2 -9 -4 22 -4 30 0 46 2 36 4 -14 4 -15 7 -6 13 8 5 2 11 -18 18 -17
6 -33 8 -36 5z"/>
<path d="M2106 935 c-3 -9 -6 -24 -5 -33 0 -9 5 -4 10 12 9 32 6 48 -5 21z"/>
<path d="M2970 937 c0 -8 11 -17 25 -20 20 -3 25 -1 23 12 -4 21 -48 28 -48 8z"/>
<path d="M1785 933 c-11 -2 -56 -7 -100 -12 -77 -8 -78 -8 -20 -9 80 0 185 12
160 18 -11 3 -29 4 -40 3z"/>
<path d="M4382 900 c0 -19 2 -27 5 -17 2 9 2 25 0 35 -3 9 -5 1 -5 -18z"/>
<path d="M2903 905 c-3 -9 -3 -19 1 -22 3 -4 6 1 6 10 0 20 20 22 40 5 12 -11
12 -10 1 5 -17 21 -40 22 -48 2z"/>
<path d="M557 890 c5 -20 15 -25 26 -13 8 7 -11 33 -23 33 -5 0 -6 -9 -3 -20z"/>
<path d="M1725 900 c-30 -8 -30 -8 8 -9 20 0 37 4 37 9 0 11 -2 11 -45 0z"/>
<path d="M275 892 c-16 -1 -45 -5 -63 -8 -34 -5 -34 -6 -30 -55 1 -27 0 -49
-4 -49 -5 0 -8 9 -8 19 0 19 -6 23 -63 35 -19 5 -26 3 -22 -4 3 -5 14 -10 23
-10 12 0 13 -3 4 -12 -9 -9 -15 -9 -24 0 -18 18 -88 16 -88 -3 0 -10 10 -15
30 -15 27 0 30 -3 30 -31 0 -29 -2 -31 -30 -27 -17 3 -30 2 -30 -2 0 -11 208
-30 331 -30 l117 0 48 40 c27 22 52 40 56 40 18 0 5 -19 -29 -43 -21 -15 -32
-27 -25 -27 37 0 152 24 152 32 0 5 -16 6 -36 2 -29 -5 -36 -4 -32 7 3 8 12
13 19 11 8 -2 11 0 7 3 -4 4 -3 15 2 24 13 26 -1 37 -49 38 -24 0 -46 5 -50
12 -4 6 -13 -11 -20 -37 -13 -46 -13 -47 -23 -19 -5 15 -14 27 -19 27 -18 0
-24 2 -37 12 -7 6 -15 8 -19 5 -3 -4 -13 -1 -21 6 -13 9 -14 9 -8 0 4 -7 3
-13 -2 -13 -5 0 -12 9 -15 20 -7 26 -27 26 -27 0 0 -15 8 -22 29 -26 22 -5 28
-11 24 -23 -4 -14 -3 -14 9 -1 15 17 38 24 38 12 0 -4 -5 -13 -12 -20 -12 -12
-2 -17 30 -13 6 1 12 -3 12 -10 0 -7 -9 -9 -27 -4 -34 9 -113 15 -113 9 0 -3
14 -10 30 -15 40 -15 38 -29 -5 -29 -32 0 -34 2 -31 29 5 42 15 55 32 40 8 -6
17 -9 21 -5 10 10 -4 19 -31 19 -16 0 -23 4 -19 11 3 6 -2 4 -13 -5 -10 -9
-27 -19 -37 -22 -10 -4 -15 -11 -12 -17 3 -5 1 -10 -4 -10 -14 0 -14 17 -1 25
20 13 9 25 -20 21 -28 -3 -30 -1 -29 28 1 23 3 25 6 9 3 -14 11 -23 21 -22 11
0 12 3 5 6 -7 2 -13 12 -13 21 0 15 2 15 10 2 7 -11 10 -12 10 -2 0 8 6 12 13
9 6 -2 11 -11 9 -20 -2 -10 4 -15 17 -14 11 1 18 3 16 6 -3 2 2 9 11 16 9 6
14 20 12 31 -2 14 -10 18 -33 16z m-130 -105 c-9 -5 -19 -6 -22 -3 -4 3 -12 1
-20 -5 -10 -9 -17 -8 -28 1 -17 14 -20 30 -5 30 6 0 10 -7 10 -15 0 -21 13
-19 35 5 14 16 21 17 32 8 12 -10 12 -13 -2 -21z m375 8 c10 -12 10 -15 -4
-15 -9 0 -16 7 -16 15 0 8 2 15 4 15 2 0 9 -7 16 -15z m-305 -5 c-8 -13 14
-52 25 -45 5 3 13 -2 19 -12 8 -16 4 -18 -31 -16 -36 1 -69 13 -37 13 12 0 12
2 -1 10 -12 7 -12 12 0 34 7 14 17 26 22 26 5 0 6 -4 3 -10z m195 -55 c0 -8
-4 -15 -9 -15 -13 0 -22 16 -14 24 11 11 23 6 23 -9z"/>
<path d="M500 891 c0 -6 9 -9 20 -8 11 1 20 5 20 9 0 4 -9 8 -20 8 -11 0 -20
-4 -20 -9z"/>
<path d="M3861 871 c-9 -22 -9 -23 1 -10 7 9 24 15 38 13 14 -1 36 -3 50 -4
22 -1 23 -2 6 -9 -18 -7 -18 -8 -2 -14 23 -9 22 -10 23 11 1 15 -9 21 -52 29
-52 9 -54 9 -64 -16z"/>
<path d="M1725 874 c-66 -6 -114 -12 -107 -13 21 -2 13 -19 -10 -24 -20 -4
-19 -4 5 -6 18 -1 27 4 27 14 0 21 18 19 23 -2 4 -17 5 -17 6 0 1 11 10 17 29
18 15 0 64 4 110 7 45 4 82 4 82 0 0 -5 -22 -8 -50 -8 -27 0 -50 -4 -50 -8 0
-5 10 -8 23 -6 12 1 39 3 59 3 29 1 36 4 32 16 -4 8 -1 15 4 15 6 0 13 -8 15
-17 4 -14 5 -12 6 5 1 25 6 25 -204 6z"/>
<path d="M3200 871 c-6 -12 -7 -21 -1 -21 10 0 24 30 17 37 -2 3 -9 -5 -16
-16z"/>
<path d="M2069 852 c5 -10 33 -30 62 -45 51 -26 52 -27 21 -27 -35 0 -37 -2
-22 -30 15 -29 50 -45 61 -29 9 15 3 29 -12 29 -6 0 -7 -4 -4 -10 10 -17 -4
-11 -25 10 -18 18 -18 20 -2 20 9 0 27 3 40 6 16 5 22 2 22 -10 0 -9 8 -16 20
-16 23 0 27 18 6 26 -8 3 -20 25 -27 49 -7 24 -16 42 -21 39 -4 -3 -3 -16 2
-30 6 -14 10 -27 10 -30 0 -11 -20 -1 -45 24 -17 16 -26 20 -22 10 5 -15 4
-15 -24 0 -16 9 -29 20 -29 25 0 4 -5 7 -10 7 -7 0 -7 -6 -1 -18z"/>
<path d="M3209 828 c-23 -23 -25 -29 -13 -39 11 -9 14 -8 14 6 0 11 5 15 16
11 8 -3 12 -2 9 3 -3 5 -1 12 4 15 12 7 25 -30 16 -44 -3 -5 -1 -10 4 -10 6 0
11 -9 11 -20 0 -11 4 -20 9 -20 5 0 6 13 0 33 -4 17 -11 44 -13 58 -8 37 -26
39 -57 7z"/>
<path d="M1686 836 c4 -11 -4 -16 -33 -19 -29 -3 -25 -4 20 -5 31 -1 57 2 57
8 0 5 -7 7 -15 4 -8 -4 -15 -1 -15 4 0 6 19 13 43 15 40 3 40 4 -10 5 -42 2
-51 -1 -47 -12z"/>
<path d="M3893 838 c-20 -25 -19 -43 1 -61 l21 -18 -23 11 c-21 10 -22 10 -10
-9 12 -19 83 -40 95 -27 4 3 -3 6 -15 6 -12 0 -22 5 -22 11 0 5 -4 8 -9 5 -4
-3 -6 6 -3 20 4 21 9 25 29 21 34 -6 37 8 7 32 -30 24 -57 27 -71 9z"/>
<path d="M1798 833 c-32 -2 -58 -7 -58 -11 0 -4 27 -5 60 -4 33 2 60 8 60 13
0 5 -1 8 -2 7 -2 -1 -29 -3 -60 -5z"/>
<path d="M1870 832 c0 -4 17 -6 38 -4 58 5 62 10 10 11 -27 1 -48 -3 -48 -7z"/>
<path d="M1855 810 c-38 -3 -65 -7 -60 -10 6 -3 42 -3 80 0 39 3 66 7 60 10
-5 3 -41 3 -80 0z"/>
<path d="M2383 813 c-7 -2 -9 -11 -6 -19 3 -8 0 -14 -6 -14 -7 0 -22 -10 -34
-22 -22 -23 -28 -25 -94 -30 -18 -1 -33 -5 -33 -8 0 -10 20 -35 20 -25 0 6 12
11 28 10 31 -1 63 13 76 34 6 10 10 11 16 1 10 -17 27 -5 46 32 16 30 10 49
-13 41z"/>
<path d="M2650 804 c0 -17 11 -18 33 -1 16 11 15 12 -8 13 -15 1 -25 -3 -25
-12z"/>
<path d="M2713 801 c1 -5 -7 -17 -18 -26 -11 -9 -14 -14 -7 -10 6 3 12 1 12
-4 0 -6 5 -11 11 -11 6 0 9 7 5 15 -3 8 -2 14 2 14 26 -4 33 2 18 16 -17 17
-27 20 -23 6z"/>
<path d="M1664 793 c7 -7 87 -5 95 3 2 2 -20 4 -49 4 -29 0 -50 -3 -46 -7z"/>
<path d="M3225 781 c-3 -6 -1 -11 6 -11 8 0 8 -4 2 -12 -5 -7 -6 -24 -2 -38 6
-21 7 -22 9 -5 1 20 1 20 10 0 6 -14 9 -15 9 -4 1 8 -5 21 -11 28 -10 11 -10
13 0 7 16 -9 15 4 -2 27 -9 12 -16 14 -21 8z"/>
<path d="M1748 773 c17 -2 47 -2 65 0 17 2 3 4 -33 4 -36 0 -50 -2 -32 -4z"/>
<path d="M2941 751 c-7 -13 -8 -22 -1 -26 5 -3 10 -12 10 -18 0 -8 -3 -8 -8
-2 -12 16 -32 16 -26 0 4 -8 10 -12 15 -9 5 3 9 0 9 -6 0 -7 4 -7 13 2 13 12
16 62 4 74 -3 3 -10 -3 -16 -15z"/>
<path d="M1668 746 c-37 -6 -71 -16 -75 -21 -4 -4 1 -5 11 -1 11 4 46 9 78 13
32 3 58 10 58 14 0 5 -1 9 -2 8 -2 0 -33 -6 -70 -13z"/>
<path d="M1558 727 c-5 -24 12 -47 33 -47 7 0 5 6 -6 14 -12 8 -16 20 -12 35
3 11 2 21 -3 21 -4 0 -10 -10 -12 -23z"/>
<path d="M735 731 c-17 -7 -17 -8 8 -15 15 -3 27 -11 27 -16 0 -5 -6 -7 -14
-4 -8 3 -17 1 -21 -5 -9 -15 28 -14 43 1 7 7 12 20 12 30 0 19 -20 22 -55 9z"/>
<path d="M1660 720 l-25 -8 28 -1 c15 -1 27 4 27 9 0 6 -1 10 -2 9 -2 -1 -14
-5 -28 -9z"/>
<path d="M1718 723 c12 -2 30 -2 40 0 9 3 -1 5 -23 4 -22 0 -30 -2 -17 -4z"/>
<path d="M3281 688 c6 -18 13 -40 15 -48 4 -12 6 -13 14 0 5 9 5 19 -2 27 -6
7 -7 13 -4 13 4 0 2 9 -4 20 -17 32 -30 23 -19 -12z"/>
<path d="M1731 698 c-1 -12 -10 -18 -28 -19 -16 0 -37 -4 -48 -9 -15 -7 -7 -9
27 -6 36 2 48 -1 51 -13 4 -13 5 -13 6 2 0 9 8 17 16 17 8 0 15 4 15 10 0 5
-6 7 -14 4 -8 -3 -16 2 -19 13 -4 16 -5 16 -6 1z"/>
<path d="M1778 703 c17 -2 47 -2 65 0 17 2 3 4 -33 4 -36 0 -50 -2 -32 -4z"/>
<path d="M1630 689 c-11 -7 -1 -8 35 -3 28 4 52 8 54 10 10 9 -76 3 -89 -7z"/>
<path d="M2258 662 c-9 -10 -8 -16 3 -23 19 -12 31 -7 39 17 6 15 4 20 -12 20
-10 0 -24 -6 -30 -14z"/>
<path d="M1515 623 c-8 -53 -72 -180 -96 -193 -17 -10 -19 -8 -19 22 1 87 2
84 -16 66 -14 -14 -15 -24 -4 -88 8 -49 9 -75 2 -82 -7 -7 -7 -18 0 -34 6 -13
9 -26 6 -29 -3 -3 -31 -10 -63 -15 -32 -5 -63 -14 -69 -21 -12 -12 49 -4 92
12 33 13 42 11 42 -6 0 -8 -11 -17 -25 -21 -77 -19 -177 -74 -136 -74 6 0 11
5 11 11 0 5 4 8 9 4 5 -3 12 -1 16 5 3 5 15 10 25 10 11 0 34 9 52 20 18 11
35 20 38 20 5 0 4 -58 0 -70 -1 -3 -2 -8 -2 -11 1 -3 -25 -9 -57 -12 -71 -8
-151 -28 -151 -39 0 -13 31 -9 121 12 116 29 117 29 99 40 -13 8 -13 10 1 10
18 0 29 61 29 161 0 62 6 70 62 88 28 9 43 9 60 1 22 -11 21 -10 -2 9 -25 20
-25 21 -3 21 12 0 25 -5 28 -10 4 -6 10 -8 15 -5 5 3 19 1 31 -6 16 -8 20 -8
14 0 -16 26 -67 37 -114 25 -25 -6 -47 -8 -49 -4 -1 4 16 46 38 94 42 91 47
111 31 121 -6 3 -13 -11 -16 -32z"/>
<path d="M1616 649 c3 -6 -5 -7 -23 -3 -15 4 -24 3 -20 -2 4 -4 14 -9 21 -10
7 -1 23 -5 35 -9 13 -4 29 -1 38 7 9 7 14 8 10 2 -4 -7 4 -14 21 -16 15 -3 36
-8 47 -13 15 -5 16 -4 6 3 -11 8 -10 11 5 15 10 2 0 5 -23 6 -23 0 -43 5 -45
9 -1 5 -20 12 -41 15 -23 4 -35 2 -31 -4z"/>
<path d="M717 630 c-32 -4 -61 -11 -65 -14 -4 -4 17 -4 46 0 31 4 52 3 52 -3
0 -8 -51 -37 -100 -57 -8 -3 4 -4 28 -2 32 3 40 1 32 -9 -5 -6 -6 -15 -2 -19
4 -4 -1 -13 -11 -21 -16 -11 -16 -13 -2 -19 11 -4 14 -13 10 -26 -3 -11 -2
-20 3 -20 5 0 12 30 15 66 5 50 11 70 26 80 10 7 21 23 24 34 3 11 4 19 4 19
-1 -1 -28 -5 -60 -9z"/>
<path d="M1823 613 c9 -2 25 -2 35 0 9 3 1 5 -18 5 -19 0 -27 -2 -17 -5z"/>
<path d="M3737 603 c-4 -3 -7 -81 -7 -171 0 -91 2 -163 4 -161 13 13 24 324
12 336 -1 2 -6 0 -9 -4z"/>
<path d="M4179 610 c-5 -28 -4 -50 2 -50 13 0 20 33 9 44 -5 5 -10 8 -11 6z"/>
<path d="M2217 528 c-5 -15 10 -48 22 -48 10 0 2 48 -9 55 -5 3 -10 -1 -13 -7z"/>
<path d="M2876 525 c10 -26 189 -143 201 -131 4 4 -84 66 -94 66 -5 0 -30 18
-57 40 -53 44 -58 47 -50 25z"/>
<path d="M1969 498 c4 -26 6 -28 9 -10 4 24 21 29 39 11 8 -8 13 -8 18 1 9 15
7 16 -36 24 l-36 6 6 -32z"/>
<path d="M2471 517 c-25 -25 -8 -73 36 -102 25 -16 26 -16 14 -2 -8 10 -11 20
-8 24 9 8 37 -17 37 -33 0 -27 20 -14 22 14 5 91 4 100 -15 90 -14 -7 -16 -12
-7 -23 6 -8 10 -24 8 -36 -3 -21 -4 -22 -19 -6 -9 9 -20 13 -24 9 -4 -4 -6 -2
-5 3 10 49 -14 87 -39 62z"/>
<path d="M2617 514 c-3 -3 -3 -12 -1 -19 3 -7 1 -29 -4 -49 -6 -20 -7 -36 -2
-36 10 0 40 57 40 75 0 15 -25 37 -33 29z"/>
<path d="M1830 505 c0 -2 14 -11 30 -20 33 -17 40 -10 13 11 -18 13 -43 19
-43 9z"/>
<path d="M2305 489 c-4 -6 2 -20 12 -32 11 -12 25 -35 33 -52 l14 -30 4 27 c2
16 -6 41 -20 62 -24 38 -33 43 -43 25z"/>
<path d="M3020 493 c0 -9 25 -34 63 -62 36 -28 15 9 -23 39 -22 17 -40 28 -40
23z"/>
<path d="M1758 445 c77 -43 83 -44 41 -4 -20 18 -47 32 -68 35 -34 4 -32 2 27
-31z"/>
<path d="M4310 455 c13 -14 27 -25 32 -25 4 0 31 -16 59 -35 53 -38 99 -60 99
-47 0 4 -14 13 -31 19 -17 7 -33 20 -35 30 -6 21 -103 83 -130 83 -15 0 -14
-3 6 -25z"/>
<path d="M4476 465 c18 -14 17 -15 -11 -10 l-30 5 28 -11 c16 -6 31 -8 34 -5
8 7 -16 36 -30 36 -6 0 -2 -7 9 -15z"/>
<path d="M2205 450 c-4 -11 0 -29 9 -42 16 -22 16 -21 16 20 0 44 -14 56 -25
22z"/>
<path d="M2920 432 c25 -22 47 -38 49 -36 7 7 -33 46 -64 61 -25 13 -22 9 15
-25z"/>
<path d="M1680 450 c-8 -5 -23 -7 -32 -4 -28 8 -21 -3 16 -25 43 -27 55 -27
25 0 -24 20 -24 20 -2 16 15 -3 20 -1 16 9 -6 16 -4 16 -23 4z"/>
<path d="M1921 434 c-7 -17 -8 -31 -2 -37 5 -5 12 3 16 23 9 40 2 48 -14 14z"/>
<path d="M2720 428 c1 -31 1 -32 15 -14 19 25 19 46 0 46 -10 0 -15 -10 -15
-32z"/>
<path d="M3223 440 c6 -11 15 -20 19 -20 12 0 -3 28 -18 34 -11 4 -12 2 -1
-14z"/>
<path d="M2287 443 c-8 -13 2 -43 14 -43 10 0 10 8 0 34 -5 12 -10 16 -14 9z"/>
<path d="M227 422 c-17 -19 -23 -52 -9 -52 8 0 34 61 28 67 -1 2 -10 -5 -19
-15z"/>
<path d="M1987 420 c8 -29 25 -37 21 -9 -1 12 -8 24 -15 26 -7 3 -9 -3 -6 -17z"/>
<path d="M2040 421 c-5 -11 -7 -22 -2 -25 4 -2 12 7 19 20 13 28 -2 33 -17 5z"/>
<path d="M2390 406 c0 -14 5 -26 10 -26 6 0 10 9 10 19 0 11 -4 23 -10 26 -6
4 -10 -5 -10 -19z"/>
<path d="M580 396 c0 -17 5 -21 45 -30 28 -7 29 -6 10 7 -11 9 -23 13 -27 11
-5 -3 -8 2 -8 10 0 9 -4 16 -10 16 -5 0 -10 -6 -10 -14z"/>
<path d="M4356 382 c-2 -4 16 -22 42 -39 52 -35 102 -52 102 -34 0 6 -4 11 -8
11 -5 0 -34 16 -66 35 -65 39 -63 38 -70 27z"/>
<path d="M426 351 c5 -5 -155 -39 -189 -40 -11 -1 -15 3 -11 10 5 8 1 8 -13 0
-22 -11 -89 -19 -165 -20 -27 -1 -48 -5 -48 -11 0 -11 59 -8 369 21 117 11
216 18 219 14 3 -3 -30 -43 -74 -88 -173 -179 -229 -239 -218 -236 6 2 76 73
154 157 78 84 147 151 154 149 6 -2 13 -16 16 -31 5 -25 6 -26 17 -7 10 16 8
23 -14 45 -14 14 -33 26 -42 27 -9 0 -48 3 -88 7 -40 4 -70 5 -67 3z"/>
<path d="M4277 310 c5 -28 4 -32 -10 -27 -18 7 -24 -8 -7 -18 6 -3 10 -21 10
-38 l0 -32 13 25 c11 21 11 27 -1 36 -12 8 -11 12 2 23 20 17 20 35 1 51 -13
11 -14 8 -8 -20z"/>
<path d="M710 290 c0 -11 5 -20 11 -20 6 0 9 6 6 14 -3 8 -1 17 6 20 7 2 4 5
-5 5 -12 1 -18 -6 -18 -19z"/>
<path d="M4406 269 c4 -8 -25 -14 -48 -10 -5 0 -8 -21 -8 -49 0 -29 5 -50 11
-50 5 0 7 5 4 10 -9 14 4 50 18 50 7 0 36 -16 65 -35 l52 -36 0 26 c0 19 -8
29 -32 39 -20 8 -26 15 -16 15 11 1 15 6 12 16 -4 10 -11 12 -18 7 -6 -5 -20
-12 -31 -16 -17 -5 -16 -3 4 12 23 19 23 19 2 25 -11 3 -19 1 -15 -4z"/>
<path d="M4317 252 c-12 -17 0 -92 17 -111 21 -23 69 -42 84 -32 18 11 -4 34
-35 36 -58 4 -56 2 -49 54 6 44 -4 75 -17 53z"/>
<path d="M4227 243 c-9 -15 -7 -243 3 -243 12 0 15 57 10 160 -3 52 -8 90 -13
83z"/>
<path d="M203 183 c20 -2 54 -2 75 0 20 2 3 4 -38 4 -41 0 -58 -2 -37 -4z"/>
<path d="M4273 150 c0 -25 2 -35 4 -22 2 12 2 32 0 45 -2 12 -4 2 -4 -23z"/>
<path d="M1985 172 c-302 -1 -553 -6 -558 -11 -5 -5 370 -9 885 -10 491 0 961
-2 1043 -4 83 -2 164 -1 180 3 17 4 -103 8 -265 9 -162 1 -347 4 -410 7 -203
8 -315 9 -875 6z"/>
<path d="M3946 118 c10 -18 87 -84 115 -99 26 -13 24 3 -2 21 -12 8 -44 33
-72 55 -28 22 -46 32 -41 23z"/>
<path d="M1370 110 c-8 -6 -59 -24 -112 -41 -54 -17 -98 -33 -98 -36 0 -3 22
-3 49 0 59 7 143 41 167 68 19 21 17 24 -6 9z"/>
<path d="M4341 85 c6 -19 9 -41 8 -47 -3 -26 1 -38 15 -38 9 0 14 15 15 50 0
39 -3 52 -19 60 -28 15 -29 13 -19 -25z"/>
<path d="M4427 89 c6 -8 25 -22 41 -31 23 -14 29 -14 29 -3 0 8 -3 14 -6 13
-3 0 -13 0 -21 1 -13 1 -13 2 0 12 13 9 13 10 0 6 -8 -2 -24 0 -35 6 -17 9
-18 8 -8 -4z"/>
</g>
</svg>
