<?xml version="1.0" standalone="no"?>
<!DOCTYPE svg PUBLIC "-//W3C//DTD SVG 20010904//EN"
 "http://www.w3.org/TR/2001/REC-SVG-20010904/DTD/svg10.dtd">
<svg version="1.0" xmlns="http://www.w3.org/2000/svg"
 width="300.000000pt" height="226.000000pt" viewBox="0 0 300.000000 226.000000"
 preserveAspectRatio="xMidYMid meet">
<metadata>
Created by potrace 1.10, written by Peter Selinger 2001-2011
</metadata>
<g transform="translate(0.000000,226.000000) scale(0.100000,-0.100000)"
fill="#000000" stroke="none">
<path d="M1912 2250 c-18 -4 -36 -11 -40 -15 -10 -10 -15 -346 -5 -355 4 -5
42 -2 83 5 41 8 91 14 110 14 35 1 36 1 32 42 -3 29 -1 40 7 35 8 -5 11 34 11
138 0 91 -4 146 -10 146 -5 0 -11 -20 -11 -45 -1 -25 -3 -49 -4 -55 -1 -5 -3
-61 -4 -123 l-1 -113 -100 -15 -100 -15 2 166 3 165 65 17 c51 13 58 17 30 16
-19 0 -50 -4 -68 -8z"/>
<path d="M2344 2140 c0 -69 1 -97 3 -62 2 34 2 90 0 125 -2 34 -3 6 -3 -63z"/>
<path d="M1971 2184 c0 -11 3 -14 6 -6 3 7 2 16 -1 19 -3 4 -6 -2 -5 -13z"/>
<path d="M1993 2170 c-11 -16 -10 -18 2 -14 8 4 15 12 15 20 0 19 -3 18 -17
-6z"/>
<path d="M1672 2160 c0 -14 2 -19 5 -12 2 6 2 18 0 25 -3 6 -5 1 -5 -13z"/>
<path d="M1952 2140 c0 -14 2 -19 5 -12 2 6 2 18 0 25 -3 6 -5 1 -5 -13z"/>
<path d="M438 2133 c-16 -2 -28 -8 -28 -13 0 -5 7 -7 15 -4 8 3 17 0 20 -7 2
-8 13 -175 25 -372 11 -198 23 -364 26 -369 8 -12 426 -2 484 12 l35 8 -40 1
c-22 0 -131 -4 -243 -9 -112 -5 -210 -6 -218 -3 -12 4 -14 23 -10 94 2 49 1
87 -4 84 -4 -3 -7 36 -5 85 1 50 -2 90 -6 90 -5 0 -7 38 -4 85 2 52 0 87 -6
91 -7 4 -8 33 -4 80 5 54 3 74 -6 74 -8 0 -10 13 -6 40 3 22 4 39 4 39 -1 -1
-14 -4 -29 -6z"/>
<path d="M501 2136 c2 -2 27 -6 54 -10 34 -4 43 -3 30 3 -19 9 -93 15 -84 7z"/>
<path d="M674 2109 c-3 -5 6 -9 20 -9 31 0 34 6 6 13 -11 3 -23 1 -26 -4z"/>
<path d="M736 2100 c5 -4 29 -11 54 -14 53 -7 44 -1 -19 13 -24 5 -39 6 -35 1z"/>
<path d="M593 2086 c4 -10 7 -30 7 -46 0 -23 5 -28 29 -32 28 -4 29 -2 33 35
2 21 0 41 -4 43 -4 3 -8 -12 -8 -33 0 -27 -3 -34 -9 -23 -6 8 -8 17 -5 21 2 4
-1 11 -7 15 -8 5 -10 -1 -7 -20 3 -14 1 -26 -3 -26 -5 0 -9 15 -9 34 0 19 -5
38 -12 42 -8 5 -9 2 -5 -10z"/>
<path d="M1970 2086 c0 -2 8 -10 18 -17 15 -13 16 -12 3 4 -13 16 -21 21 -21
13z"/>
<path d="M875 2070 c17 -4 44 -8 60 -8 25 0 24 2 -10 9 -51 10 -92 10 -50 -1z"/>
<path d="M674 2046 c-8 -21 2 -46 18 -45 10 0 10 2 1 6 -7 2 -13 14 -13 26 0
18 2 19 10 7 6 -9 10 -10 10 -3 0 19 -20 26 -26 9z"/>
<path d="M794 2046 c-10 -26 0 -49 24 -52 19 -3 22 0 21 29 l-1 32 -8 -30 c-4
-16 -8 -23 -9 -15 -1 13 -2 13 -11 0 -8 -12 -10 -9 -10 13 0 19 4 26 12 21 7
-4 8 -3 4 4 -10 16 -15 15 -22 -2z"/>
<path d="M1962 2030 c0 -14 2 -19 5 -12 2 6 2 18 0 25 -3 6 -5 1 -5 -13z"/>
<path d="M720 2021 c0 -11 4 -22 9 -25 5 -3 9 6 9 19 0 14 -4 25 -9 25 -5 0
-9 -9 -9 -19z"/>
<path d="M753 2012 c0 -12 5 -22 9 -22 11 0 10 12 -2 30 -7 12 -9 10 -7 -8z"/>
<path d="M2011 2017 c-8 -10 -7 -14 2 -14 8 0 14 6 14 14 0 7 -1 13 -2 13 -2
0 -8 -6 -14 -13z"/>
<path d="M850 2006 c0 -23 16 -27 17 -5 1 10 -2 19 -8 19 -5 0 -9 -6 -9 -14z"/>
<path d="M421 1994 c0 -11 3 -14 6 -6 3 7 2 16 -1 19 -3 4 -6 -2 -5 -13z"/>
<path d="M890 1997 c0 -8 7 -18 16 -21 11 -4 14 -1 12 11 -4 21 -28 30 -28 10z"/>
<path d="M1671 1984 c0 -11 3 -14 6 -6 3 7 2 16 -1 19 -3 4 -6 -2 -5 -13z"/>
<path d="M651 1972 c-5 -10 -6 -24 -2 -31 6 -9 10 -3 13 18 5 36 3 38 -11 13z"/>
<path d="M697 1957 c-9 -11 -14 -23 -11 -26 3 -3 9 0 13 8 7 10 10 9 14 -3 9
-23 32 -19 45 8 9 21 8 23 -11 22 -12 -1 -24 2 -27 6 -3 3 -13 -3 -23 -15z
m53 -5 c0 -13 -12 -22 -22 -16 -10 6 -1 24 13 24 5 0 9 -4 9 -8z"/>
<path d="M776 1944 c-9 -24 -7 -31 7 -31 9 0 12 9 9 24 -5 27 -8 28 -16 7z"/>
<path d="M810 1935 c0 -14 2 -25 4 -25 2 0 6 11 8 25 3 14 1 25 -3 25 -5 0 -9
-11 -9 -25z"/>
<path d="M849 1933 c4 -15 13 -28 19 -29 7 -1 8 0 2 3 -5 2 -10 16 -10 29 0
13 -4 24 -9 24 -5 0 -6 -12 -2 -27z"/>
<path d="M2101 1944 c0 -11 3 -14 6 -6 3 7 2 16 -1 19 -3 4 -6 -2 -5 -13z"/>
<path d="M2342 1935 c0 -16 2 -22 5 -12 2 9 2 23 0 30 -3 6 -5 -1 -5 -18z"/>
<path d="M831 1924 c0 -11 3 -14 6 -6 3 7 2 16 -1 19 -3 4 -6 -2 -5 -13z"/>
<path d="M1672 1800 l2 -115 6 100 c3 55 2 107 -2 115 -4 8 -7 -37 -6 -100z"/>
<path d="M650 1886 c0 -10 13 -13 45 -12 24 1 48 5 51 9 12 12 32 8 48 -9 9
-8 16 -11 16 -6 0 20 -28 31 -76 28 -27 -1 -56 -6 -64 -11 -9 -5 -11 -4 -6 3
4 7 2 12 -3 12 -6 0 -11 -6 -11 -14z"/>
<path d="M830 1870 c8 -5 24 -9 35 -9 20 0 20 0 0 9 -11 5 -27 9 -35 9 -13 1
-13 0 0 -9z"/>
<path d="M431 1854 c0 -11 3 -14 6 -6 3 7 2 16 -1 19 -3 4 -6 -2 -5 -13z"/>
<path d="M690 1860 c0 -5 5 -10 11 -10 5 0 7 5 4 10 -3 6 -8 10 -11 10 -2 0
-4 -4 -4 -10z"/>
<path d="M735 1844 c-11 -8 -19 -17 -17 -19 1 -3 2 -16 2 -29 0 -18 -5 -23
-22 -22 -17 1 -27 11 -36 36 l-13 35 6 -34 c3 -18 5 -37 5 -42 0 -5 15 -9 33
-9 17 0 41 -7 51 -15 28 -22 63 -18 80 7 22 31 20 49 -9 81 -29 30 -51 33 -80
11z m67 -11 c10 -9 18 -30 18 -49 0 -28 -4 -35 -27 -40 -20 -6 -31 -2 -45 16
-22 28 -23 48 -1 72 20 22 31 23 55 1z"/>
<path d="M756 1811 c-9 -14 4 -41 19 -41 18 0 26 15 19 34 -7 17 -29 21 -38 7z"/>
<path d="M670 1825 c0 -8 2 -15 4 -15 2 0 6 7 10 15 3 8 1 15 -4 15 -6 0 -10
-7 -10 -15z"/>
<path d="M850 1829 c-12 -9 -12 -10 4 -5 16 5 18 2 14 -29 -2 -19 0 -35 4 -35
4 0 8 18 8 40 0 42 -5 47 -30 29z"/>
<path d="M435 1819 c-4 -6 -5 -12 -2 -15 2 -3 7 2 10 11 7 17 1 20 -8 4z"/>
<path d="M2351 1810 c-1 -14 -3 -119 -2 -234 0 -204 -1 -210 -25 -253 -13 -24
-24 -51 -24 -61 0 -9 14 7 30 37 l30 55 -3 240 c-1 133 -4 230 -6 216z"/>
<path d="M2925 1780 l-60 -7 62 -1 c34 -1 65 3 68 8 3 6 3 9 -2 8 -4 -1 -35
-4 -68 -8z"/>
<path d="M2838 1763 c7 -3 16 -2 19 1 4 3 -2 6 -13 5 -11 0 -14 -3 -6 -6z"/>
<path d="M442 1740 c0 -14 2 -19 5 -12 2 6 2 18 0 25 -3 6 -5 1 -5 -13z"/>
<path d="M848 1748 c5 -5 16 -8 23 -6 8 3 3 7 -10 11 -17 4 -21 3 -13 -5z"/>
<path d="M2950 1754 c-8 -1 -64 -6 -124 -10 -67 -4 -104 -9 -95 -14 8 -5 57
-5 109 0 52 5 95 8 95 7 1 -1 -4 -83 -11 -182 -7 -99 -13 -191 -13 -204 l-1
-24 -180 6 c-99 4 -180 3 -180 -2 0 -4 80 -11 177 -15 98 -4 179 -8 180 -10 1
-1 -3 -71 -9 -154 -9 -139 -8 -175 7 -160 3 3 8 70 11 149 3 79 7 150 9 157 2
6 20 12 40 12 19 0 35 5 35 10 0 6 -16 10 -36 10 l-37 0 6 93 c4 50 10 143 13
205 7 109 7 112 30 112 13 0 24 5 24 10 0 10 -19 11 -50 4z"/>
<path d="M647 1724 c3 -9 0 -20 -7 -24 -8 -5 -3 -7 13 -7 16 0 27 6 30 18 3
11 1 19 -4 19 -5 0 -9 -8 -10 -17 0 -14 -2 -13 -9 5 -5 12 -12 22 -14 22 -3 0
-3 -7 1 -16z"/>
<path d="M697 1710 c-3 -11 -1 -20 4 -20 5 0 9 9 9 20 0 11 -2 20 -4 20 -2 0
-6 -9 -9 -20z"/>
<path d="M817 1700 c-3 -11 -1 -23 4 -26 5 -3 9 6 9 20 0 31 -6 34 -13 6z"/>
<path d="M740 1695 c0 -8 5 -15 10 -15 6 0 10 7 10 15 0 8 -4 15 -10 15 -5 0
-10 -7 -10 -15z"/>
<path d="M791 1694 c0 -11 3 -14 6 -6 3 7 2 16 -1 19 -3 4 -6 -2 -5 -13z"/>
<path d="M855 1699 c-4 -6 -4 -13 -1 -16 3 -4 6 0 7 8 0 8 4 6 9 -6 8 -18 9
-18 9 -2 1 11 6 15 13 11 7 -4 8 -3 4 4 -9 15 -33 15 -41 1z"/>
<path d="M442 1670 c0 -19 2 -27 5 -17 2 9 2 25 0 35 -3 9 -5 1 -5 -18z"/>
<path d="M1670 1535 c0 -82 2 -146 5 -143 7 7 7 279 0 286 -3 3 -5 -61 -5
-143z"/>
<path d="M637 1650 c3 -11 9 -20 15 -20 5 0 4 9 -2 20 -6 11 -12 20 -14 20 -2
0 -2 -9 1 -20z"/>
<path d="M667 1650 c3 -13 13 -20 27 -19 17 1 17 2 4 6 -10 2 -18 11 -18 19 0
8 -4 14 -9 14 -5 0 -7 -9 -4 -20z"/>
<path d="M770 1638 c0 -10 4 -18 10 -18 5 0 7 8 4 18 -5 16 -5 16 9 -1 13 -15
15 -15 20 -2 4 8 13 12 22 9 8 -3 15 -2 15 4 0 5 -18 9 -40 9 -32 -1 -40 -5
-40 -19z"/>
<path d="M873 1645 c-3 -9 -3 -19 1 -22 3 -4 6 2 7 13 0 18 1 18 9 -1 8 -19 9
-19 9 3 1 25 -17 30 -26 7z"/>
<path d="M603 1604 c-3 -8 -1 -20 5 -26 8 -8 9 -4 6 13 -5 22 -4 23 9 7 16
-20 37 -24 37 -7 0 5 -4 7 -10 4 -5 -3 -10 -2 -10 3 0 17 -31 22 -37 6z"/>
<path d="M680 1596 c0 -9 5 -16 10 -16 6 0 10 4 10 9 0 6 -4 13 -10 16 -5 3
-10 -1 -10 -9z"/>
<path d="M750 1590 c0 -11 5 -20 11 -20 6 0 8 8 5 18 -5 14 -4 14 9 -2 8 -11
15 -15 15 -10 0 12 -21 34 -32 34 -4 0 -8 -9 -8 -20z"/>
<path d="M860 1595 c0 -11 -5 -12 -25 -5 -27 10 -33 -2 -15 -30 8 -13 10 -12
10 3 0 14 5 17 20 12 16 -5 20 -2 20 14 0 12 -2 21 -5 21 -3 0 -5 -7 -5 -15z"/>
<path d="M715 1590 c3 -5 8 -10 11 -10 2 0 4 5 4 10 0 6 -5 10 -11 10 -5 0 -7
-4 -4 -10z"/>
<path d="M893 1589 c9 -6 15 -14 12 -19 -3 -4 6 -7 20 -6 29 1 34 16 6 16 -11
0 -23 5 -26 10 -3 6 -12 10 -18 10 -7 0 -4 -5 6 -11z"/>
<path d="M2705 1580 c3 -6 0 -10 -7 -11 -7 0 -3 -4 10 -10 13 -5 21 -13 17
-18 -3 -5 -1 -12 5 -16 5 -3 10 1 10 9 0 8 -5 18 -10 21 -6 4 -8 10 -5 15 3 4
-2 11 -11 14 -8 3 -12 2 -9 -4z"/>
<path d="M452 1555 c0 -16 2 -22 5 -12 2 9 2 23 0 30 -3 6 -5 -1 -5 -18z"/>
<path d="M591 1543 c-1 -16 4 -21 18 -20 11 0 17 5 15 9 -3 4 -1 8 5 8 5 0 12
-6 14 -12 3 -8 6 -6 6 5 1 11 -6 17 -19 17 -11 0 -20 -6 -21 -12 0 -7 -4 -4
-9 7 -8 19 -9 19 -9 -2z"/>
<path d="M2666 1545 c-3 -8 -1 -15 4 -15 13 0 22 18 11 24 -5 3 -11 -1 -15 -9z"/>
<path d="M670 1534 c0 -8 5 -12 10 -9 6 4 8 11 5 16 -9 14 -15 11 -15 -7z"/>
<path d="M701 1534 c0 -11 3 -14 6 -6 3 7 2 16 -1 19 -3 4 -6 -2 -5 -13z"/>
<path d="M732 1530 c0 -14 2 -19 5 -12 2 6 2 18 0 25 -3 6 -5 1 -5 -13z"/>
<path d="M750 1522 c0 -11 3 -12 14 -3 11 9 15 9 19 -1 4 -9 6 -7 6 4 1 11 -6
16 -19 15 -11 -1 -20 -8 -20 -15z"/>
<path d="M851 1524 c0 -11 3 -14 6 -6 3 7 2 16 -1 19 -3 4 -6 -2 -5 -13z"/>
<path d="M870 1525 c0 -8 2 -15 4 -15 2 0 6 7 10 15 3 8 1 15 -4 15 -6 0 -10
-7 -10 -15z"/>
<path d="M897 1527 c-3 -8 1 -14 9 -14 16 0 19 13 5 21 -5 3 -11 0 -14 -7z"/>
<path d="M948 1533 c-10 -2 -18 -9 -18 -14 0 -6 5 -7 11 -3 6 3 15 0 20 -7 6
-10 8 -7 6 9 0 12 -1 21 -2 21 0 -1 -8 -3 -17 -6z"/>
<path d="M820 1520 c0 -5 5 -10 11 -10 5 0 7 5 4 10 -3 6 -8 10 -11 10 -2 0
-4 -4 -4 -10z"/>
<path d="M452 1486 c0 -20 4 -34 8 -31 5 3 6 18 4 32 -7 40 -12 39 -12 -1z"/>
<path d="M596 1495 c-9 -23 -8 -25 9 -25 17 0 19 9 6 28 -7 11 -10 10 -15 -3z"/>
<path d="M645 1500 c-3 -5 -1 -18 4 -27 9 -16 10 -14 11 10 0 28 -5 34 -15 17z"/>
<path d="M670 1492 c0 -6 11 -12 25 -14 24 -3 24 -4 11 -30 -13 -24 -13 -28 0
-28 8 0 14 10 14 23 0 13 5 28 12 35 9 9 7 12 -9 12 -12 0 -28 3 -37 6 -9 3
-16 1 -16 -4z"/>
<path d="M750 1491 c0 -5 5 -13 10 -16 6 -3 10 -2 10 4 0 5 -4 13 -10 16 -5 3
-10 2 -10 -4z"/>
<path d="M853 1493 c-18 -7 -16 -20 2 -20 8 0 15 6 15 14 0 7 -1 13 -2 12 -2
0 -9 -3 -15 -6z"/>
<path d="M890 1480 c0 -5 7 -10 15 -10 8 0 15 5 15 10 0 6 -7 10 -15 10 -8 0
-15 -4 -15 -10z"/>
<path d="M1419 1483 c-20 -5 -30 -48 -15 -63 8 -8 6 -9 -6 -5 -15 6 -18 2 -18
-21 l0 -27 23 21 c13 12 31 22 40 22 22 0 29 14 21 44 -6 26 -19 34 -45 29z
m31 -23 c0 -5 -7 -10 -16 -10 -8 0 -12 5 -9 10 3 6 10 10 16 10 5 0 9 -4 9
-10z m0 -30 c0 -13 -20 -13 -40 0 -12 8 -9 10 13 10 15 0 27 -4 27 -10z"/>
<path d="M629 1463 c0 -5 -2 -17 -4 -29 -3 -12 1 -21 8 -21 9 0 12 10 9 29 -4
26 -11 38 -13 21z"/>
<path d="M578 1431 c-5 -35 -3 -37 19 -15 14 14 14 17 1 31 -14 13 -16 11 -20
-16z"/>
<path d="M672 1440 c0 -14 2 -19 5 -12 2 6 2 18 0 25 -3 6 -5 1 -5 -13z"/>
<path d="M840 1441 c0 -15 6 -21 24 -21 13 0 26 7 30 15 3 8 1 15 -3 15 -5 0
-11 -5 -13 -11 -3 -8 -10 -6 -21 5 -16 16 -17 16 -17 -3z"/>
<path d="M930 1452 c0 -5 -2 -17 -5 -24 -4 -9 2 -14 14 -14 16 0 18 4 9 21
-14 27 -18 30 -18 17z"/>
<path d="M960 1449 c0 -8 5 -21 10 -29 8 -12 9 -10 7 7 -4 26 -17 43 -17 22z"/>
<path d="M1496 1447 c-24 -17 -18 -59 9 -63 11 -2 25 -11 33 -21 11 -16 14
-16 22 -3 14 21 12 31 -10 68 -22 36 -28 38 -54 19z m50 -51 c10 -8 17 -17 14
-19 -3 -3 -16 3 -30 13 -29 22 -14 27 16 6z"/>
<path d="M735 1439 c-4 -6 -5 -12 -2 -15 2 -3 7 2 10 11 7 17 1 20 -8 4z"/>
<path d="M776 1434 c-5 -12 0 -15 21 -12 14 2 28 10 30 18 4 12 3 12 -5 1 -7
-9 -12 -10 -16 -2 -10 16 -23 14 -30 -5z"/>
<path d="M2710 1439 c0 -5 5 -7 10 -4 6 3 10 8 10 11 0 2 -4 4 -10 4 -5 0 -10
-5 -10 -11z"/>
<path d="M459 1394 c2 -26 7 -42 12 -37 9 9 1 83 -10 83 -3 0 -5 -21 -2 -46z"/>
<path d="M1319 1408 c0 -7 -2 -22 -3 -34 -1 -11 1 -29 5 -40 5 -12 8 -1 8 34
1 28 -1 52 -4 52 -3 0 -5 -6 -6 -12z"/>
<path d="M1406 1371 c-16 -18 -13 -51 5 -51 5 0 8 -4 7 -9 -2 -4 8 -17 21 -28
30 -25 24 -46 -24 -74 -34 -20 -50 -54 -21 -43 11 4 13 -1 10 -18 l-5 -23 10
23 c11 23 37 30 43 11 2 -6 23 -12 47 -13 33 0 46 4 59 22 17 21 17 20 18 -38
1 -33 -2 -60 -7 -60 -5 0 -9 10 -9 22 0 29 -6 20 -14 -22 -4 -24 -3 -30 4 -20
7 11 8 8 6 -13 -4 -41 -14 -43 -21 -4 -5 25 -11 34 -21 30 -9 -3 -14 2 -15 18
0 22 -1 23 -8 4 -6 -15 -1 -28 20 -53 30 -34 35 -48 20 -54 -6 -2 -12 -16 -14
-32 -4 -32 -30 -51 -27 -20 4 32 1 37 -14 25 -11 -9 -18 -6 -36 19 -12 16 -16
30 -10 30 6 0 16 -11 22 -25 7 -16 14 -21 19 -14 9 15 -1 50 -12 43 -5 -3 -15
-2 -21 3 -7 4 -22 9 -33 10 -11 1 -54 11 -95 23 -59 17 -81 19 -102 11 -16 -6
-28 -15 -28 -20 0 -5 51 -21 113 -36 124 -30 152 -44 163 -77 9 -30 22 -38 65
-38 30 0 38 4 43 23 10 38 7 41 -20 16 -23 -20 -25 -21 -17 -4 6 11 8 26 5 34
-3 8 0 11 7 7 7 -4 11 1 11 13 0 36 19 32 29 -5 7 -25 7 -43 0 -55 -7 -14 -6
-19 5 -19 7 0 17 11 20 25 3 13 15 29 26 35 12 6 20 21 20 37 0 21 -3 23 -14
14 -11 -10 -17 -8 -25 6 -9 13 -11 14 -10 3 1 -8 1 -24 0 -35 -2 -19 -2 -19
-12 -2 -6 10 -8 24 -5 32 3 8 0 16 -7 18 -8 3 -6 9 6 19 15 11 17 26 15 83 -2
53 -7 70 -18 71 -8 1 -21 2 -28 3 -7 0 -17 12 -22 26 -5 14 -14 25 -19 25 -6
0 -7 16 -4 38 3 20 3 34 0 31 -4 -3 -12 -40 -18 -83 -6 -43 -14 -74 -18 -68
-3 5 -19 8 -34 8 -16 -1 -31 2 -33 6 -3 4 4 8 14 8 12 0 22 9 25 21 3 12 10
18 15 15 5 -3 12 8 14 25 3 16 1 32 -4 35 -4 3 -8 10 -8 15 0 6 5 7 11 4 6 -4
17 2 25 14 18 25 38 18 28 -11 -5 -17 -4 -18 15 -8 12 6 25 8 30 6 5 -3 12 1
15 10 9 23 8 24 -23 24 -17 0 -33 5 -36 11 -19 30 -98 43 -119 20z m44 -17 c0
-8 4 -13 9 -10 5 3 12 -1 15 -10 3 -8 2 -12 -3 -9 -5 3 -12 -4 -16 -15 -4 -11
-11 -18 -16 -14 -6 4 -6 11 1 19 13 15 4 39 -11 30 -5 -3 -6 1 -3 9 8 21 24
21 24 0z m79 -164 c10 0 18 -7 18 -15 0 -10 -10 -15 -29 -15 -31 0 -31 2 -21
51 8 33 8 33 11 7 2 -19 9 -28 21 -28z m-265 -159 c4 -5 -3 -7 -14 -4 -23 6
-26 13 -6 13 8 0 17 -4 20 -9z m86 -21 c13 -9 13 -10 0 -10 -8 0 -22 5 -30 10
-13 9 -13 10 0 10 8 0 22 -5 30 -10z m63 -17 c-4 -10 -9 -11 -19 -2 -18 15
-18 15 5 15 11 0 17 -5 14 -13z m64 -85 c-3 -8 -6 -5 -6 6 -1 11 2 17 5 13 3
-3 4 -12 1 -19z"/>
<path d="M2421 1374 c0 -11 3 -14 6 -6 3 7 2 16 -1 19 -3 4 -6 -2 -5 -13z"/>
<path d="M1669 1362 c-2 -9 -2 -46 1 -82 l6 -65 4 78 c3 44 2 81 -1 83 -4 2
-8 -4 -10 -14z"/>
<path d="M2481 1364 c0 -11 3 -14 6 -6 3 7 2 16 -1 19 -3 4 -6 -2 -5 -13z"/>
<path d="M1245 1360 c-3 -5 -1 -10 4 -10 6 0 11 5 11 10 0 6 -2 10 -4 10 -3 0
-8 -4 -11 -10z"/>
<path d="M1360 1333 c0 -5 -5 -25 -9 -47 -5 -21 -6 -35 -1 -30 9 11 23 84 15
84 -3 0 -5 -3 -5 -7z"/>
<path d="M2392 1332 c-8 -5 -10 -16 -6 -27 6 -14 4 -17 -9 -12 -9 3 -17 2 -17
-3 0 -6 11 -10 25 -10 21 0 25 5 25 30 0 33 0 33 -18 22z"/>
<path d="M2470 1326 c0 -9 5 -16 10 -16 6 0 10 4 10 9 0 6 -4 13 -10 16 -5 3
-10 -1 -10 -9z"/>
<path d="M2440 1275 c0 -27 2 -46 5 -43 8 8 9 77 2 85 -4 3 -7 -15 -7 -42z"/>
<path d="M2564 1299 c-3 -6 -3 -13 0 -16 3 -4 6 0 6 8 0 12 2 12 9 0 5 -8 11
-9 15 -3 3 5 -1 12 -9 16 -8 3 -17 1 -21 -5z"/>
<path d="M2470 1175 c0 -71 2 -126 4 -124 7 7 9 239 2 246 -3 4 -6 -51 -6
-122z"/>
<path d="M12 1260 c0 -14 2 -19 5 -12 2 6 2 18 0 25 -3 6 -5 1 -5 -13z"/>
<path d="M1373 1265 c-3 -9 -3 -18 -1 -21 3 -3 8 4 11 16 6 23 -1 27 -10 5z"/>
<path d="M1322 1250 c0 -14 2 -19 5 -12 2 6 2 18 0 25 -3 6 -5 1 -5 -13z"/>
<path d="M2372 1250 c0 -14 2 -19 5 -12 2 6 2 18 0 25 -3 6 -5 1 -5 -13z"/>
<path d="M1580 1246 c-14 -14 21 -37 37 -24 7 6 13 16 13 22 0 14 -36 16 -50
2z m25 -6 c3 -5 1 -10 -4 -10 -6 0 -11 5 -11 10 0 6 2 10 4 10 3 0 8 -4 11
-10z"/>
<path d="M2663 1243 c-7 -2 -13 -13 -13 -23 0 -10 -4 -22 -10 -25 -5 -3 -10
-11 -10 -16 0 -6 7 -4 15 5 8 8 15 22 15 31 0 11 5 15 14 12 10 -4 13 -1 9 9
-3 7 -6 14 -7 13 0 0 -7 -3 -13 -6z"/>
<path d="M2590 1224 c0 -8 5 -12 10 -9 14 9 13 -8 -2 -23 -9 -9 -9 -12 0 -12
20 0 31 32 17 47 -18 17 -25 16 -25 -3z"/>
<path d="M20 1206 c0 -22 3 -27 11 -19 8 8 8 16 0 30 -9 16 -10 14 -11 -11z"/>
<path d="M2301 1193 c0 -25 1 -26 9 -8 12 27 12 35 0 35 -5 0 -10 -12 -9 -27z"/>
<path d="M1126 1198 c-10 -6 -81 -11 -157 -12 -86 0 -139 -5 -139 -11 0 -6 26
-10 60 -10 58 0 65 -4 61 -34 -2 -7 4 -11 11 -9 7 3 12 12 10 20 -2 12 8 17
38 20 22 2 47 0 55 -5 9 -5 15 -4 15 2 0 6 11 10 24 9 22 -2 25 -7 28 -55 2
-29 0 -53 -4 -53 -9 0 3 -33 15 -41 12 -9 11 -83 -2 -107 -6 -11 -8 -22 -5
-25 3 -3 -14 -4 -38 -2 -33 3 -38 2 -23 -5 17 -9 16 -10 -8 -6 -15 2 -30 -1
-33 -5 -3 -5 -13 -9 -22 -9 -19 0 -24 -5 77 78 29 23 48 42 41 42 -6 0 -8 5
-5 10 4 6 -10 3 -29 -7 -20 -9 -34 -18 -32 -21 2 -2 14 2 26 8 36 19 35 3 -1
-19 -19 -11 -43 -28 -54 -39 -11 -11 -30 -25 -43 -31 -19 -10 -23 -9 -32 11
-6 16 -9 18 -9 6 -1 -9 4 -20 9 -23 6 -4 8 -11 4 -16 -3 -5 -9 -7 -14 -4 -4 3
-11 -2 -14 -11 -3 -8 -10 -13 -16 -9 -5 3 -18 2 -28 -4 -24 -13 -39 -2 -47 32
-5 20 -11 25 -18 18 -7 -7 -15 -5 -24 7 -8 9 -12 11 -8 5 10 -20 4 -19 -125
22 -47 15 -56 22 -58 42 -1 14 -9 45 -17 70 -18 52 -6 88 25 78 10 -3 21 -1
25 5 12 20 27 10 23 -15 -3 -14 -1 -25 3 -25 5 0 9 9 9 20 0 11 7 20 15 20 8
0 15 5 15 10 0 6 9 10 19 10 11 0 23 -4 26 -10 3 -5 14 -10 23 -10 15 0 15 2
2 11 -11 8 -7 9 17 4 27 -5 32 -4 27 9 -7 19 -6 19 -38 6 -16 -6 -27 -6 -31 1
-4 5 -11 7 -16 4 -5 -3 -56 -7 -114 -9 -58 -2 -108 -6 -112 -9 -3 -4 -1 -7 5
-7 10 0 20 -40 36 -141 6 -34 5 -36 -21 -34 -41 3 -43 4 -37 20 4 8 1 15 -5
15 -6 0 -11 -6 -11 -14 0 -8 -3 -21 -6 -29 -3 -9 3 -16 15 -20 12 -3 19 -1 15
4 -9 15 17 11 140 -21 142 -37 194 -57 206 -80 8 -15 15 -16 75 -5 36 7 69 16
73 20 4 4 -9 5 -28 1 -28 -5 -31 -4 -12 4 12 5 22 15 22 21 0 9 3 9 14 0 10
-8 37 -8 108 1 90 11 98 10 155 -11 54 -20 65 -21 103 -10 37 11 40 14 25 25
-11 8 -14 18 -9 26 24 38 4 75 -22 42 -14 -18 -14 -18 -7 0 4 13 2 17 -8 14
-8 -3 -30 2 -49 10 -35 14 -35 14 -15 -6 11 -11 23 -18 26 -16 12 7 54 -33 57
-55 3 -21 1 -23 -25 -18 -55 10 -118 30 -124 39 -3 5 -12 8 -19 6 -8 -2 -14 9
-17 30 -4 28 -1 32 19 33 17 1 18 3 5 6 -9 2 -15 9 -12 14 4 5 -1 9 -10 9 -9
0 -13 5 -10 10 3 6 2 10 -4 10 -6 0 -11 39 -13 94 -3 89 -4 94 -22 84z m-536
-89 c0 -17 -17 -17 -27 1 -10 15 -9 17 8 13 10 -3 19 -9 19 -14z m-16 -70 c4
-23 10 -47 14 -53 11 -18 13 -56 4 -56 -9 0 -42 114 -42 145 0 31 17 5 24 -36z"/>
<path d="M1686 1201 c-4 -5 -13 -8 -21 -5 -23 9 -30 -25 -10 -44 10 -9 15 -12
12 -6 -12 21 29 22 42 1 11 -17 11 -19 -3 -14 -31 12 -46 -3 -46 -47 1 -38 2
-40 15 -22 11 15 18 17 26 9 8 -8 5 -14 -10 -22 -24 -13 -28 -41 -6 -41 8 0
15 5 15 11 0 16 24 36 38 31 24 -8 12 6 -23 27 -38 22 -52 61 -15 41 12 -6 18
-16 14 -23 -4 -7 -4 -9 1 -5 4 4 14 3 21 -3 8 -7 14 -7 19 1 3 5 1 10 -4 10
-6 0 -11 5 -11 11 0 6 6 9 13 6 10 -4 13 2 9 18 -3 18 1 24 19 27 l24 3 -26
17 c-32 23 -85 33 -93 19z m59 -46 c0 -16 -6 -30 -13 -33 -9 -3 -10 3 -2 23
13 35 13 38 -6 31 -9 -3 -12 -2 -9 5 12 18 30 3 30 -26z"/>
<path d="M190 1160 c0 -22 7 -25 29 -11 16 10 6 31 -15 31 -8 0 -14 -9 -14
-20z"/>
<path d="M2698 1169 c-2 -7 -19 -12 -38 -12 -31 0 -32 -1 -12 -10 25 -11 27
-22 10 -41 -11 -12 -16 -12 -30 1 -29 26 -20 0 9 -27 18 -17 25 -20 20 -8 -3
9 1 22 9 28 8 7 14 17 14 23 0 6 7 19 17 29 9 10 14 21 11 24 -3 3 -8 0 -10
-7z"/>
<path d="M235 1146 c-15 -19 -23 -22 -41 -16 -16 7 -24 5 -28 -6 -3 -8 -10
-13 -15 -9 -5 3 -12 1 -16 -5 -6 -10 7 -14 34 -10 8 1 17 -4 22 -11 10 -18 0
-39 -17 -32 -8 3 -11 9 -8 14 3 5 -8 12 -25 15 -17 4 -29 11 -28 17 1 7 -8 13
-20 15 -17 3 -21 0 -17 -12 3 -8 11 -14 17 -13 6 1 12 -9 13 -23 3 -32 9 -58
15 -64 2 -3 27 -2 54 2 44 6 50 10 50 32 0 20 6 26 28 28 16 2 35 -2 43 -9 8
-6 17 -9 20 -7 3 3 -7 15 -22 27 -29 23 -25 28 9 9 20 -10 21 -10 8 5 -20 25
-45 21 -80 -15 -32 -33 -39 -32 -20 5 15 28 28 37 57 37 12 0 22 5 22 10 0 6
-9 10 -21 10 -15 0 -19 5 -15 15 8 22 1 19 -19 -9z m-71 -94 c9 -14 -12 -35
-28 -29 -23 9 -20 37 3 37 11 0 22 -4 25 -8z m36 -16 c0 -3 -4 -8 -10 -11 -5
-3 -10 -1 -10 4 0 6 5 11 10 11 6 0 10 -2 10 -4z"/>
<path d="M775 1160 c-19 -8 -19 -9 2 -9 12 -1 25 4 28 9 7 12 -2 12 -30 0z"/>
<path d="M1331 1163 c0 -5 4 -17 9 -28 8 -18 9 -17 9 8 1 15 -3 27 -9 27 -5 0
-10 -3 -9 -7z"/>
<path d="M1939 1141 c-13 -18 -38 -40 -57 -52 -33 -19 -35 -19 -49 -2 -13 16
-13 16 -3 -5 9 -18 8 -23 -5 -28 -9 -4 -19 -3 -23 1 -4 4 -1 10 5 12 10 4 9 8
-2 19 -18 19 -9 43 14 37 9 -2 23 3 30 11 12 14 9 16 -23 16 -21 0 -37 -5 -37
-12 -5 -45 -7 -58 -13 -83 -4 -17 -12 -25 -21 -21 -12 4 -61 -25 -76 -47 -4
-5 -9 -3 -11 4 -3 8 -6 -20 -7 -61 l-2 -76 51 -16 c60 -19 68 -4 10 19 -38 15
-40 18 -40 59 0 48 8 74 22 74 5 0 6 -4 3 -10 -3 -5 1 -10 10 -10 25 0 75 -39
75 -59 0 -10 -12 -22 -27 -28 -25 -9 -26 -11 -9 -18 11 -5 21 -3 26 4 4 7 11
13 16 14 5 1 8 6 6 11 -3 10 30 36 40 30 4 -2 10 1 14 7 5 8 3 9 -7 4 -8 -5
-11 -4 -6 1 5 5 12 9 15 9 71 5 103 33 64 54 -20 11 -63 11 -57 1 5 -8 -32
-40 -46 -40 -6 0 -9 -9 -6 -20 3 -11 1 -20 -4 -20 -5 0 -9 10 -10 23 0 12 -3
17 -5 10 -4 -8 -11 -6 -23 6 -11 11 -27 23 -37 29 -15 9 -16 13 -7 23 18 18
53 19 53 1 0 -9 3 -12 8 -8 4 4 7 13 7 19 0 7 7 12 15 12 8 0 20 4 27 8 6 4
14 1 16 -5 4 -10 6 -10 6 0 1 7 14 12 34 12 24 0 28 -3 17 -10 -9 -6 -10 -10
-3 -10 7 0 17 9 23 19 14 26 13 31 -6 31 -9 0 -12 -5 -8 -12 4 -7 3 -8 -4 -4
-18 11 -3 34 31 47 18 6 35 11 38 11 4 -1 15 8 24 18 16 17 16 20 2 20 -8 0
-22 3 -30 6 -10 3 -24 -6 -38 -25z m-39 -156 c0 -2 -10 -9 -22 -15 -22 -11
-22 -10 -4 4 21 17 26 19 26 11z"/>
<path d="M31 1144 c0 -11 3 -14 6 -6 3 7 2 16 -1 19 -3 4 -6 -2 -5 -13z"/>
<path d="M120 1136 c6 -8 18 -12 26 -9 19 7 7 23 -18 23 -17 0 -18 -3 -8 -14z"/>
<path d="M850 1146 c0 -9 30 -14 35 -6 4 6 -3 10 -14 10 -12 0 -21 -2 -21 -4z"/>
<path d="M1379 1111 c-3 -33 -9 -45 -21 -47 -11 -1 -18 4 -18 14 0 13 -2 14
-9 4 -4 -8 -11 -13 -15 -13 -3 1 -6 -2 -5 -6 1 -5 26 -14 57 -20 32 -7 67 -15
80 -18 21 -5 22 -4 12 15 -6 11 -16 17 -22 14 -6 -4 -8 -3 -5 3 4 6 -2 13 -13
16 -10 3 -21 0 -24 -7 -2 -6 -3 -1 -3 12 1 12 5 22 9 22 4 0 8 5 8 11 0 5 -4
8 -9 4 -5 -3 -11 5 -14 17 -2 14 -5 6 -8 -21z"/>
<path d="M1025 1130 c3 -5 8 -10 11 -10 2 0 4 5 4 10 0 6 -5 10 -11 10 -5 0
-7 -4 -4 -10z"/>
<path d="M1461 1124 c0 -11 3 -14 6 -6 3 7 2 16 -1 19 -3 4 -6 -2 -5 -13z"/>
<path d="M2308 1117 c-3 -19 -2 -25 4 -19 6 6 8 18 6 28 -3 14 -5 12 -10 -9z"/>
<path d="M2700 1119 c0 -8 59 -24 65 -17 2 2 -12 8 -31 14 -19 6 -34 8 -34 3z"/>
<path d="M8 1113 c7 -3 16 -2 19 1 4 3 -2 6 -13 5 -11 0 -14 -3 -6 -6z"/>
<path d="M1270 1090 c0 -11 4 -20 9 -20 5 0 7 9 4 20 -3 11 -7 20 -9 20 -2 0
-4 -9 -4 -20z"/>
<path d="M1990 1078 c0 -37 7 -34 14 5 2 15 0 27 -5 27 -5 0 -9 -14 -9 -32z"/>
<path d="M2491 1094 c0 -11 3 -14 6 -6 3 7 2 16 -1 19 -3 4 -6 -2 -5 -13z"/>
<path d="M505 1085 c-3 -8 -7 -22 -10 -30 -2 -8 -1 -15 4 -15 5 0 11 14 13 30
5 32 1 40 -7 15z"/>
<path d="M727 1089 c7 -7 15 -10 18 -7 3 3 -2 9 -12 12 -14 6 -15 5 -6 -5z"/>
<path d="M1430 1091 c8 -6 18 -7 24 -4 5 3 6 2 3 -4 -4 -6 0 -19 8 -29 8 -10
15 -29 15 -42 0 -13 4 -21 9 -18 5 4 7 -3 4 -14 -7 -26 3 -26 17 0 8 16 6 24
-10 40 -11 11 -23 34 -27 50 -4 24 -11 30 -32 30 -20 0 -22 -3 -11 -9z"/>
<path d="M1960 1081 c0 -11 4 -22 9 -25 4 -3 6 6 3 19 -5 30 -12 33 -12 6z"/>
<path d="M2797 1080 c12 -14 29 -41 37 -60 8 -19 15 -29 16 -22 0 21 -26 65
-51 87 l-24 20 22 -25z"/>
<path d="M2951 1071 c-17 -16 -31 -33 -31 -37 0 -4 17 8 37 27 21 18 40 35 42
37 2 1 0 2 -6 2 -6 0 -25 -13 -42 -29z"/>
<path d="M2600 1081 c0 -5 5 -13 11 -17 7 -4 8 -9 1 -13 -6 -4 -5 -11 3 -18
11 -10 13 -8 12 10 -1 22 -27 58 -27 38z"/>
<path d="M926 1065 c4 -8 8 -15 10 -15 2 0 4 7 4 15 0 8 -4 15 -10 15 -5 0 -7
-7 -4 -15z"/>
<path d="M790 1050 c6 -11 13 -20 16 -20 2 0 0 9 -6 20 -6 11 -13 20 -16 20
-2 0 0 -9 6 -20z"/>
<path d="M2328 995 c-4 -44 -6 -81 -4 -82 1 -1 9 26 18 62 8 35 12 62 7 60 -4
-3 -9 5 -11 17 -2 13 -7 -13 -10 -57z"/>
<path d="M230 1040 c0 -5 10 -10 23 -10 12 0 33 -7 45 -16 12 -8 22 -12 22 -7
0 10 -57 43 -76 43 -8 0 -14 -4 -14 -10z"/>
<path d="M2490 1030 c0 -5 5 -10 11 -10 5 0 7 5 4 10 -3 6 -8 10 -11 10 -2 0
-4 -4 -4 -10z"/>
<path d="M13 1023 c-27 -10 -13 -33 20 -33 19 0 27 -3 20 -8 -9 -6 -6 -11 8
-21 20 -12 21 -11 14 21 l-6 33 20 -33 c12 -18 21 -41 21 -52 0 -11 4 -20 9
-20 20 0 -22 109 -42 111 -7 0 -21 2 -32 4 -11 1 -26 1 -32 -2z"/>
<path d="M487 1010 c-3 -11 -1 -20 4 -20 5 0 9 9 9 20 0 11 -2 20 -4 20 -2 0
-6 -9 -9 -20z"/>
<path d="M920 1020 c0 -5 5 -10 11 -10 5 0 7 5 4 10 -3 6 -8 10 -11 10 -2 0
-4 -4 -4 -10z"/>
<path d="M2095 1016 c18 -13 19 -15 3 -33 -9 -10 -20 -30 -23 -46 -4 -15 -11
-29 -15 -32 -5 -3 -6 4 -3 14 5 20 -23 71 -39 71 -6 0 -6 -5 1 -14 6 -7 9 -21
5 -29 -3 -9 1 -26 10 -39 9 -12 16 -27 16 -33 0 -5 -4 -4 -9 4 -8 12 -13 12
-33 -1 -20 -13 -25 -13 -36 -1 -7 7 -18 10 -24 7 -7 -4 -8 -2 -4 4 4 7 2 12
-3 12 -6 0 -11 -4 -11 -10 0 -5 -11 -10 -25 -10 -22 0 -25 3 -19 25 4 15 2 25
-5 25 -6 0 -11 -15 -11 -33 0 -18 -6 -39 -12 -46 -10 -11 -10 -13 0 -7 16 9
16 -11 0 -28 -11 -11 -16 -8 -30 15 -10 16 -22 29 -27 29 -17 0 -39 -40 -34
-61 5 -19 12 -20 84 -15 88 6 95 1 80 -66 -7 -30 -5 -40 10 -53 10 -10 23 -14
29 -10 7 4 4 13 -10 25 -20 17 -28 50 -11 50 5 0 12 -7 15 -16 4 -9 9 -14 12
-11 3 3 1 14 -5 24 -8 15 -6 23 9 35 10 9 21 14 24 11 3 -3 10 6 17 20 6 14
20 28 30 30 28 8 23 25 -8 30 l-28 4 29 2 c20 1 27 5 23 15 -4 10 0 14 14 11
14 -3 23 5 34 32 8 20 13 38 10 41 -3 3 -5 -1 -5 -8 0 -10 -3 -11 -11 -3 -7 7
-8 17 -2 27 8 15 11 15 27 -3 10 -11 16 -27 13 -35 -3 -8 -1 -17 6 -20 7 -2 4
-5 -5 -5 -10 -1 -25 -13 -34 -27 -13 -19 -19 -22 -25 -12 -6 8 -9 1 -9 -20 0
-20 6 -35 15 -38 16 -6 20 -35 8 -48 -5 -4 -8 -17 -8 -29 0 -16 -7 -21 -29
-23 -44 -2 -65 6 -59 22 3 8 8 12 11 10 3 -3 11 2 18 12 12 15 15 15 23 2 14
-21 32 -1 25 28 -6 22 -44 32 -44 11 0 -5 -15 -24 -32 -41 -18 -17 -28 -32
-23 -34 6 -2 9 -47 7 -113 l-3 -109 -31 9 c-22 6 -36 5 -47 -4 -12 -9 -13 -9
-7 1 4 7 1 12 -9 12 -9 0 -13 -4 -10 -10 9 -14 -8 -12 -24 3 -10 8 -12 8 -7 0
6 -11 -1 -12 -59 -4 -5 1 -4 5 4 10 8 5 20 7 27 4 16 -6 28 14 13 23 -8 4 -9
3 -5 -4 16 -26 -13 -10 -38 21 l-28 32 7 -50 c4 -27 8 -51 9 -52 5 -6 154 -5
165 1 9 6 12 5 7 -2 -10 -17 52 -8 74 11 11 9 29 17 40 17 16 0 20 7 20 35 0
36 13 47 24 19 3 -9 6 -40 6 -70 0 -30 4 -54 9 -54 4 0 6 41 3 90 -3 67 -1 90
8 90 8 0 10 8 7 23 -6 20 -5 21 7 4 13 -16 14 -16 20 5 3 13 6 37 6 53 0 44
15 63 37 49 10 -6 20 -19 21 -29 2 -9 0 -15 -5 -12 -4 3 -8 -25 -9 -61 -1 -46
2 -59 8 -43 4 13 6 27 2 32 -7 12 21 51 31 41 5 -4 5 -1 1 6 -4 7 -12 10 -17
6 -6 -3 -7 4 -3 20 3 15 1 32 -5 40 -15 18 5 34 22 17 6 -6 15 -11 21 -11 5 0
1 7 -10 15 -17 13 -17 14 -1 15 9 0 27 -11 39 -25 20 -23 38 -25 38 -5 0 5
-21 30 -47 57 -26 26 -46 51 -46 54 1 3 -8 5 -20 5 -18 -1 -22 4 -20 27 2 34
-8 28 -36 -19 l-22 -36 36 6 c40 8 75 -7 75 -32 0 -13 2 -14 9 -4 7 11 9 11
14 -2 5 -12 0 -16 -18 -16 -13 0 -26 4 -29 9 -10 15 -46 20 -46 6 0 -8 8 -11
20 -8 12 3 20 0 20 -8 0 -7 -3 -9 -7 -6 -3 4 -13 1 -22 -7 -18 -16 -44 -3 -49
24 -1 10 2 9 13 -4 15 -19 15 -19 15 2 0 12 -6 22 -14 22 -8 0 -16 6 -19 13
-2 6 -7 -8 -12 -32 -5 -29 -10 -39 -15 -30 -5 7 -4 21 1 31 6 12 6 18 -1 18
-5 0 -10 -4 -10 -10 0 -5 -5 -10 -11 -10 -6 0 -9 10 -7 23 2 16 10 22 28 22
16 0 24 5 22 14 -1 7 2 19 8 25 5 7 7 15 4 19 -3 3 8 13 25 22 18 9 29 20 26
25 -8 13 33 33 53 26 13 -5 12 -2 -2 9 -22 17 -49 12 -85 -16 -28 -23 -41 -24
-41 -5 0 8 -10 22 -22 30 -28 20 -49 21 -23 2z m111 -48 c4 -7 4 -10 -1 -6 -4
4 -14 3 -22 -3 -13 -11 -19 2 -6 14 10 11 21 8 29 -5z m-96 -35 c0 -14 -19
-38 -25 -32 -8 8 5 39 16 39 5 0 9 -3 9 -7z m-195 -73 c9 15 41 12 58 -5 8 -8
17 -11 21 -8 3 4 6 2 6 -4 0 -7 10 -9 23 -5 22 5 22 5 4 -16 -11 -11 -25 -18
-33 -15 -8 3 -14 1 -14 -4 0 -5 -7 -10 -15 -10 -13 0 -12 4 2 20 18 20 18 20
-11 5 -37 -19 -76 -4 -76 31 0 19 3 21 14 12 10 -8 16 -9 21 -1z m-98 -39 c10
-16 9 -18 -8 -14 -10 3 -19 12 -19 19 0 20 13 17 27 -5z m348 -74 c-2 -7 -6
-25 -9 -40 -4 -15 -11 -25 -16 -22 -5 3 -12 -11 -16 -31 -6 -30 -10 -35 -28
-29 -11 3 -35 8 -51 11 -27 5 -31 3 -33 -20 -2 -23 2 -26 29 -26 27 0 30 -3
27 -26 -2 -18 -12 -30 -34 -39 l-30 -13 -2 99 c-1 55 0 99 2 99 19 0 36 -16
37 -34 1 -16 3 -13 9 9 l7 30 13 -32 c6 -18 18 -33 26 -33 8 0 14 3 13 8 -3
17 14 51 23 46 5 -3 4 3 -3 14 -17 26 -6 52 20 45 11 -3 18 -10 16 -16z m-108
-123 c-3 -3 -12 -4 -19 -1 -8 3 -5 6 6 6 11 1 17 -2 13 -5z"/>
<path d="M2637 1000 c-13 -15 -14 -20 -3 -20 7 0 16 9 19 20 3 11 4 20 3 20
-1 0 -9 -9 -19 -20z"/>
<path d="M241 978 c-1 -15 -9 -32 -18 -37 -17 -10 -17 -10 -1 -11 18 0 34 39
25 62 -3 7 -6 1 -6 -14z"/>
<path d="M134 956 c9 -31 26 -40 42 -23 4 4 0 7 -9 7 -9 0 -17 6 -17 14 0 7
-6 19 -14 25 -11 9 -11 5 -2 -23z"/>
<path d="M1780 978 c0 -4 7 -8 15 -8 8 0 15 4 15 8 0 5 -7 9 -15 9 -8 0 -15
-4 -15 -9z"/>
<path d="M2061 964 c0 -11 3 -14 6 -6 3 7 2 16 -1 19 -3 4 -6 -2 -5 -13z"/>
<path d="M2806 972 c-13 -21 25 -64 42 -47 3 3 -1 5 -9 6 -8 1 -3 5 11 9 25 8
25 8 -5 10 -24 1 -26 3 -11 9 11 4 44 4 74 -1 51 -8 73 -5 60 8 -12 11 -155
17 -162 6z"/>
<path d="M1 954 c0 -11 3 -14 6 -6 3 7 2 16 -1 19 -3 4 -6 -2 -5 -13z"/>
<path d="M910 960 c0 -5 5 -10 11 -10 5 0 7 -4 4 -10 -3 -6 1 -7 9 -4 21 8 20
11 -4 24 -14 7 -20 7 -20 0z"/>
<path d="M1226 948 c3 -5 10 -6 15 -3 13 9 11 12 -6 12 -8 0 -12 -4 -9 -9z"/>
<path d="M2492 930 c1 -32 12 -40 22 -15 3 8 1 15 -4 15 -6 0 -10 4 -10 9 0 5
16 5 37 0 21 -4 42 -4 46 0 4 4 -6 8 -23 9 -16 0 -39 3 -49 7 -17 5 -20 1 -19
-25z"/>
<path d="M760 946 c0 -3 9 -10 20 -16 11 -6 20 -8 20 -6 0 3 -9 10 -20 16 -11
6 -20 8 -20 6z"/>
<path d="M2888 938 c5 -5 16 -8 23 -6 8 3 3 7 -10 11 -17 4 -21 3 -13 -5z"/>
<path d="M74 925 c-12 -8 -24 -12 -27 -9 -3 3 -15 3 -26 -1 -24 -7 -19 -24 7
-23 20 0 63 -9 69 -15 2 -3 -5 -7 -17 -10 -11 -3 -20 -1 -20 4 0 13 -34 11
-48 -3 -17 -17 -15 -28 4 -28 8 0 13 4 10 9 -3 4 6 6 19 3 14 -2 36 3 50 12
23 15 25 15 25 0 0 -13 6 -15 33 -9 17 3 49 9 70 12 40 6 53 33 15 33 -55 0
-98 -13 -99 -29 0 -11 -3 -9 -11 7 -10 20 -27 27 -51 23 -5 -1 -6 3 -2 9 3 6
11 8 16 5 5 -4 9 1 9 9 0 20 -1 20 -26 1z"/>
<path d="M365 930 c-3 -5 -16 -11 -28 -11 -20 -1 -21 -2 -2 -6 11 -3 69 -26
129 -51 l109 -45 29 -66 c17 -36 36 -92 42 -125 14 -66 30 -83 34 -35 1 17 -2
28 -7 25 -5 -3 -12 11 -16 32 -9 52 -58 196 -69 204 -5 3 -15 4 -23 1 -7 -3
-29 4 -49 16 -19 12 -32 17 -29 11 3 -5 -7 -3 -22 4 -15 8 -41 20 -58 27 l-30
12 25 8 25 7 -27 1 c-15 1 -30 -3 -33 -9z"/>
<path d="M970 933 c0 -23 26 -33 46 -18 10 8 14 15 7 15 -6 0 -15 -5 -19 -12
-5 -7 -11 -5 -21 7 -7 11 -13 14 -13 8z"/>
<path d="M1617 903 c-4 -21 -2 -42 3 -47 7 -7 10 7 10 37 0 57 -5 60 -13 10z"/>
<path d="M2602 934 c3 -3 48 -12 99 -19 106 -17 115 -17 107 -9 -3 3 -48 12
-99 19 -106 17 -115 17 -107 9z"/>
<path d="M2946 924 c-5 -14 -4 -15 9 -4 17 14 19 20 6 20 -5 0 -12 -7 -15 -16z"/>
<path d="M2263 912 c-7 -4 6 -14 29 -24 33 -15 38 -15 27 -2 -18 22 -43 34
-56 26z"/>
<path d="M2575 910 c17 -6 67 -14 112 -20 46 -6 90 -13 98 -16 8 -4 15 -2 15
3 0 8 -127 31 -215 39 -38 3 -38 3 -10 -6z"/>
<path d="M270 895 c0 -8 11 -17 25 -21 21 -5 25 -12 25 -43 0 -20 3 -60 6 -88
6 -49 5 -53 -14 -53 -41 0 -125 -22 -112 -30 6 -4 23 -47 36 -96 14 -49 32
-114 41 -143 l17 -55 13 30 c10 25 12 26 13 7 0 -27 14 -37 27 -20 13 17 14
59 2 51 -6 -3 -8 -12 -5 -20 3 -8 1 -14 -4 -14 -11 0 -13 75 -4 133 4 20 11
37 15 37 5 0 8 -3 8 -7 -4 -26 3 -63 11 -63 6 0 8 12 6 26 -3 17 -1 24 7 21 7
-3 11 -9 10 -15 -2 -6 4 -9 12 -6 10 4 13 0 10 -15 -2 -12 0 -19 4 -17 4 3 24
-6 45 -20 20 -14 42 -22 49 -18 6 4 9 4 5 -1 -4 -4 -3 -14 2 -21 8 -9 -7 -17
-62 -33 -40 -12 -85 -28 -101 -36 -15 -8 -34 -12 -42 -9 -8 4 -15 4 -15 2 0
-6 38 -118 47 -138 3 -8 5 -19 4 -24 -1 -5 5 -3 14 4 14 12 14 15 0 30 -8 9
-15 25 -15 36 0 10 -6 31 -14 46 -13 25 -13 27 13 36 47 18 93 23 86 9 -4 -6
0 -5 7 4 15 19 88 52 89 41 5 -49 4 -92 -3 -92 -5 0 -6 -5 -3 -10 4 -6 10 -8
14 -6 4 3 8 -16 10 -42 l2 -48 -87 -28 c-72 -23 -144 -37 -211 -39 -7 0 -10
-3 -8 -7 2 -4 25 -4 50 0 25 4 45 3 45 -1 0 -8 20 -7 36 4 13 7 24 -1 24 -17
0 -6 -5 -4 -10 4 -6 9 -10 10 -10 3 0 -6 11 -20 25 -31 13 -11 22 -21 20 -24
-7 -7 53 -62 72 -64 9 -2 -3 16 -29 44 -42 43 -68 81 -68 97 0 3 4 4 9 0 5 -3
12 -1 15 4 11 17 32 6 71 -37 32 -36 40 -41 47 -27 7 11 2 24 -16 46 -27 32
-33 49 -16 49 6 0 10 -5 10 -11 0 -5 5 -7 10 -4 6 4 8 11 4 16 -3 5 -2 9 3 8
4 -1 10 -1 13 1 22 8 50 8 50 -1 0 -5 -4 -7 -10 -4 -14 9 -12 -8 3 -24 10 -11
9 -13 -5 -8 -10 3 -20 1 -24 -5 -4 -6 -3 -8 4 -4 6 3 13 2 17 -4 3 -5 1 -10
-4 -10 -6 0 -10 -3 -10 -7 4 -23 -2 -43 -11 -38 -5 3 -11 -1 -11 -9 -3 -32 -4
-36 -11 -36 -5 0 -7 2 -5 4 4 8 -66 75 -74 71 -4 -3 -10 2 -13 11 -3 8 -11 12
-17 8 -9 -5 -6 -11 6 -21 11 -7 15 -13 10 -13 -5 0 6 -16 25 -35 18 -18 38
-33 44 -32 6 1 10 -6 10 -15 -1 -10 4 -18 11 -18 13 0 33 37 88 163 14 31 30
57 35 57 20 0 21 -31 2 -75 -11 -25 -17 -52 -14 -60 4 -10 0 -13 -13 -11 -13
3 -18 -2 -19 -18 0 -11 -4 -29 -8 -38 -5 -11 -4 -18 2 -18 5 0 12 9 15 21 4
14 10 18 18 13 10 -6 10 -9 1 -12 -20 -6 -13 -19 9 -17 21 1 44 47 79 157 17
55 24 61 45 39 17 -20 17 -23 -4 -83 -12 -35 -25 -75 -28 -90 -4 -23 -2 -26
21 -25 l26 2 -21 16 c-13 10 -18 19 -11 23 6 3 24 -5 40 -19 20 -16 33 -22 37
-15 5 8 11 8 20 0 9 -8 15 -8 20 0 3 5 -1 10 -9 10 -25 0 -19 15 12 28 l27 12
-28 -4 c-20 -2 -32 2 -40 15 -7 11 -19 19 -27 19 -12 -1 -11 -3 3 -11 9 -6 15
-15 11 -20 -3 -6 -12 -5 -22 3 -15 12 -16 11 -3 -4 7 -10 17 -16 21 -13 4 3
10 -2 14 -10 9 -25 -10 -26 -33 -1 -19 20 -20 27 -10 49 7 15 17 24 23 20 6
-3 6 -1 -1 7 -9 10 -9 19 3 41 8 16 14 31 14 34 0 3 0 8 0 13 0 9 78 8 100 -2
31 -13 87 -13 87 1 0 10 -10 12 -34 7 -18 -3 -39 -2 -46 3 -18 14 -49 24 -43
14 4 -5 -12 -7 -36 -4 -31 5 -44 2 -53 -10 -11 -15 -14 -15 -30 3 -10 11 -15
26 -11 36 5 13 15 15 54 9 26 -4 70 -9 98 -11 28 -2 63 -8 78 -14 15 -5 37
-10 49 -10 l22 1 -23 12 c-12 7 -20 16 -17 19 3 3 -29 9 -72 14 -95 9 -85 8
-100 17 -7 5 -17 6 -21 3 -5 -3 -19 -7 -33 -10 -66 -14 -138 -35 -173 -49 -70
-30 -70 -30 -62 91 3 59 10 108 14 110 5 1 3 33 -5 70 -55 284 -64 314 -95
323 -19 5 -25 3 -24 -7 1 -7 6 -17 11 -21 4 -4 5 -2 1 5 -4 6 -2 12 3 12 6 0
11 -6 11 -14 0 -8 6 -17 13 -19 9 -4 8 -6 -2 -6 -10 -1 -11 -4 -2 -15 7 -8 14
-27 17 -43 2 -15 9 -39 14 -53 18 -48 40 -205 30 -208 -7 -3 -7 -9 1 -18 7 -8
9 -17 6 -20 -3 -3 -13 8 -21 25 -17 33 -48 55 -61 43 -5 -4 -5 -2 -2 4 4 7
-22 30 -62 57 -62 41 -69 49 -75 88 -4 25 -3 46 4 53 5 5 11 28 11 51 2 29 3
33 6 13 2 -16 8 -28 12 -28 11 0 -4 81 -16 89 -5 3 -12 14 -16 24 -5 14 -1 17
23 17 20 0 30 -5 30 -15 0 -8 5 -15 11 -15 5 0 7 4 4 10 -3 6 1 7 9 4 9 -3 13
-10 10 -15 -3 -5 0 -9 5 -9 6 0 11 7 11 16 0 17 -61 46 -88 42 -9 -2 -16 3
-14 10 1 6 -5 12 -13 12 -8 0 -15 5 -15 10 0 6 -9 10 -20 10 -11 0 -20 -7 -20
-15z m46 -253 c3 -15 9 -36 14 -48 4 -11 4 -28 -2 -38 -6 -10 -11 -25 -13 -34
-1 -10 -8 -16 -14 -14 -6 1 -11 -3 -11 -9 0 -8 -5 -8 -15 1 -8 7 -13 16 -10
20 3 5 1 11 -5 15 -5 3 -10 20 -10 36 0 17 -5 39 -10 49 -8 15 -6 22 9 32 34
24 60 20 67 -10z m144 -148 c0 -2 -9 0 -20 6 -11 6 -20 13 -20 16 0 2 9 0 20
-6 11 -6 20 -13 20 -16z m-140 -26 c-1 -13 -7 -34 -14 -47 l-14 -24 -7 24 c-3
13 -9 32 -11 41 -4 15 6 22 39 27 4 0 7 -9 7 -21z m426 -230 c4 -7 3 -8 -4 -4
-8 4 -12 0 -12 -10 0 -14 -3 -15 -12 -6 -10 10 -10 15 2 22 19 12 17 12 26 -2z
m-46 -18 c0 -5 -4 -12 -10 -15 -5 -3 -10 -4 -10 -1 0 2 -3 12 -6 20 -5 12 -2
15 10 10 9 -3 16 -10 16 -14z m-83 -32 c-3 -8 -6 -5 -6 6 -1 11 2 17 5 13 3
-3 4 -12 1 -19z m104 3 c-8 -5 -10 -14 -5 -22 6 -11 4 -11 -10 0 -13 11 -14
16 -4 22 7 5 18 9 23 9 6 0 4 -4 -4 -9z m-209 -55 c16 -19 24 -37 19 -40 -10
-6 -61 49 -61 65 0 18 15 9 42 -25z m191 -9 c-3 -4 -12 -6 -20 -3 -9 4 -11 2
-6 -7 11 -18 11 -30 -3 -51 -7 -10 -10 -25 -7 -33 5 -12 1 -11 -15 3 l-22 18
26 14 c18 9 22 17 16 25 -18 21 -17 24 2 46 14 16 22 18 27 9 4 -7 5 -16 2
-21z m-189 -79 c-4 -5 -19 3 -35 18 -15 15 -26 31 -23 36 4 5 19 -3 35 -18 15
-15 26 -31 23 -36z m-48 -10 l29 -33 -32 29 c-31 28 -38 36 -30 36 2 0 16 -15
33 -32z"/>
<path d="M505 120 c10 -11 20 -20 23 -20 3 0 -3 9 -13 20 -10 11 -20 20 -23
20 -3 0 3 -9 13 -20z"/>
<path d="M480 75 c13 -14 26 -25 28 -25 3 0 -5 11 -18 25 -13 14 -26 25 -28
25 -3 0 5 -11 18 -25z"/>
<path d="M582 883 c67 -25 68 -26 83 -77 9 -28 18 -68 22 -90 l6 -38 53 5 c30
3 64 13 76 22 19 15 20 16 3 10 -11 -5 -33 -10 -50 -12 -38 -6 -78 28 -73 62
1 12 -3 29 -9 36 -8 10 -9 20 -3 29 8 13 10 12 10 -2 0 -10 7 -18 15 -18 8 0
14 -3 14 -7 -4 -22 2 -43 12 -43 6 0 9 6 6 14 -3 8 -1 17 6 20 9 3 9 5 0 5 -6
1 -9 10 -6 21 4 15 0 20 -14 20 -10 0 -27 6 -38 14 -19 13 -153 57 -171 55 -5
0 21 -12 58 -26z"/>
<path d="M1998 903 c7 -3 16 -2 19 1 4 3 -2 6 -13 5 -11 0 -14 -3 -6 -6z"/>
<path d="M2843 896 c-5 -7 -15 -16 -23 -19 -9 -3 -2 -6 15 -7 17 -1 39 -4 50
-6 11 -3 35 -5 53 -6 17 -1 32 -6 32 -10 0 -4 8 -8 18 -8 14 0 12 4 -8 21
l-25 20 24 -6 c16 -5 21 -4 17 4 -10 16 -46 14 -46 -3 0 -9 -8 -12 -25 -8 -14
2 -25 9 -25 14 0 5 -4 6 -10 3 -5 -3 -10 -2 -10 3 0 16 -29 22 -37 8z"/>
<path d="M2534 875 c11 -8 27 -14 35 -14 13 1 12 2 -1 6 -10 2 -18 9 -18 14 0
5 -8 9 -17 9 -16 -1 -16 -2 1 -15z"/>
<path d="M2496 855 c-4 -15 -1 -37 6 -52 16 -33 39 -43 31 -14 -3 12 -10 21
-15 21 -6 0 -8 11 -6 24 7 35 -8 54 -16 21z"/>
<path d="M2640 766 c0 -78 3 -95 16 -100 24 -9 32 3 11 15 -22 13 -25 89 -2
89 8 0 15 7 15 16 0 14 -3 14 -15 4 -13 -11 -15 -7 -15 26 0 28 3 35 9 24 6
-8 7 -18 5 -22 -3 -4 0 -8 5 -8 6 0 11 11 11 25 0 18 -5 25 -20 25 -19 0 -20
-7 -20 -94z"/>
<path d="M1200 846 c0 -2 9 -6 20 -9 11 -3 18 -1 14 4 -5 9 -34 13 -34 5z"/>
<path d="M2705 841 c11 -4 23 -21 27 -37 7 -28 7 -28 4 4 -3 34 8 32 17 -3 3
-12 5 -8 4 10 -2 27 -6 30 -37 32 -27 2 -30 0 -15 -6z"/>
<path d="M185 828 c-35 -6 -64 -16 -69 -25 -6 -11 -10 -12 -16 -3 -5 8 -22 9
-54 5 -37 -6 -46 -11 -46 -27 0 -17 5 -19 47 -13 27 4 65 11 87 15 33 7 44 5
77 -17 22 -14 39 -33 40 -42 0 -10 2 -12 6 -3 2 6 9 10 14 6 14 -8 11 4 -7 31
-9 14 -20 22 -25 19 -5 -3 -9 -1 -9 5 0 6 -7 8 -15 5 -10 -4 -15 0 -15 12 0
18 13 22 83 27 9 1 17 5 17 9 0 10 -37 9 -115 -4z"/>
<path d="M1610 820 c0 -11 5 -20 10 -20 6 0 10 9 10 20 0 11 -4 20 -10 20 -5
0 -10 -9 -10 -20z"/>
<path d="M2564 829 c-9 -15 1 -21 32 -17 l29 3 -27 12 c-18 8 -29 9 -34 2z"/>
<path d="M2778 833 c7 -2 12 -22 12 -44 0 -26 -4 -38 -11 -34 -7 5 -9 -14 -7
-57 l3 -63 33 0 c17 0 33 -4 33 -10 3 -20 17 101 18 153 1 39 -3 52 -14 52
-10 0 -14 -10 -12 -37 1 -21 6 -43 10 -50 4 -7 0 -16 -10 -22 -10 -6 -12 -11
-5 -11 6 0 12 -5 12 -11 0 -5 -4 -7 -10 -4 -5 3 -10 -1 -10 -10 0 -9 5 -13 11
-9 7 4 10 -1 7 -12 -2 -11 -13 -20 -26 -22 -23 -4 -23 -3 -16 85 4 48 11 90
15 91 20 8 7 22 -18 21 -16 0 -22 -3 -15 -6z"/>
<path d="M1010 820 c0 -4 12 -11 28 -15 49 -12 92 -37 93 -54 0 -10 2 -11 6
-3 2 6 9 10 14 6 5 -3 9 -3 9 -1 0 2 -17 16 -37 30 -40 27 -113 51 -113 37z"/>
<path d="M1386 822 c6 -4 14 -14 17 -22 4 -12 6 -12 6 2 1 9 7 19 14 21 6 3
-1 6 -18 6 -16 0 -25 -3 -19 -7z"/>
<path d="M1651 813 c-1 -16 -7 -23 -21 -23 -11 0 -20 -5 -20 -10 0 -6 12 -10
28 -9 15 1 41 -1 57 -4 l30 -7 -27 12 c-15 6 -32 23 -37 37 -9 25 -9 25 -10 4z"/>
<path d="M1675 810 c-3 -5 0 -10 7 -10 7 0 25 -7 41 -14 23 -13 27 -13 27 -1
0 26 -62 47 -75 25z"/>
<path d="M2881 798 c1 -18 2 -19 6 -5 2 9 9 15 14 12 5 -4 9 -1 9 4 0 6 -7 11
-15 11 -9 0 -15 -9 -14 -22z"/>
<path d="M1145 800 c-3 -5 8 -16 25 -25 19 -10 28 -20 23 -28 -5 -9 -3 -9 8 0
8 6 30 18 49 27 l35 16 -32 -5 c-18 -2 -35 0 -38 5 -3 6 -14 10 -23 10 -16 -1
-16 -1 1 -11 9 -5 17 -14 17 -19 0 -5 -13 -1 -29 8 -20 11 -26 19 -18 24 9 6
9 8 0 8 -6 0 -14 -4 -18 -10z"/>
<path d="M1304 750 c2 -61 16 -76 85 -97 63 -18 217 -20 266 -4 24 8 14 9 -45
5 -45 -3 -70 -2 -62 4 8 5 -9 8 -45 7 -78 -3 -113 10 -113 41 0 21 -4 23 -29
18 -17 -4 -32 -1 -36 6 -11 17 -3 20 38 11 21 -5 37 -5 37 0 0 5 -6 9 -14 9
-8 0 -22 10 -32 23 -13 17 -15 18 -10 3 5 -16 4 -17 -9 -6 -8 7 -13 16 -10 19
2 4 -2 8 -10 8 -9 0 -13 -13 -11 -47z m76 -55 c0 -18 -8 -18 -40 0 l-25 14 33
1 c22 0 32 -5 32 -15z"/>
<path d="M2917 793 c-3 -5 -7 -48 -10 -98 l-5 -90 10 85 c7 56 17 89 27 97 15
11 14 12 -1 13 -9 0 -19 -3 -21 -7z"/>
<path d="M1040 784 c0 -6 65 -34 77 -34 9 1 -58 39 -69 40 -5 0 -8 -2 -8 -6z"/>
<path d="M1395 780 c-28 -7 -29 -8 -4 -9 14 0 30 -6 36 -12 9 -9 10 -7 6 10
-3 11 -6 20 -7 20 0 -1 -14 -5 -31 -9z"/>
<path d="M2976 775 c4 -8 10 -15 15 -15 4 0 6 7 3 15 -4 8 -10 15 -15 15 -4 0
-6 -7 -3 -15z"/>
<path d="M2600 755 c-1 -49 -12 -59 -61 -51 -31 4 -39 3 -29 -4 8 -5 34 -10
58 -10 33 0 42 4 43 18 0 9 2 24 4 33 1 9 -1 23 -6 30 -6 10 -9 5 -9 -16z"/>
<path d="M390 750 c0 -11 4 -20 9 -20 5 0 7 9 4 20 -3 11 -7 20 -9 20 -2 0 -4
-9 -4 -20z"/>
<path d="M1025 762 c6 -5 21 -13 35 -17 17 -5 22 -4 15 3 -5 5 -21 13 -35 17
-17 5 -22 4 -15 -3z"/>
<path d="M1844 738 c29 -25 37 -39 32 -53 -7 -24 -68 -65 -96 -65 -11 0 -20
-4 -20 -10 0 -12 118 -12 175 -1 22 5 33 9 24 10 -9 0 -20 11 -23 24 l-7 22
-9 -22 c-8 -19 -17 -23 -57 -23 l-48 0 33 17 c20 10 34 25 38 42 3 14 7 30 8
36 3 13 -32 40 -64 50 -21 6 -19 2 14 -27z"/>
<path d="M2503 753 c2 -12 6 -26 10 -29 11 -11 8 19 -3 36 -8 12 -9 10 -7 -7z"/>
<path d="M2740 710 c-3 -61 -3 -62 -10 -25 -7 40 -7 40 -9 6 -1 -25 -5 -32
-16 -27 -8 3 -15 2 -15 -3 0 -14 51 -20 56 -6 3 7 3 37 1 66 l-3 54 -4 -65z"/>
<path d="M2873 710 c0 -36 2 -50 4 -32 2 17 2 47 0 65 -2 17 -4 3 -4 -33z"/>
<path d="M100 749 c-50 -5 -48 -6 29 -7 46 -1 81 1 77 6 -9 9 -33 9 -106 1z"/>
<path d="M2200 697 c0 -60 -2 -66 -22 -69 -34 -5 -37 -38 -4 -38 22 0 26 -4
26 -30 0 -20 -5 -30 -15 -30 -8 0 -15 5 -15 11 0 5 -5 7 -10 4 -6 -4 -4 -12 5
-21 8 -9 19 -12 25 -9 5 3 10 1 10 -6 0 -7 -10 -9 -25 -7 -13 3 -22 1 -19 -3
7 -12 74 -11 74 1 0 6 -5 10 -11 10 -6 0 -9 42 -8 121 1 66 -1 123 -5 126 -3
4 -6 -23 -6 -60z m0 -81 c0 -2 -7 -6 -15 -10 -8 -3 -15 -1 -15 4 0 6 7 10 15
10 8 0 15 -2 15 -4z"/>
<path d="M789 733 c-13 -16 -12 -17 4 -4 9 7 17 15 17 17 0 8 -8 3 -21 -13z"/>
<path d="M2270 739 c0 -5 5 -7 10 -4 6 3 10 8 10 11 0 2 -4 4 -10 4 -5 0 -10
-5 -10 -11z"/>
<path d="M2306 737 c3 -10 9 -15 12 -12 3 3 0 11 -7 18 -10 9 -11 8 -5 -6z"/>
<path d="M2943 730 c-6 -14 -13 -49 -15 -78 -5 -50 -3 -54 19 -63 13 -5 32 -9
41 -8 9 1 0 6 -20 11 -21 6 -38 14 -38 19 0 6 17 7 38 4 l37 -5 -32 15 c-41
19 -43 39 -4 33 17 -2 28 -1 25 4 -3 4 -14 8 -25 8 -12 0 -19 7 -19 20 0 17 3
18 26 10 20 -8 25 -7 21 2 -2 7 -11 12 -20 10 -10 -1 -17 6 -19 20 l-4 23 -11
-25z"/>
<path d="M1167 733 c-4 -3 -7 -14 -7 -23 0 -14 -26 -24 -122 -50 -68 -18 -139
-33 -159 -34 -21 0 -35 -4 -32 -8 3 -7 -45 -13 -69 -9 -5 0 -8 -4 -8 -9 0 -6
4 -10 9 -10 23 0 382 87 387 93 1 1 4 14 8 30 6 27 5 32 -7 20z"/>
<path d="M1414 731 c4 -5 0 -11 -6 -14 -7 -3 -3 -4 8 -4 21 1 23 27 2 27 -5 0
-7 -4 -4 -9z"/>
<path d="M1570 730 c-45 -5 -48 -7 -18 -8 31 -2 35 -5 31 -22 -4 -14 0 -20 10
-20 10 0 15 7 12 20 -3 14 2 20 13 20 9 0 27 3 39 6 18 5 21 3 16 -15 -3 -12
-1 -21 6 -21 6 0 9 10 7 23 -3 25 -26 29 -116 17z"/>
<path d="M1731 723 c0 -12 -9 -27 -18 -32 -10 -6 -13 -10 -8 -11 22 0 37 18
32 41 -4 23 -4 23 -6 2z"/>
<path d="M1750 714 c0 -8 5 -12 10 -9 6 3 10 10 10 16 0 5 -4 9 -10 9 -5 0
-10 -7 -10 -16z"/>
<path d="M2672 710 c0 -14 2 -19 5 -12 2 6 2 18 0 25 -3 6 -5 1 -5 -13z"/>
<path d="M1455 710 c3 -5 29 -10 57 -10 64 0 60 5 -10 14 -37 5 -52 4 -47 -4z"/>
<path d="M188 693 c7 -3 16 -2 19 1 4 3 -2 6 -13 5 -11 0 -14 -3 -6 -6z"/>
<path d="M2469 691 c10 -6 12 -27 8 -85 -4 -78 1 -97 22 -72 7 8 8 17 3 20 -4
2 -6 21 -4 41 4 33 7 36 28 32 19 -3 22 -1 13 9 -6 7 -17 10 -25 7 -9 -3 -14
2 -14 14 0 21 -18 43 -34 43 -6 0 -5 -4 3 -9z"/>
<path d="M133 683 c9 -2 23 -2 30 0 6 3 -1 5 -18 5 -16 0 -22 -2 -12 -5z"/>
<path d="M945 680 c3 -5 8 -10 11 -10 2 0 4 5 4 10 0 6 -5 10 -11 10 -5 0 -7
-4 -4 -10z"/>
<path d="M1640 679 c0 -5 9 -9 20 -9 11 0 20 2 20 4 0 2 -9 6 -20 9 -11 3 -20
1 -20 -4z"/>
<path d="M35 670 c-27 -7 -27 -8 -5 -8 14 0 36 4 50 8 20 6 21 8 5 8 -11 0
-33 -4 -50 -8z"/>
<path d="M1698 663 c7 -3 16 -2 19 1 4 3 -2 6 -13 5 -11 0 -14 -3 -6 -6z"/>
<path d="M130 651 c0 -5 5 -11 11 -13 21 -7 68 -208 48 -208 -5 0 -9 -7 -9
-15 0 -8 5 -14 12 -12 6 1 13 -7 15 -18 3 -16 2 -17 -6 -5 -10 13 -11 13 -11
0 0 -8 9 -21 20 -28 11 -7 20 -19 20 -28 0 -8 4 -13 9 -9 12 7 34 -31 27 -44
-3 -5 1 -11 9 -15 8 -3 15 -14 15 -24 0 -14 -7 -18 -32 -17 -17 0 -33 -4 -35
-10 -2 -6 22 -10 57 -10 45 0 57 3 46 11 -8 6 -26 39 -39 75 -16 43 -29 63
-39 61 -10 -1 -18 14 -27 53 -7 30 -10 59 -7 64 4 5 -6 53 -21 105 -22 74 -32
96 -45 96 -10 0 -18 -4 -18 -9z"/>
<path d="M2566 636 c3 -13 1 -27 -5 -31 -6 -3 -9 -10 -6 -15 3 -5 -4 -12 -15
-15 -40 -13 -13 -29 89 -57 89 -23 104 -25 119 -13 9 8 26 21 37 29 11 9 15
16 9 16 -6 0 -24 -10 -39 -21 -16 -14 -29 -18 -33 -12 -4 6 -17 13 -29 17 -13
3 -33 9 -44 12 -14 4 -19 2 -15 -5 8 -12 -7 -15 -18 -3 -4 4 -24 12 -44 18
l-37 11 38 -1 c20 0 37 -2 37 -5 0 -4 17 -7 38 -7 l37 -1 -40 13 c-22 7 -48
13 -57 13 -10 1 -18 6 -18 12 0 6 7 9 15 5 8 -3 14 -2 12 2 -2 8 7 12 26 12 8
0 7 -3 -3 -10 -13 -8 -13 -9 0 -14 54 -16 106 -24 120 -16 9 5 23 4 33 -1 10
-6 26 -8 36 -4 11 3 55 -3 99 -15 96 -24 92 -24 92 -5 0 8 -12 17 -27 21 -16
3 -44 10 -63 15 -19 4 -46 10 -60 13 -14 2 -62 13 -107 25 -87 22 -119 27 -93
12 8 -5 39 -14 68 -21 28 -6 52 -16 52 -21 0 -5 -10 -5 -22 0 -46 17 -80 22
-73 11 3 -5 1 -10 -4 -10 -6 0 -11 7 -11 15 0 13 -18 20 -42 16 -13 -2 -9 17
5 22 9 4 8 6 -2 6 -8 1 -20 -7 -28 -16 -13 -17 -14 -16 -10 5 4 15 0 22 -9 22
-10 0 -13 -7 -8 -24z m254 -50 c0 -3 -4 -8 -10 -11 -5 -3 -10 -1 -10 4 0 6 5
11 10 11 6 0 10 -2 10 -4z"/>
<path d="M37 638 c-37 -10 -48 -30 -24 -44 7 -4 8 -3 4 2 -8 8 83 37 91 29 2
-2 5 -15 6 -28 0 -14 4 -23 9 -20 4 2 7 -12 7 -31 0 -20 5 -36 10 -36 10 0 7
26 -8 75 -8 27 -9 32 -11 50 -1 17 -27 18 -84 3z"/>
<path d="M697 643 c-11 -11 -8 -20 7 -20 8 0 12 6 9 14 -6 15 -7 15 -16 6z"/>
<path d="M1283 643 c9 -2 23 -2 30 0 6 3 -1 5 -18 5 -16 0 -22 -2 -12 -5z"/>
<path d="M738 628 c6 -6 18 -8 28 -6 14 3 12 5 -9 10 -19 3 -25 2 -19 -4z"/>
<path d="M2296 590 c-17 -38 -45 -59 -31 -22 5 14 4 15 -6 5 -10 -10 -10 -16
-1 -25 17 -17 15 -49 -5 -63 -15 -11 -15 -13 3 -23 31 -17 124 -20 139 -5 9 8
25 11 44 7 29 -6 31 -5 30 22 -1 17 -3 22 -6 12 -3 -12 -14 -18 -33 -18 -24 0
-28 3 -23 18 6 15 5 15 -10 3 -9 -7 -14 -17 -11 -22 3 -5 0 -9 -5 -9 -17 0
-13 15 9 35 19 17 21 17 43 -1 12 -10 9 -4 -8 14 -16 18 -35 30 -42 28 -7 -3
-19 6 -26 21 -9 16 -17 22 -21 14 -4 -6 -2 -11 3 -11 15 0 14 -27 -1 -32 -9
-3 -9 -6 0 -12 7 -4 12 -2 12 3 0 6 5 11 11 11 6 0 9 -12 7 -27 -3 -30 -23
-39 -65 -29 -22 6 -24 10 -17 39 3 18 12 35 19 39 8 5 11 17 7 30 -4 17 -2 20
12 15 11 -5 16 -3 14 5 -9 25 -25 17 -42 -22z"/>
<path d="M1259 606 c-2 -2 -150 -47 -327 -99 -178 -53 -326 -97 -328 -100 -2
-2 -7 -32 -11 -67 -5 -51 -4 -62 8 -58 7 2 15 16 16 31 1 14 7 35 13 46 8 16
8 21 -1 21 -17 0 -5 10 17 14 11 3 33 10 49 17 17 7 41 13 55 14 14 1 39 8 55
15 40 17 55 21 88 21 15 0 27 5 27 11 0 6 9 8 20 5 13 -3 20 0 20 9 0 8 10 14
23 14 13 0 49 9 80 19 32 11 57 16 57 10 0 -5 5 -9 11 -9 5 0 7 4 4 10 -6 10
22 20 65 22 14 1 28 7 32 13 5 7 8 7 8 -1 0 -5 -12 -19 -27 -30 -36 -26 -64
-40 -39 -20 26 21 7 21 -22 0 -13 -9 -29 -13 -37 -10 -8 3 -15 1 -15 -5 0 -6
-7 -8 -16 -5 -8 3 -13 2 -9 -3 8 -14 -17 -19 -42 -10 -31 11 -20 -12 12 -28
14 -6 23 -8 20 -3 -3 4 2 11 11 14 22 8 26 8 19 -4 -3 -6 1 -7 9 -4 9 3 14 10
11 14 -3 4 1 7 8 7 26 -3 97 15 97 24 0 6 -5 7 -12 3 -7 -5 -8 -3 -3 6 6 10
12 8 26 -9 l18 -22 6 23 c18 81 22 108 16 108 -4 0 -10 -2 -12 -4z"/>
<path d="M1302 559 c-7 -28 -12 -60 -11 -72 0 -20 2 -19 10 4 12 31 39 39 142
39 39 0 68 2 66 4 -3 3 -145 15 -181 16 -5 0 -8 7 -8 16 0 14 11 15 87 9 49
-4 91 -12 95 -18 5 -7 8 -3 8 11 0 13 -4 21 -8 18 -8 -5 -144 10 -172 19 -13
4 -19 -6 -28 -46z"/>
<path d="M1695 599 c-16 -5 -58 -10 -92 -11 -60 -3 -82 -17 -50 -32 10 -5 10
-7 0 -12 -28 -13 -13 -34 25 -34 47 0 83 -10 77 -21 -3 -4 11 -11 32 -14 21
-3 45 -10 54 -15 13 -7 16 -5 12 10 -4 14 -16 20 -47 23 l-41 4 43 1 c24 1 41
6 37 11 -3 6 -8 29 -11 53 -4 24 -7 43 -8 44 0 1 -14 -3 -31 -7z m-57 -37
c-21 -10 -38 -21 -38 -25 0 -4 8 -3 18 2 13 7 23 6 31 -2 10 -9 11 -8 6 6 -8
20 5 23 24 5 10 -11 11 -10 6 3 -4 10 0 19 10 23 9 3 13 2 10 -4 -3 -6 -1 -10
4 -10 6 0 11 -5 11 -11 0 -5 -4 -8 -8 -5 -5 3 -9 -1 -9 -9 0 -8 4 -12 8 -9 4
2 11 -1 15 -7 5 -9 -5 -10 -41 -6 -26 4 -63 7 -83 7 -31 0 -33 2 -21 17 12 14
12 16 0 9 -9 -6 -12 -4 -9 5 3 8 22 17 44 20 60 9 62 8 22 -9z"/>
<path d="M700 585 c0 -8 4 -15 10 -15 5 0 7 7 4 15 -4 8 -8 15 -10 15 -2 0 -4
-7 -4 -15z"/>
<path d="M730 590 c0 -6 7 -10 15 -10 8 0 15 2 15 4 0 2 -7 6 -15 10 -8 3 -15
1 -15 -4z"/>
<path d="M2360 592 c0 -12 19 -26 26 -19 2 2 -2 10 -11 17 -9 8 -15 8 -15 2z"/>
<path d="M1870 570 l-65 -7 65 0 c36 -1 76 3 90 7 l25 8 -25 -1 c-14 0 -54 -3
-90 -7z"/>
<path d="M2160 560 c19 -13 30 -13 30 0 0 6 -10 10 -22 10 -19 0 -20 -2 -8
-10z"/>
<path d="M2736 545 c-4 -13 -2 -14 14 -5 23 13 26 20 6 20 -8 0 -16 -7 -20
-15z"/>
<path d="M867 528 c-32 -11 -57 -22 -55 -24 7 -7 118 28 118 37 0 5 -1 8 -2 8
-2 -1 -29 -10 -61 -21z"/>
<path d="M2300 534 c0 -8 5 -12 10 -9 6 3 10 10 10 16 0 5 -4 9 -10 9 -5 0
-10 -7 -10 -16z"/>
<path d="M2698 543 c7 -3 16 -2 19 1 4 3 -2 6 -13 5 -11 0 -14 -3 -6 -6z"/>
<path d="M2812 539 c2 -6 40 -22 83 -35 79 -23 131 -31 88 -14 -13 5 -23 12
-23 15 0 4 10 4 23 0 16 -4 18 -3 7 3 -15 9 -148 42 -170 42 -7 0 -10 -5 -8
-11z m98 -19 c11 -8 7 -9 -15 -4 -37 8 -45 14 -19 14 10 0 26 -5 34 -10z"/>
<path d="M2225 530 c3 -5 13 -10 21 -10 8 0 12 5 9 10 -3 6 -13 10 -21 10 -8
0 -12 -4 -9 -10z"/>
<path d="M2510 521 c0 -4 53 -21 117 -38 118 -32 144 -32 149 1 3 22 -13 20
-27 -2 -11 -18 -17 -17 -125 13 -63 18 -114 29 -114 26z"/>
<path d="M2791 501 c-6 -10 -8 -21 -4 -24 3 -4 1 -13 -5 -20 -9 -10 -9 -14 1
-15 6 0 58 -14 115 -30 103 -30 147 -29 50 1 -48 15 -32 16 32 2 14 -3 19 -2
11 1 -11 5 -11 8 0 16 9 5 4 6 -16 2 -21 -4 -26 -3 -16 4 11 8 11 11 0 16 -8
3 -1 3 16 0 58 -11 16 8 -61 28 -43 11 -86 24 -96 29 -13 7 -20 5 -27 -10z
m49 -11 c18 -12 2 -12 -25 0 -13 6 -15 9 -5 9 8 0 22 -4 30 -9z m44 -21 c-2
-4 3 -9 11 -13 8 -3 15 -1 15 4 0 6 7 10 15 10 9 0 12 -6 8 -16 -4 -11 -13
-14 -31 -9 -13 3 -38 8 -56 11 -27 4 -25 2 9 -10 22 -8 33 -14 25 -14 -26 0
-61 13 -60 22 1 5 -4 12 -10 16 -7 4 8 7 33 6 25 0 43 -4 41 -7z"/>
<path d="M1450 492 c-45 -17 -45 -17 -42 -60 3 -34 7 -42 18 -38 9 3 20 6 25
6 5 0 9 14 9 31 0 19 -4 28 -11 24 -6 -4 -5 3 3 14 8 14 21 21 35 19 12 -2 23
1 23 7 2 15 -12 14 -60 -3z m-5 -80 c-8 -8 -25 10 -19 20 4 6 9 5 15 -3 4 -7
6 -15 4 -17z"/>
<path d="M2088 503 c7 -3 16 -2 19 1 4 3 -2 6 -13 5 -11 0 -14 -3 -6 -6z"/>
<path d="M2484 494 c6 -16 -6 -56 -17 -55 -18 2 -19 0 -7 -14 8 -10 21 -13 33
-9 11 3 17 2 14 -3 -3 -5 3 -9 13 -10 13 -1 17 3 13 13 -3 7 -8 12 -12 10 -4
-3 -13 -1 -20 4 -14 8 -7 30 10 30 6 0 8 -4 5 -9 -4 -5 2 -7 12 -4 9 2 31 -3
47 -11 22 -12 31 -12 37 -3 5 8 9 6 14 -6 4 -12 16 -18 33 -17 44 3 53 1 45
-12 -5 -9 -2 -8 9 1 16 12 17 12 11 -5 -5 -18 -5 -18 10 0 8 10 20 15 26 11 8
-5 7 -11 -2 -23 -12 -14 -10 -14 11 -3 19 11 25 11 32 0 5 -8 9 -18 9 -23 0
-5 14 -6 30 -2 23 4 29 2 24 -7 -5 -9 -4 -9 7 1 17 16 37 16 21 0 -17 -17 -15
-33 3 -18 12 10 18 10 33 -1 14 -11 13 -10 -2 9 -11 12 -14 22 -8 22 6 0 14
-5 17 -10 4 -6 10 -8 15 -5 4 3 11 -2 14 -11 4 -10 2 -13 -7 -8 -9 5 -9 4 0
-6 6 -7 9 -18 6 -25 -4 -11 -11 -11 -38 1 -23 9 -36 10 -40 3 -4 -6 -11 -7
-18 -1 -21 17 -84 30 -98 21 -12 -7 -11 -9 1 -10 33 -2 66 -10 95 -24 17 -7
44 -16 60 -18 17 -3 29 -10 27 -17 -1 -6 3 -10 9 -8 12 4 43 107 35 116 -3 2
-90 29 -193 58 -346 99 -325 94 -319 78z m66 -26 c0 -11 -22 -10 -40 2 -11 8
-9 9 13 8 15 -1 27 -6 27 -10z m35 -26 c-3 -3 -11 0 -18 7 -9 10 -8 11 6 5 10
-3 15 -9 12 -12z m269 -74 c-3 -4 -12 -8 -20 -8 -8 0 -13 4 -10 8 3 5 12 9 20
9 8 0 13 -4 10 -9z"/>
<path d="M128 493 c6 -2 18 -2 25 0 6 3 1 5 -13 5 -14 0 -19 -2 -12 -5z"/>
<path d="M746 491 c-3 -5 -25 -12 -48 -15 -24 -4 -56 -14 -73 -21 l-30 -15 32
6 c61 10 179 52 151 53 -15 1 -29 -3 -32 -8z"/>
<path d="M1540 490 c0 -5 7 -10 15 -10 8 0 15 5 15 10 0 6 -7 10 -15 10 -8 0
-15 -4 -15 -10z"/>
<path d="M356 474 c-10 -25 -1 -27 19 -4 15 17 16 20 3 20 -9 0 -19 -7 -22
-16z"/>
<path d="M975 479 c-4 -6 -5 -12 -2 -15 2 -3 7 2 10 11 7 17 1 20 -8 4z"/>
<path d="M150 472 c0 -7 -83 -31 -124 -36 -11 -2 -21 -7 -23 -13 -3 -8 7 -9
29 -3 102 24 128 34 128 46 0 8 -2 14 -5 14 -3 0 -5 -3 -5 -8z"/>
<path d="M1630 465 c7 -9 15 -13 17 -11 7 7 -7 26 -19 26 -6 0 -6 -6 2 -15z"/>
<path d="M1795 471 c11 -5 72 -12 135 -16 l115 -7 42 -44 c29 -31 47 -42 60
-39 16 5 17 5 1 -6 -15 -12 -13 -17 20 -61 31 -39 41 -47 62 -43 21 4 23 3 8
-7 -15 -11 -15 -14 5 -41 12 -16 32 -39 44 -51 l23 -23 -26 -11 c-14 -7 -33
-12 -42 -11 -14 0 -14 2 2 8 18 7 18 8 3 14 -9 3 -17 2 -17 -3 0 -6 -5 -10
-11 -10 -5 0 -8 4 -5 8 2 4 -10 9 -27 10 -18 2 -44 4 -59 6 -30 4 -39 -17 -12
-28 8 -3 12 -2 9 4 -3 6 -2 10 4 10 5 0 11 -6 14 -12 4 -10 7 -10 18 0 7 6 18
12 24 12 5 0 3 -5 -5 -11 -12 -9 -11 -10 7 -6 12 3 30 -1 40 -8 17 -12 16 -14
-8 -20 -15 -4 -41 -4 -58 -2 -17 3 -31 2 -31 -3 0 -4 19 -10 43 -12 40 -4 51
2 209 106 168 110 220 154 92 75 -38 -23 -73 -44 -77 -46 -8 -5 -84 71 -150
150 -18 21 -45 46 -62 54 -29 15 -29 14 10 -28 22 -24 42 -46 45 -49 3 -3 29
-33 59 -67 29 -35 57 -60 62 -57 5 3 9 0 9 -6 0 -6 6 -8 13 -5 6 4 1 -2 -13
-13 -29 -24 -63 -32 -82 -21 -7 5 -9 9 -4 9 6 0 5 5 -2 12 -24 24 -11 29 21 7
36 -26 38 -28 -47 73 -27 32 -53 55 -58 52 -5 -3 1 -17 13 -30 12 -13 17 -24
11 -24 -11 0 -36 36 -37 53 0 5 -8 15 -18 22 -12 8 -14 16 -8 20 6 3 11 1 11
-4 0 -6 5 -11 11 -11 6 0 -7 20 -30 45 -22 24 -41 49 -41 55 0 5 -13 10 -30
10 -16 0 -30 5 -30 11 0 5 -4 7 -10 4 -5 -3 -10 -3 -10 2 0 4 -58 9 -128 10
-72 1 -118 -2 -107 -6z m339 -79 c3 -5 -1 -9 -9 -9 -8 0 -15 4 -15 9 0 4 4 8
9 8 6 0 12 -4 15 -8z m136 -162 c13 -8 13 -10 -2 -10 -9 0 -20 5 -23 10 -8 13
5 13 25 0z"/>
<path d="M984 448 c-3 -11 -3 -22 -1 -25 9 -8 28 7 22 18 -4 5 4 5 19 -1 14
-5 26 -6 26 -2 0 4 -13 13 -30 19 -26 10 -30 9 -36 -9z"/>
<path d="M1343 457 c-43 -16 -47 -23 -15 -22 15 0 26 -5 25 -12 -1 -6 5 -17
14 -25 15 -11 16 -10 10 11 -3 13 -2 33 4 43 11 21 7 21 -38 5z"/>
<path d="M1500 458 c0 -8 5 -19 11 -25 15 -15 2 -51 -19 -55 -11 -3 -7 -6 11
-10 28 -5 28 -5 25 45 -2 29 -8 52 -15 55 -7 2 -13 -3 -13 -10z"/>
<path d="M1575 459 c-4 -6 -1 -9 6 -8 8 2 23 -2 34 -8 11 -6 29 -13 40 -14 11
-2 23 -8 27 -14 4 -6 8 -2 8 8 0 15 -11 22 -33 18 -4 -1 -18 5 -30 14 -25 18
-43 19 -52 4z"/>
<path d="M1790 446 c0 -10 16 -15 60 -18 33 -1 60 0 60 5 0 4 -18 7 -41 7 -22
0 -49 5 -60 10 -15 8 -19 7 -19 -4z"/>
<path d="M943 443 c-15 -5 -17 -39 -4 -47 5 -3 8 2 7 12 0 9 5 16 12 15 6 -2
12 4 12 12 0 15 -6 17 -27 8z"/>
<path d="M230 415 c0 -14 4 -25 9 -25 4 0 6 11 3 25 -2 14 -6 25 -8 25 -2 0
-4 -11 -4 -25z"/>
<path d="M1555 430 c4 -6 11 -8 16 -5 14 9 11 15 -7 15 -8 0 -12 -5 -9 -10z"/>
<path d="M1713 427 c0 -7 9 -13 19 -13 10 0 18 1 18 3 0 1 -8 7 -18 12 -13 7
-19 6 -19 -2z"/>
<path d="M1923 434 c9 -10 14 -11 55 -13 20 -1 34 -11 54 -44 15 -23 39 -53
53 -67 14 -13 25 -27 25 -32 0 -5 9 -18 20 -30 10 -12 17 -24 15 -28 -3 -5 2
-11 11 -14 41 -16 -5 -20 -105 -11 -123 12 -168 32 -63 28 6 -1 12 3 12 8 0 5
-7 9 -15 9 -9 0 -18 7 -21 15 -4 8 -14 15 -23 15 -14 -1 -13 -3 3 -15 11 -8
18 -16 15 -17 -33 -21 -52 -26 -80 -23 -24 3 -29 2 -18 -5 9 -5 42 -12 75 -15
32 -3 66 -7 74 -10 37 -11 201 -14 194 -4 -3 6 -12 8 -20 5 -8 -3 -11 0 -7 9
7 20 -155 235 -177 235 -10 0 -33 3 -51 6 -20 4 -31 3 -26 -2z"/>
<path d="M857 417 c3 -4 12 -6 20 -3 12 5 14 1 9 -20 -6 -22 -5 -24 8 -12 8 7
12 15 10 17 -2 2 1 10 6 16 8 10 2 12 -24 12 -19 -1 -32 -5 -29 -10z"/>
<path d="M1608 410 c12 -11 24 -20 27 -20 3 0 0 9 -7 20 -7 11 -19 20 -27 20
-11 0 -9 -6 7 -20z"/>
<path d="M802 400 c-22 -18 -31 -37 -12 -25 6 3 10 0 11 -7 0 -7 7 1 14 17 8
17 15 27 16 23 5 -24 4 -35 -5 -48 -10 -13 -9 -13 6 -1 10 7 15 18 11 24 -4 6
0 8 10 4 26 -10 20 8 -6 20 -18 8 -27 7 -45 -7z"/>
<path d="M1210 410 c-23 -7 -23 -8 -3 -9 12 -1 25 4 28 9 3 6 5 10 3 9 -2 -1
-14 -5 -28 -9z"/>
<path d="M1274 394 c1 -31 1 -31 24 -16 17 11 20 17 11 23 -7 4 -16 6 -20 3
-4 -2 -9 2 -12 8 -2 7 -4 -1 -3 -18z"/>
<path d="M761 402 c0 -8 -6 -10 -13 -6 -10 5 -10 4 -1 -6 6 -7 9 -20 6 -29 -5
-12 -3 -13 6 -5 7 7 11 22 8 35 -2 13 -5 18 -6 11z"/>
<path d="M1767 396 c-4 -10 -3 -15 3 -11 6 3 10 1 10 -6 0 -7 3 -10 6 -6 3 3
2 13 -4 22 -8 16 -9 16 -15 1z"/>
<path d="M1800 389 c0 -11 4 -18 10 -14 5 3 7 12 3 20 -7 21 -13 19 -13 -6z"/>
<path d="M1132 385 c-9 -7 -20 -13 -25 -13 -25 -1 -67 -15 -67 -22 0 -4 8 -14
18 -21 15 -13 16 -12 4 3 -11 14 -10 17 9 23 12 4 28 8 35 9 7 1 17 5 20 9 11
11 46 8 39 -2 -3 -5 4 -13 16 -16 28 -9 35 1 10 15 -12 6 -19 15 -17 19 8 12
-22 9 -42 -4z"/>
<path d="M2616 380 c12 -13 27 -21 33 -19 6 2 -4 12 -22 22 l-32 18 21 -21z"/>
<path d="M1220 380 c0 -5 5 -10 10 -10 6 0 10 5 10 10 0 6 -4 10 -10 10 -5 0
-10 -4 -10 -10z"/>
<path d="M1696 377 c3 -10 9 -15 12 -12 3 3 0 11 -7 18 -10 9 -11 8 -5 -6z"/>
<path d="M1440 370 c0 -5 5 -10 11 -10 5 0 7 5 4 10 -3 6 -8 10 -11 10 -2 0
-4 -4 -4 -10z"/>
<path d="M2265 370 c-3 -5 -1 -10 4 -10 6 0 11 5 11 10 0 6 -2 10 -4 10 -3 0
-8 -4 -11 -10z"/>
<path d="M702 359 c-13 -5 -29 -6 -34 -3 -6 4 -8 1 -6 -7 3 -8 10 -13 16 -12
7 2 9 -4 5 -15 -4 -9 6 -3 21 13 25 27 26 28 15 5 -11 -23 -11 -24 4 -11 17
14 23 42 10 40 -5 0 -19 -4 -31 -10z"/>
<path d="M1390 363 c8 -3 29 -12 45 -20 l30 -14 -25 20 c-14 11 -34 20 -45 20
-14 0 -16 -2 -5 -6z"/>
<path d="M1612 359 c17 -7 25 -15 21 -25 -3 -8 -1 -14 4 -14 13 0 12 33 -1 42
-6 4 -20 7 -31 7 -16 0 -14 -3 7 -10z"/>
<path d="M2390 353 c0 -12 28 -38 34 -32 2 2 -5 13 -15 23 -11 11 -19 15 -19
9z"/>
<path d="M2680 350 c0 -5 7 -10 15 -10 8 0 15 5 15 10 0 6 -7 10 -15 10 -8 0
-15 -4 -15 -10z"/>
<path d="M1095 341 c-3 -6 5 -15 17 -21 21 -10 21 -10 6 3 -10 8 -15 17 -11
20 3 4 4 7 0 7 -3 0 -8 -4 -12 -9z"/>
<path d="M1303 331 c-3 -12 -10 -18 -17 -14 -6 3 -8 2 -3 -2 4 -5 17 -10 29
-12 17 -3 19 -1 9 11 -9 11 -9 15 1 18 9 3 9 6 -1 12 -8 5 -14 1 -18 -13z"/>
<path d="M1566 342 c-3 -5 1 -9 9 -9 8 0 15 4 15 9 0 4 -4 8 -9 8 -6 0 -12 -4
-15 -8z"/>
<path d="M1810 331 c0 -12 5 -21 10 -21 6 0 10 6 10 14 0 8 -4 18 -10 21 -5 3
-10 -3 -10 -14z"/>
<path d="M2318 344 c6 -3 10 -9 7 -14 -3 -4 4 -6 15 -3 25 7 18 16 -13 19 -12
2 -16 0 -9 -2z"/>
<path d="M632 323 c4 -20 38 -27 38 -7 0 8 -6 11 -17 7 -11 -4 -14 -3 -9 5 4
7 2 12 -4 12 -6 0 -10 -7 -8 -17z"/>
<path d="M963 330 c-31 -13 -29 -22 2 -10 23 9 29 6 26 -12 0 -4 5 -5 13 -2 8
3 17 0 21 -6 8 -13 -55 -9 -102 5 -12 4 -30 2 -40 -4 -16 -9 -16 -10 7 -11 14
-1 58 -5 98 -9 40 -4 78 -3 85 1 8 5 3 8 -12 8 -16 0 -21 4 -18 15 4 8 1 17
-5 21 -7 4 -8 3 -4 -4 11 -17 -9 -15 -24 3 -14 17 -16 17 -47 5z"/>
<path d="M1210 330 c0 -5 5 -10 10 -10 6 0 10 5 10 10 0 6 -4 10 -10 10 -5 0
-10 -4 -10 -10z"/>
<path d="M1477 329 c7 -7 15 -10 18 -7 3 3 -2 9 -12 12 -14 6 -15 5 -6 -5z"/>
<path d="M1724 329 c-3 -5 6 -9 20 -9 31 0 34 6 6 13 -11 3 -23 1 -26 -4z"/>
<path d="M2370 330 c0 -5 5 -10 11 -10 5 0 7 5 4 10 -3 6 -8 10 -11 10 -2 0
-4 -4 -4 -10z"/>
<path d="M102 300 c-51 -15 -96 -31 -99 -34 -8 -8 62 -1 76 8 6 4 15 4 21 1 5
-3 10 -2 10 4 0 6 6 8 14 5 8 -3 17 0 21 5 3 6 11 8 17 5 6 -4 14 -1 18 7 7
10 12 10 26 -2 16 -13 16 -12 5 9 -6 12 -13 22 -14 21 -1 0 -44 -14 -95 -29z"/>
<path d="M1660 315 c0 -8 4 -15 10 -15 5 0 7 7 4 15 -4 8 -8 15 -10 15 -2 0
-4 -7 -4 -15z"/>
<path d="M1950 320 c8 -5 20 -10 25 -10 6 0 3 5 -5 10 -8 5 -19 10 -25 10 -5
0 -3 -5 5 -10z"/>
<path d="M1086 308 c5 -7 9 -17 9 -22 0 -5 11 -13 25 -17 22 -8 23 -8 8 4 -10
8 -15 17 -12 20 3 3 -4 11 -16 17 -18 10 -21 10 -14 -2z"/>
<path d="M1556 303 c-4 -10 -13 -13 -24 -8 -13 5 -14 4 -5 -6 10 -10 15 -9 28
1 12 10 18 10 30 0 18 -15 30 -7 18 12 -11 18 -41 19 -47 1z"/>
<path d="M1140 298 c0 -12 30 -37 45 -38 6 0 3 4 -5 10 -8 5 -11 12 -7 16 4 4
15 0 25 -10 10 -11 13 -20 6 -22 -6 -3 -9 -18 -6 -34 4 -28 2 -30 -24 -26 -16
2 -23 1 -16 -1 6 -2 12 -9 12 -14 0 -11 -3 -11 -33 0 -14 5 -38 6 -58 0 l-34
-8 35 3 c19 2 46 -1 59 -6 20 -7 23 -13 18 -43 -5 -31 -4 -33 9 -21 7 8 11 23
8 33 -5 16 -4 16 8 2 9 -11 20 -14 35 -8 33 12 62 1 58 -23 -3 -11 1 -18 8
-15 13 4 59 -42 52 -53 -3 -5 3 -6 13 -3 11 2 26 -2 35 -11 13 -14 16 -14 21
0 3 8 2 12 -4 9 -6 -3 -10 4 -9 17 0 13 3 17 6 11 2 -7 10 -13 16 -13 8 0 7 4
-1 12 -20 20 -14 38 13 38 14 0 25 -4 25 -10 0 -5 -4 -10 -10 -10 -5 0 -10 -7
-10 -16 0 -11 5 -14 16 -10 12 5 15 2 10 -9 -3 -9 -2 -13 4 -10 6 3 10 1 10
-6 0 -7 3 -10 6 -7 10 11 -16 49 -29 42 -9 -5 -9 -4 0 6 13 14 68 5 59 -9 -3
-5 11 -21 31 -37 27 -21 35 -23 30 -10 -4 10 -7 20 -7 22 0 2 -9 4 -20 4 -11
0 -19 3 -18 8 3 15 -15 62 -24 62 -5 0 -6 -5 -3 -10 9 -14 -32 -7 -47 8 -7 7
-20 12 -30 12 -11 0 -18 7 -18 19 0 26 22 42 40 31 8 -6 23 -10 33 -10 15 0
16 2 5 14 -8 9 -15 10 -19 4 -4 -7 -8 -6 -10 1 -3 7 -11 13 -19 14 -8 2 -21 6
-28 11 -10 6 -11 2 -7 -17 4 -14 2 -28 -3 -31 -6 -3 -8 2 -5 13 4 16 1 19 -17
14 -19 -5 -21 -3 -16 15 4 11 2 23 -4 27 -14 9 -28 -4 -15 -13 6 -4 11 -17 12
-29 2 -16 -2 -21 -12 -17 -8 4 -13 9 -11 13 2 3 -7 7 -21 8 -18 1 -22 -2 -14
-10 12 -12 35 -18 63 -18 11 0 20 -10 24 -27 3 -15 7 -31 9 -37 1 -5 -2 -18
-7 -28 -9 -17 -11 -17 -29 4 -10 12 -19 18 -19 13 0 -5 -5 -1 -11 9 -5 9 -16
17 -24 17 -8 0 -12 6 -9 14 3 8 1 23 -5 33 -6 10 -11 13 -11 6 0 -14 -31 -6
-42 11 -4 6 -8 1 -8 -11 0 -28 -26 -30 -33 -3 -3 13 1 21 13 25 10 3 21 16 24
29 3 13 9 31 12 40 4 10 1 16 -9 16 -8 0 -17 4 -19 10 -5 15 -68 31 -68 18z"/>
<path d="M1620 306 c0 -2 8 -10 18 -17 15 -13 16 -12 3 4 -13 16 -21 21 -21
13z"/>
<path d="M2410 300 c-9 -6 -10 -10 -3 -10 6 0 15 5 18 10 8 12 4 12 -15 0z"/>
<path d="M2495 300 c-3 -6 1 -7 9 -4 18 7 21 14 7 14 -6 0 -13 -4 -16 -10z"/>
<path d="M370 290 c-13 -8 -12 -10 3 -10 9 0 17 5 17 10 0 12 -1 12 -20 0z"/>
<path d="M1374 289 c-3 -6 -15 -8 -26 -6 -16 4 -17 3 -7 -9 15 -19 22 -18 37
6 7 11 10 20 8 20 -3 0 -8 -5 -12 -11z"/>
<path d="M1406 287 c3 -10 9 -15 12 -12 3 3 0 11 -7 18 -10 9 -11 8 -5 -6z"/>
<path d="M1712 288 c3 -7 18 -14 34 -16 l29 -2 -25 14 c-31 19 -43 20 -38 4z"/>
<path d="M2018 293 c6 -2 18 -2 25 0 6 3 1 5 -13 5 -14 0 -19 -2 -12 -5z"/>
<path d="M1270 270 c12 -23 19 -24 40 -9 12 8 10 9 -7 4 -17 -5 -23 -2 -23 9
0 9 -5 16 -10 16 -7 0 -7 -6 0 -20z"/>
<path d="M1830 270 c19 -13 30 -13 30 0 0 6 -10 10 -22 10 -19 0 -20 -2 -8
-10z"/>
<path d="M1425 251 c-3 -12 -11 -18 -17 -15 -7 4 -8 2 -4 -5 4 -6 12 -8 18 -5
6 4 14 1 18 -6 4 -7 13 -9 20 -5 7 4 8 10 3 14 -5 3 -14 15 -20 25 -10 19 -11
18 -18 -3z"/>
<path d="M1676 261 c-3 -5 1 -11 9 -14 9 -4 12 -1 8 9 -6 16 -10 17 -17 5z"/>
<path d="M1985 260 c3 -5 8 -10 11 -10 2 0 4 5 4 10 0 6 -5 10 -11 10 -5 0 -7
-4 -4 -10z"/>
<path d="M2019 257 c6 -8 28 -14 48 -15 l38 0 -45 14 c-55 17 -55 17 -41 1z"/>
<path d="M113 253 c4 -3 1 -13 -6 -22 -10 -14 -10 -14 4 -4 12 10 18 10 29 0
8 -6 6 -2 -4 11 -11 12 -21 22 -24 22 -3 0 -2 -3 1 -7z"/>
<path d="M375 250 c-16 -7 -17 -9 -3 -9 9 -1 20 4 23 9 7 11 7 11 -20 0z"/>
<path d="M576 245 c-3 -8 -1 -15 4 -15 6 0 10 7 10 15 0 8 -2 15 -4 15 -2 0
-6 -7 -10 -15z"/>
<path d="M1051 251 c-5 -4 1 -11 15 -18 21 -9 24 -9 24 6 0 17 -20 23 -39 12z"/>
<path d="M1490 256 c0 -2 7 -9 15 -16 13 -11 14 -10 9 4 -5 14 -24 23 -24 12z"/>
<path d="M1535 250 c-3 -5 -1 -10 4 -10 6 0 11 5 11 10 0 6 -2 10 -4 10 -3 0
-8 -4 -11 -10z"/>
<path d="M1565 250 c3 -5 18 -10 32 -10 32 0 25 9 -12 16 -17 3 -24 1 -20 -6z"/>
<path d="M1715 250 c3 -5 8 -10 11 -10 2 0 4 5 4 10 0 6 -5 10 -11 10 -5 0 -7
-4 -4 -10z"/>
<path d="M1775 252 c6 -4 10 -13 11 -19 2 -29 4 -34 12 -30 4 3 8 -21 9 -53 1
-57 1 -58 -30 -65 -58 -13 -71 -12 -91 7 -30 28 -53 18 -40 -17 6 -14 16 -16
68 -11 34 3 70 8 81 10 11 3 23 5 27 5 11 1 0 135 -11 139 -5 2 -7 11 -4 20 3
13 -2 18 -19 19 -12 1 -18 -1 -13 -5z"/>
<path d="M1145 240 c6 -10 4 -12 -8 -7 -11 4 -17 1 -17 -8 0 -9 -10 -15 -26
-15 -14 0 -23 -4 -19 -9 7 -12 59 5 75 24 8 10 8 15 -1 21 -8 5 -9 3 -4 -6z"/>
<path d="M1285 240 c-19 -8 -19 -9 2 -9 12 -1 25 4 28 9 7 12 -2 12 -30 0z"/>
<path d="M2987 233 c-5 -13 -5 -28 -1 -34 4 -7 3 -9 -3 -6 -5 3 -22 -33 -37
-81 -16 -48 -31 -93 -33 -100 -3 -6 -1 -12 5 -12 6 0 13 14 17 31 4 18 12 29
19 26 8 -3 11 5 10 27 -2 17 6 49 18 72 11 22 18 53 16 70 -3 27 -4 28 -11 7z"/>
<path d="M430 220 c-6 -11 -8 -20 -6 -20 3 0 10 9 16 20 6 11 8 20 6 20 -3 0
-10 -9 -16 -20z"/>
<path d="M780 230 c0 -5 5 -10 11 -10 5 0 7 5 4 10 -3 6 -8 10 -11 10 -2 0 -4
-4 -4 -10z"/>
<path d="M1662 220 c7 -11 16 -20 19 -20 4 0 5 9 2 20 -3 11 -12 20 -19 20
-12 0 -12 -4 -2 -20z"/>
<path d="M1757 233 c-4 -3 -7 -11 -7 -17 0 -6 5 -5 12 2 6 6 9 14 7 17 -3 3
-9 2 -12 -2z"/>
<path d="M1557 199 c6 -23 9 -24 16 -5 3 8 0 17 -7 19 -10 4 -12 -1 -9 -14z"/>
<path d="M150 194 c-16 -10 -18 -13 -5 -8 11 4 30 6 43 5 12 0 22 4 22 9 0 15
-31 11 -60 -6z"/>
<path d="M1038 203 c7 -3 16 -2 19 1 4 3 -2 6 -13 5 -11 0 -14 -3 -6 -6z"/>
<path d="M1495 201 c-3 -5 -1 -12 4 -15 5 -3 11 1 15 9 6 16 -9 21 -19 6z"/>
<path d="M1772 190 c0 -14 2 -19 5 -12 2 6 2 18 0 25 -3 6 -5 1 -5 -13z"/>
<path d="M760 180 c6 -11 13 -20 16 -20 2 0 0 9 -6 20 -6 11 -13 20 -16 20 -2
0 0 -9 6 -20z"/>
<path d="M853 187 c14 -12 15 -16 4 -26 -8 -6 -17 -8 -20 -4 -4 3 -7 2 -7 -4
0 -6 9 -13 19 -16 12 -3 18 0 15 7 -3 7 11 12 36 14 22 1 40 -2 40 -7 0 -6 -8
-8 -17 -4 -15 5 -16 4 -5 -8 14 -15 74 -20 69 -6 -1 5 -6 8 -10 8 -4 -1 -16 8
-27 19 -12 12 -26 17 -36 13 -13 -5 -15 -3 -9 8 6 11 5 11 -5 2 -10 -9 -19 -8
-39 4 -21 12 -22 12 -8 0z"/>
<path d="M1702 188 c-15 -15 -16 -28 -2 -28 6 0 10 7 10 16 0 8 4 13 9 10 11
-7 2 -46 -11 -46 -5 0 -7 -4 -3 -10 12 -19 33 2 31 32 -2 35 -15 45 -34 26z"/>
<path d="M30 179 c0 -5 5 -7 10 -4 6 3 10 8 10 11 0 2 -4 4 -10 4 -5 0 -10 -5
-10 -11z"/>
<path d="M265 181 c-3 -5 -1 -12 5 -16 5 -3 10 1 10 9 0 18 -6 21 -15 7z"/>
<path d="M548 165 c-17 -22 -17 -24 0 -36 14 -11 15 -11 5 1 -10 11 -9 17 4
32 9 10 14 20 12 22 -2 2 -12 -6 -21 -19z"/>
<path d="M1525 180 c-3 -5 -2 -10 4 -10 5 0 13 5 16 10 3 6 2 10 -4 10 -5 0
-13 -4 -16 -10z"/>
<path d="M1629 173 c-12 -15 -12 -16 4 -10 10 4 23 7 28 7 5 0 9 5 9 10 0 16
-26 12 -41 -7z"/>
<path d="M985 170 c-3 -5 -1 -10 4 -10 6 0 11 5 11 10 0 6 -2 10 -4 10 -3 0
-8 -4 -11 -10z"/>
<path d="M1565 170 c-19 -9 -19 -9 3 -16 13 -4 22 -14 22 -26 0 -10 -4 -17 -9
-14 -11 7 -23 -22 -15 -36 3 -5 -3 -4 -14 3 -12 7 -20 15 -20 18 2 11 -14 41
-22 41 -4 0 0 -16 8 -35 9 -19 18 -32 21 -30 2 3 11 -4 19 -16 8 -11 20 -18
28 -15 7 3 16 1 19 -5 4 -5 11 -7 16 -4 5 3 6 -2 2 -11 -4 -12 -3 -15 5 -10 7
4 12 2 12 -3 0 -6 4 -11 9 -11 5 0 4 13 -2 29 -6 17 -14 28 -18 25 -4 -2 -11
0 -14 6 -5 8 -11 8 -19 1 -7 -6 -16 -8 -19 -5 -8 9 21 64 34 64 6 0 4 7 -5 15
-8 9 -13 22 -10 30 7 17 -1 18 -31 5z"/>
<path d="M1855 160 c-4 -7 -2 -17 4 -23 6 -6 11 -7 11 -1 0 5 11 9 24 9 13 0
22 -3 20 -7 -3 -4 8 -7 23 -6 15 1 42 -2 58 -6 22 -6 26 -5 15 3 -8 6 -23 11
-33 11 -10 0 -15 5 -12 10 4 6 -10 10 -34 10 -21 0 -46 3 -54 6 -8 3 -18 0
-22 -6z"/>
<path d="M140 151 c0 -6 4 -12 8 -15 5 -3 9 1 9 9 0 8 -4 15 -9 15 -4 0 -8 -4
-8 -9z"/>
<path d="M745 139 c-4 -12 -2 -26 3 -31 8 -8 9 -4 5 12 -4 16 -3 21 5 16 8 -5
10 -2 6 8 -8 21 -11 20 -19 -5z"/>
<path d="M1010 150 c0 -5 5 -10 10 -10 6 0 10 5 10 10 0 6 -4 10 -10 10 -5 0
-10 -4 -10 -10z"/>
<path d="M2000 155 c0 -10 63 -33 76 -28 19 7 18 18 -3 20 -10 1 -30 4 -45 7
-16 2 -28 3 -28 1z"/>
<path d="M25 141 c-3 -5 -1 -12 4 -15 5 -3 11 1 15 9 6 16 -9 21 -19 6z"/>
<path d="M68 143 c6 -2 18 -2 25 0 6 3 1 5 -13 5 -14 0 -19 -2 -12 -5z"/>
<path d="M110 146 c0 -2 8 -10 18 -17 15 -13 16 -12 3 4 -13 16 -21 21 -21 13z"/>
<path d="M1310 135 c0 -8 7 -15 15 -15 8 0 15 4 15 9 0 5 -7 11 -15 15 -9 3
-15 0 -15 -9z"/>
<path d="M180 130 c-9 -6 -10 -10 -3 -10 6 0 15 5 18 10 8 12 4 12 -15 0z"/>
<path d="M210 129 c0 -5 5 -7 10 -4 6 3 10 8 10 11 0 2 -4 4 -10 4 -5 0 -10
-5 -10 -11z"/>
<path d="M1053 123 c-10 -10 -13 -14 -6 -9 15 10 32 -1 18 -12 -12 -9 -19 -43
-8 -41 19 3 33 -2 33 -12 0 -8 -4 -8 -14 0 -10 8 -16 9 -21 1 -3 -5 1 -10 10
-10 11 0 15 -5 11 -15 -3 -8 -1 -15 4 -15 6 0 11 8 12 18 2 32 4 37 12 51 7
11 5 13 -6 8 -12 -4 -15 1 -14 19 1 22 5 25 29 21 15 -2 30 0 33 5 10 16 -74
8 -93 -9z"/>
<path d="M1460 130 c0 -5 4 -10 9 -10 6 0 13 5 16 10 3 6 -1 10 -9 10 -9 0
-16 -4 -16 -10z"/>
<path d="M1635 130 c-8 -13 25 -13 45 0 12 8 9 10 -12 10 -15 0 -30 -4 -33
-10z"/>
<path d="M830 116 c6 -8 19 -12 27 -9 10 4 14 2 10 -4 -4 -6 0 -14 9 -17 9 -4
13 -2 8 5 -5 8 5 10 30 7 20 -2 36 -3 36 -2 0 9 -61 31 -66 23 -3 -5 -13 -5
-24 1 -29 15 -45 13 -30 -4z"/>
<path d="M85 110 c4 -6 11 -8 16 -5 14 9 11 15 -7 15 -8 0 -12 -5 -9 -10z"/>
<path d="M297 104 l-28 -15 36 -42 c31 -36 42 -42 75 -42 21 -1 36 3 34 7 -3
5 -10 6 -15 3 -5 -4 -10 -1 -10 4 -3 22 -5 27 -29 63 -28 43 -26 42 -63 22z
m78 -74 c2 -27 -18 -18 -54 23 -30 33 -32 42 -8 38 4 0 7 4 7 10 0 17 54 -52
55 -71z"/>
<path d="M315 80 c-4 -6 -1 -9 6 -8 7 2 13 -3 14 -11 0 -8 8 -15 19 -17 16 -2
16 0 -5 22 -26 28 -26 27 -34 14z"/>
<path d="M350 116 c0 -2 8 -10 18 -17 15 -13 16 -12 3 4 -13 16 -21 21 -21 13z"/>
<path d="M625 109 c-4 -6 -5 -12 -2 -15 2 -3 7 2 10 11 7 17 1 20 -8 4z"/>
<path d="M1208 104 l-36 -15 14 -36 c8 -19 11 -32 5 -29 -5 4 -13 1 -16 -5
-11 -17 -1 -19 27 -5 15 8 30 11 34 8 4 -4 4 -2 0 5 -3 6 -2 14 4 18 5 3 10 0
10 -9 0 -21 23 -25 37 -7 18 23 16 44 -2 37 -9 -3 -18 1 -21 9 -3 7 -12 11
-20 8 -8 -3 -11 -9 -8 -14 3 -5 0 -9 -6 -9 -6 0 -8 -4 -5 -10 9 -14 -8 -13
-23 2 -15 15 -16 31 0 22 7 -4 8 -3 4 4 -4 8 3 16 18 22 14 5 26 12 26 15 0 6
2 7 -42 -11z m72 -64 c0 -5 -4 -10 -10 -10 -5 0 -10 5 -10 10 0 6 5 10 10 10
6 0 10 -4 10 -10z"/>
<path d="M1337 113 c-3 -5 1 -14 9 -20 14 -14 30 0 19 17 -7 12 -22 13 -28 3z"/>
<path d="M720 106 c0 -2 8 -10 18 -17 15 -13 16 -12 3 4 -13 16 -21 21 -21 13z"/>
<path d="M1118 103 c7 -3 16 -2 19 1 4 3 -2 6 -13 5 -11 0 -14 -3 -6 -6z"/>
<path d="M1845 101 c3 -6 13 -9 23 -9 9 0 41 -2 70 -6 29 -4 52 -3 52 2 0 10
-70 22 -122 22 -16 0 -27 -4 -23 -9z"/>
<path d="M1003 85 c0 -7 6 -11 14 -8 7 3 13 6 13 8 0 2 -6 5 -13 8 -8 3 -14
-1 -14 -8z"/>
<path d="M2000 92 c0 -4 9 -13 20 -20 13 -8 20 -8 20 -2 0 7 7 7 21 -1 16 -8
20 -8 14 1 -6 9 -3 9 13 1 27 -14 32 -14 32 2 0 8 -15 14 -39 15 -21 2 -48 5
-60 7 -11 2 -21 1 -21 -3z"/>
<path d="M716 77 c3 -10 9 -15 12 -12 3 3 0 11 -7 18 -10 9 -11 8 -5 -6z"/>
<path d="M231 71 c-7 -5 -11 -13 -7 -19 3 -6 2 -13 -4 -17 -5 -3 -10 0 -10 7
0 10 -3 9 -10 -2 -6 -9 -5 -17 3 -22 15 -9 33 -10 24 -1 -4 3 -2 12 4 20 6 7
8 13 4 13 -4 0 -2 7 5 15 14 17 11 19 -9 6z"/>
<path d="M415 40 c21 -22 41 -40 43 -40 9 0 -63 78 -73 79 -5 1 9 -17 30 -39z"/>
<path d="M945 71 c3 -5 -3 -12 -12 -14 -11 -3 -8 -5 10 -6 18 -1 27 4 27 14 0
8 -7 15 -16 15 -8 0 -13 -4 -9 -9z"/>
<path d="M1021 52 c-8 -14 -6 -19 5 -19 7 0 14 9 14 19 0 10 -2 18 -5 18 -2 0
-9 -8 -14 -18z"/>
<path d="M1156 62 c-3 -6 -1 -14 5 -17 15 -10 25 3 12 16 -7 7 -13 7 -17 1z"/>
<path d="M1905 60 c3 -5 11 -10 16 -10 6 0 7 5 4 10 -3 6 -11 10 -16 10 -6 0
-7 -4 -4 -10z"/>
<path d="M268 42 c9 -11 20 -17 25 -15 4 2 7 0 7 -6 0 -5 -8 -12 -17 -14 -16
-4 -16 -5 -1 -6 28 -2 33 21 8 41 -29 23 -45 23 -22 0z"/>
<path d="M1115 50 c3 -5 10 -10 16 -10 5 0 9 5 9 10 0 6 -7 10 -16 10 -8 0
-12 -4 -9 -10z"/>
<path d="M2093 45 c0 -7 6 -11 14 -8 7 3 13 6 13 8 0 2 -6 5 -13 8 -8 3 -14
-1 -14 -8z"/>
<path d="M2151 34 c-13 -13 -34 -25 -45 -25 -18 -1 -18 -2 -3 -6 15 -4 97 41
97 53 0 12 -28 -1 -49 -22z"/>
<path d="M706 35 c5 -13 4 -16 -4 -11 -8 5 -10 1 -5 -10 4 -11 8 -13 11 -6 2
7 8 10 13 6 15 -9 10 13 -6 26 -13 11 -14 10 -9 -5z"/>
<path d="M2023 35 c0 -7 7 -11 15 -7 11 4 13 1 7 -8 -5 -9 -4 -11 3 -6 16 10
15 14 -6 25 -14 7 -19 6 -19 -4z"/>
<path d="M247 33 c-10 -9 -9 -33 1 -33 4 0 8 9 9 20 2 21 0 24 -10 13z"/>
<path d="M910 31 c-14 -4 -20 -9 -15 -12 26 -15 45 -17 51 -7 5 7 2 8 -6 3
-10 -6 -12 -4 -7 8 3 10 5 17 4 16 -1 -1 -13 -4 -27 -8z"/>
<path d="M980 24 c0 -8 5 -12 10 -9 6 4 8 11 5 16 -9 14 -15 11 -15 -7z"/>
<path d="M1100 14 c0 -14 3 -14 15 -4 8 7 15 14 15 16 0 2 -7 4 -15 4 -8 0
-15 -7 -15 -16z"/>
<path d="M1136 15 c-3 -9 0 -15 9 -15 16 0 20 16 6 24 -5 3 -11 -1 -15 -9z"/>
<path d="M1350 15 c0 -8 4 -15 10 -15 5 0 7 7 4 15 -4 8 -8 15 -10 15 -2 0 -4
-7 -4 -15z"/>
<path d="M1503 17 c0 -7 9 -13 19 -13 10 0 18 1 18 3 0 1 -8 7 -18 12 -13 7
-19 6 -19 -2z"/>
<path d="M1730 20 c0 -6 7 -10 15 -10 8 0 15 2 15 4 0 2 -7 6 -15 10 -8 3 -15
1 -15 -4z"/>
<path d="M2960 15 c0 -8 4 -15 10 -15 5 0 7 7 4 15 -4 8 -8 15 -10 15 -2 0 -4
-7 -4 -15z"/>
<path d="M1430 10 c-9 -6 -10 -10 -3 -10 6 0 15 5 18 10 8 12 4 12 -15 0z"/>
</g>
</svg>
